<svg xmlns="http://www.w3.org/2000/svg" viewBox="0 0 60.85 165"><defs><style>.cls-1{fill:none;}.cls-2{fill:#fff;}</style></defs><title>Right Cactus</title><g id="Layer_2" data-name="Layer 2"><g id="Logo"><path class="cls-1" d="M3.36,74.71h0Z"/><path class="cls-1" d="M3.31,74.69h0Z"/><path class="cls-1" d="M3.21,74.61h0Z"/><polygon class="cls-1" points="3.17 74.65 3.17 74.65 3.17 74.65 3.17 74.65"/><polygon class="cls-1" points="3.23 74.62 3.23 74.62 3.23 74.62 3.23 74.62"/><path class="cls-1" d="M3.17,74.65h0Z"/><path class="cls-1" d="M3.2,74.62h0Z"/><path class="cls-1" d="M3.14,74.64h0Z"/><path class="cls-2" d="M43.55,74.18l.77-.16a21.28,21.28,0,0,0,3.43-1,11.14,11.14,0,0,0,5.4-4.24l.71-1.12a53.37,53.37,0,0,0,4.26-7.53A34.84,34.84,0,0,0,60.69,48.8a103.45,103.45,0,0,0-.08-12.32c-.08-1.8-.17-3.66-.21-5.48,0-2.11-.06-4.26-.07-6.33,0-3.09,0-6.29-.17-9.43A29.34,29.34,0,0,0,59.36,9c-.23-.88-.54-1.75-.83-2.59l-.34-1-.05-.16a15.57,15.57,0,0,0-1.06-2.64A4.47,4.47,0,0,0,55.46.85,5.8,5.8,0,0,0,52.56,0c-1.08,0-2,.76-2.79,2.15A13.51,13.51,0,0,0,48.46,6a25.1,25.1,0,0,0-.53,4.63,26.07,26.07,0,0,0,.13,2.74l0,.46c.15,2,.2,4,.23,5.81,0,2.26,0,4.46,0,6.54v.25A45.16,45.16,0,0,1,48,30.93a20.89,20.89,0,0,0-.15,3,4.21,4.21,0,0,0-3.32.29,5.1,5.1,0,0,0-2.07,2.44,17,17,0,0,0-1.12,4.17A21.42,21.42,0,0,1,40.65,44a11.28,11.28,0,0,1-1,2l-.18.31c-.35.6-.72,1.19-1.08,1.77a30.22,30.22,0,0,1-.5-4c-.13-1.83-.2-3.77-.2-5.93s.05-3.81.17-5.43a20.38,20.38,0,0,0-.1-4.89,17,17,0,0,0-1.79-5.45c-.84-1.52-2.29-3.36-4.47-3.48a6.65,6.65,0,0,0-3.44,1,10.66,10.66,0,0,0-2.52,1.8,9.62,9.62,0,0,0-2.62,5.79,36.19,36.19,0,0,0-.22,5V54.75q0,1.53,0,3.05c0,2,0,4,0,6a6.81,6.81,0,0,0-2.59-3.92,4.46,4.46,0,0,0-1.31-.65,4.34,4.34,0,0,0-2.65.18c.19-4.26.27-7.81.25-11.12,0-2.73,0-6.12-2-8.56a6.42,6.42,0,0,0-4.63-2.37,5.93,5.93,0,0,0-4.9,2.51,10.88,10.88,0,0,0-1.7,5.73c-.18,2.17-.36,4.3-.57,6.46C2.3,54.4,2,56.76,1.8,59,1.16,65.11.49,71.38.18,77.58a118.42,118.42,0,0,0,0,13.07A54.1,54.1,0,0,0,.84,97a34.22,34.22,0,0,0,1.72,6.07,69,69,0,0,0,5.5,10.82,39.16,39.16,0,0,0,3.6,5.15c1.24,1.47,2.51,2.83,4.37,3.34a12.38,12.38,0,0,0,1.46.29l.2,0a4.78,4.78,0,0,0,.88.09q0,1.24,0,2.49c.13,6.52.27,13.27-.87,19.78-.18,1-.42,2.06-.64,3.06-.19.84-.39,1.72-.56,2.59a30.87,30.87,0,0,0-.49,6c0,1.17,0,2.07.05,2.91a6.77,6.77,0,0,0,.53,2.66,4.87,4.87,0,0,0,3.44,2.48,10.36,10.36,0,0,0,2.38.26,16.75,16.75,0,0,0,2.63-.23c.49-.08,1-.19,1.45-.29s.86-.19,1.29-.26A17.16,17.16,0,0,1,30.6,164h.86c3.08,0,6.26,0,9.22-1.08,2.67-1,2.52-4.25,2.41-6.42v-.1a65.82,65.82,0,0,1,.29-8c.09-1.16.18-2.37.24-3.55.21-3.94.22-7.87.21-11.9,0-3.86-.1-7.61-.25-11.14q-.06-1.25-.12-2.49a3.6,3.6,0,0,0,1.7-.57l.41-.21A27.06,27.06,0,0,0,48,117.2a24.27,24.27,0,0,0,4.32-3.34A21.24,21.24,0,0,0,58,104.4a27.63,27.63,0,0,0,.68-3.71c0-.31.08-.62.13-.92.18-1.24.3-2.2.4-3.11a43.54,43.54,0,0,0,.29-8c-.18-2.53-.65-5.67-2.71-7.47-2.27-2-5.91-1.26-8.18.42S45,86,43.85,88.35c-.31.66-.6,1.33-.89,2s-.49,1.11-.75,1.67l0-.39c0-1.08-.1-2.2-.06-3.29.05-1.58.27-3.18.48-4.75l.09-.67a27,27,0,0,0,.32-3.2c0-1.17-.06-2.32-.14-3.4q0-.57-.1-1.13l0-.52s0-.08,0-.13a1.13,1.13,0,0,1,0-.18,2.2,2.2,0,0,1,.52-.1ZM52.71,84c0,.25,0,.48,0,.7,0,.39,0,.82-.07,1.23v.11c0,.33,0,.67,0,1s0,.86-.08,1.28c0,.21-.05.43-.08.64s-.08.56-.1.83c-.08.94-.26,1.94-.43,2.91l-.07.37a45.74,45.74,0,0,1-2.38,7.9c-.17.44-.33.83-.51,1.23l-.07.13a2.47,2.47,0,0,0-.11.23.53.53,0,0,0,0,.17.55.55,0,0,0-.13.12.87.87,0,0,0-.11.22l0,.08a3.14,3.14,0,0,1-.28.42l-.14.2-.15.22a6.27,6.27,0,0,1-.51.67,8.67,8.67,0,0,1-.87.88l-.91.75c-.48.4-1,.82-1.47,1.2l-.16.1a1.54,1.54,0,0,0-.3.19c-.17.14-.33.31-.49.46l-.27.26-.09.09q-.11-2-.21-4-.06-1.2-.11-2.39,0-.63-.05-1.26c0-.06,0-.15,0-.24s0-.36,0-.46l.09-.05.07,0a1.43,1.43,0,0,0,.33-.15c.27-.17.36-.25.4-.37a.48.48,0,0,0-.12-.46A.53.53,0,0,0,42.7,99a.73.73,0,0,0-.28.15c0-1.26-.07-2.53-.11-3.76V95c0-.08,0-.17,0-.25a1.63,1.63,0,0,1,.08-.79l.43-.91c.22-.47.46-1,.67-1.45L44,90.42c1.19-2.74,2.42-5.56,4.61-7.53A7.43,7.43,0,0,1,52.66,81c0,.2,0,.4,0,.61s0,.3,0,.45,0,.25,0,.37,0,.2,0,.3,0,.06,0,.09a.91.91,0,0,1,0,.11s0,0,0,.08,0,.11,0,.14A8.38,8.38,0,0,0,52.71,84Zm-8,33.82a3.46,3.46,0,0,1-1.13.45h-.2s0,0,0,0,0-.08,0-.13l-.08-1.49c0-.51-.06-1.3-.1-2,0-.42,0-.72-.06-.93l.25-.06.07,0,.2-.07.15-.06a.27.27,0,0,0,.14-.09A.46.46,0,0,0,44,113a.53.53,0,0,0-.48-.29.58.58,0,0,0-.28.1h0a.42.42,0,0,0-.18,0v-.14c0-.89-.1-1.77-.15-2.68,0-.43,0-.43.19-.61l.18-.14a4.46,4.46,0,0,0,.41-.35l.09-.09.09-.09,0,0a.55.55,0,0,0,.16-.08l.19-.17a1.28,1.28,0,0,1,.21-.18,6.69,6.69,0,0,0,.64-.49l.34-.28c.44-.34.83-.68,1.18-1,.17-.16.34-.29.51-.43a8.07,8.07,0,0,0,.69-.6,7.38,7.38,0,0,0,.89-1.08L49,104c.14-.19.28-.39.41-.61a1.63,1.63,0,0,0,.16-.37,1.37,1.37,0,0,1,.11-.27,4.39,4.39,0,0,0,.42-.9,4.61,4.61,0,0,1,.18-.43,2.61,2.61,0,0,0,.29-.89,1,1,0,0,1,.11-.27,1.62,1.62,0,0,0,.14-.31c0-.15.1-.28.16-.42s.09-.23.13-.35c.1-.29.19-.58.27-.87s.16-.52.24-.78.09-.29.13-.43.08-.28.13-.43.14-.4.2-.61a1.59,1.59,0,0,0,.05-.31.91.91,0,0,1,0-.18l0-.07a.89.89,0,0,0,.1-.21l0-.09L52.4,95c.05-.21.08-.42.11-.62a5.86,5.86,0,0,1,.12-.64c0-.18.08-.36.11-.53s.06-.34.11-.5a5.32,5.32,0,0,0,.13-.78c0-.16,0-.32.07-.47.07-.4.12-.81.17-1.2s.07-.54.11-.81a1.71,1.71,0,0,0,0-.4c0-.06,0-.11,0-.18a2,2,0,0,1,.05-.3c0-.1,0-.21.05-.29a5.23,5.23,0,0,0,0-.72V87.4a3.3,3.3,0,0,1,0-.41c0-.07,0-.14,0-.2,0-.24,0-.42.06-.69,0-.55,0-1.12,0-1.67,0-.23,0-.46,0-.7s0-.39,0-.59c0-.36,0-.74,0-1.11,0-.09,0-.19,0-.28s0-.13,0-.2a1.46,1.46,0,0,0,0-.28v-.05a.31.31,0,0,0,0-.12.77.77,0,0,0,0-.17h0a3.28,3.28,0,0,1,1.14.16,3.89,3.89,0,0,1,1.9,1.16,7.42,7.42,0,0,1,1.57,3.3,28.43,28.43,0,0,1,.36,9.06c-.1,1.23-.25,2.56-.45,4.05-.05.39-.1.79-.15,1.19a34.23,34.23,0,0,1-.58,3.6,20.5,20.5,0,0,1-6.4,10.44,24.5,24.5,0,0,1-5.73,3.75ZM41.66,83.49c-.08.55-.16,1.12-.23,1.69a59.58,59.58,0,0,0-.13,9.4c0,.86.07,1.72.09,2.58.14,5.21.44,10.5.73,15.62l0,.27-.07.06a.46.46,0,0,0,0,.54.42.42,0,0,0,.15.15c.32,5.64.56,10.37.64,15.26.09,5.37.14,11.09-.23,16.82-.05.84-.12,1.68-.18,2.51a73,73,0,0,0-.32,7.31h0c0,.32,0,.65,0,1a13.18,13.18,0,0,1-.11,3.22,3.29,3.29,0,0,1-.66,1.51,3.38,3.38,0,0,1-1.75.89,18.38,18.38,0,0,1-3.76.63,1.06,1.06,0,0,0,0-.23.59.59,0,0,1,0-.08.67.67,0,0,0-.11-.67.43.43,0,0,0-.43-.14.55.55,0,0,0-.38.47A1.12,1.12,0,0,0,35,163c-.95,0-1.9.06-2.83.07s-1.89,0-2.83.06a20.77,20.77,0,0,0-3.08.46,24.37,24.37,0,0,1-2.51.41,9.13,9.13,0,0,1-4.48-.48,3.65,3.65,0,0,1-2.2-3.31,41.61,41.61,0,0,1,0-5.84,42.24,42.24,0,0,1,1.08-6.65c.35-1.62.71-3.29.93-5a93.85,93.85,0,0,0,.58-12c0-2,0-4-.08-5.9l0-1.48,0-.8c0-.11,0-.12,0-.14l.11-.09.15-.12a9.6,9.6,0,0,0,1.72-2.09c1.59-2.63,1.74-6.46.38-10.25a17.21,17.21,0,0,0-1.18-2.56.5.5,0,0,1-.08-.43l.09-.62.23-1.54c.23-1.54.48-3,.72-4.49.38-2.22.63-4.5.87-6.7l.14-1.3.25-2.3a4.33,4.33,0,0,0,3,.18l.09,0a.94.94,0,0,0,0,.19s0,.16,0,.28,0,.16,0,.2a1.22,1.22,0,0,0,.15.8.42.42,0,0,0,.29.16h0a.44.44,0,0,0,.31-.13,1,1,0,0,0,.14-.78s0-.07,0-.09a2.89,2.89,0,0,0,0-.36l0-.17a1,1,0,0,0-.14-.5,4.33,4.33,0,0,0,1.29-1.58,8.6,8.6,0,0,0,.36-5.84,16.43,16.43,0,0,0-1-2.77h0a.4.4,0,0,0,.24-.07.49.49,0,0,0,.18-.36l0-.13a4.43,4.43,0,0,0,.08-.65s0-.06,0-.11a1.43,1.43,0,0,0,0-.61.34.34,0,0,0-.28-.22c-.29,0-.51.34-.51.34a1.36,1.36,0,0,0-.12.4l0,.17c0,.09,0,.19,0,.29-.29-.59-.6-1.16-.9-1.73l-.36-.68a16.29,16.29,0,0,1-1.28-2.88,7.64,7.64,0,0,1-.35-1.52c0-.4-.05-.81-.07-1.2,0-.23,0-.47,0-.7,0-.48-.06-1-.09-1.44-.11-1.65-.22-3.36-.22-5V32.63c0-3.86,0-8.22,3.25-10.8l0,.06a2.59,2.59,0,0,0-.09.38,2.86,2.86,0,0,1-.06.29.58.58,0,0,0,.16.56.45.45,0,0,0,.31.12.47.47,0,0,0,.16,0,.57.57,0,0,0,.32-.53v-.06a2.92,2.92,0,0,0,0-.4c0-.05,0-.11,0-.16a.34.34,0,0,1,0,0,.45.45,0,0,0,0-.37.39.39,0,0,0-.27-.17h0a11.57,11.57,0,0,1,1.26-.74,5.25,5.25,0,0,0,.13.64c0,.13.06.25.08.36.06.33.13.67.2,1l0,.13c.06.28.1.6.15.9s0,.32.07.47l.06.38c.06.38.12.77.17,1.15.12,1,.26,2.26.5,3.39a1.75,1.75,0,0,1,0,.32,2.83,2.83,0,0,0,0,.29c0,.27.07.54.1.83,0,.12,0,.25,0,.37a7.57,7.57,0,0,0,.14,1,6.74,6.74,0,0,1,.12,1c0,.22,0,.45.06.67s.08.7.11,1,0,.5.08.75a3.09,3.09,0,0,1,0,.41,4,4,0,0,0,0,.45l0,.29c0,.16,0,.33,0,.49l0,.4c0,.38.06.74.07,1.11s0,.68.07,1,0,.47.06.71,0,.49,0,.73,0,.52,0,.78c.05,1.07.08,2.2.08,3.54,0,.26,0,.53,0,.79s0,.8,0,1.2,0,.8,0,1.21c0,.76,0,1.54,0,2.29,0,1.47,0,3-.11,4.43-.06,1.13-.11,2.29-.12,3.43q0,.89,0,1.79c0,2.67,0,5.43.08,8.14.09,2,.19,4.14.35,6.3,0,.65.08,1.33.11,2,0,.83.07,1.7.15,2.54.11,1.18.19,2.36.24,3.53s.13,2.47.2,3.67.14,2.23.19,3.36l0,.56c.06,1.32.12,2.65.18,4,0,.7,0,1.41.06,2.1s0,1.66.08,2.49c.1,1.63.06,3.3,0,4.93q0,.54,0,1.07c0,1-.06,2.09-.09,3.12s-.06,1.78-.08,2.67c-.05,2.25-.19,4.59-.31,6.47l-.06,1c-.1,1.63-.21,3.32-.24,5,0,1.1-.1,2.22-.18,3.3-.06.89-.13,1.81-.16,2.73-.06,1.57-.12,3.12-.23,4.69,0,.65-.07,1.32-.09,2,0,.9-.06,1.83-.16,2.73v0a7.82,7.82,0,0,0-.07,1.08c0,.14,0,.28,0,.43s0,.32,0,.48a12.7,12.7,0,0,1-.1,1.6c0,.26-.05.52-.07.78,0,.49-.06,1-.08,1.48s0,1-.08,1.48c-.06.79-.1,1.57-.11,2.31,0,.12,0,.24,0,.35s0,.37,0,.55a3.3,3.3,0,0,1,0,.34,2.79,2.79,0,0,0-.06.65,11,11,0,0,1,0,1.28c0,.26,0,.53,0,.79a2.85,2.85,0,0,0,0,.94,3.26,3.26,0,0,0-.06.83c0,.08,0,.14,0,.17a1.42,1.42,0,0,0,0,.24v.07a.39.39,0,0,0-.07.18c0,.18-.06.49.17.61a.39.39,0,0,0,.17,0,.32.32,0,0,0,.17,0,.49.49,0,0,0,.19-.43v0a.39.39,0,0,0,0-.17h0a1.08,1.08,0,0,0,0-.16,3.74,3.74,0,0,0,0-1.31,2.1,2.1,0,0,0,.1-.7c0-.06,0-.1,0-.13a7.06,7.06,0,0,0,.07-1c0-.22,0-.43,0-.63s0-.33,0-.49,0-.32,0-.47a9.18,9.18,0,0,0,0-1.6,2.19,2.19,0,0,1,0-.43,3.15,3.15,0,0,0,0-.45,1.27,1.27,0,0,1,0-.27,1.83,1.83,0,0,0,0-.37c0-.1,0-.2,0-.3s0-.17,0-.26c0-.39.05-.79.1-1.18,0-.16,0-.32.05-.48a8.83,8.83,0,0,0,0-.91c0-.21,0-.42,0-.63,0-.49.06-1,.1-1.48l0-.24c.11-1.43.18-2.89.25-4.3l.06-1.26c0-.68.07-1.36.1-2,.07-1.59.14-3.24.29-4.83.11-1.17.18-2.32.21-3.4,0-.24,0-.47,0-.71s0-.65,0-1,0-.66.06-1l0-.36c.06-.68.08-1.33.09-1.94,0-.28,0-.54.06-.82s0-.37,0-.56c0-.49.05-1,.07-1.43s0-.93.07-1.42,0-.71,0-1.07c0-.65,0-1.33.13-2,0-.21,0-.43,0-.64s0-.18,0-.27a1.9,1.9,0,0,0,0-.38,1.61,1.61,0,0,1,0-.24l0-.05a1,1,0,0,0,.06-.22,4.85,4.85,0,0,0,0-.56l0-.56c0-.29,0-.59,0-.87s0-.63,0-.94,0-.41,0-.62v-.14c0-.48,0-1,.07-1.42a15.77,15.77,0,0,0,0-1.79c0-.32,0-.64,0-1,0-2.26,0-4.59-.06-6.9v-.22c0-.56,0-1.13-.11-1.67a2,2,0,0,1,0-.41,3.08,3.08,0,0,0,0-.45c0-.12,0-.25,0-.37s0-.38,0-.57c0-.46-.05-.93-.06-1.38s0-1.09-.09-1.65-.1-1.37-.12-2c0-.48,0-1-.06-1.47s0-.7,0-1a15.58,15.58,0,0,0-.11-1.75l0-.2a4.83,4.83,0,0,1-.08-.88,25.55,25.55,0,0,0-.1-2.61L32.49,79c-.09-1.29-.19-2.62-.26-3.92,0-.39-.05-.78-.09-1.18A23.19,23.19,0,0,1,32,71.55c0-.84,0-1.68-.09-2.5,0-.66-.09-1.34-.09-2v-.51c0-.78,0-1.59,0-2.38,0-.58,0-1.17,0-1.75s0-.86,0-1.28c0-1,0-2,.06-3,0-.41,0-.82,0-1.23,0-.15,0-.29,0-.44s0-.41,0-.61a3.7,3.7,0,0,0,0-.44,2.48,2.48,0,0,1,0-.48c.07-.73.11-1.49.12-2.24,0-.51,0-1,0-1.53,0-1.19.07-2.41,0-3.61,0-.23,0-.47,0-.7s0-.44,0-.66a5.41,5.41,0,0,1,0-.63,5.19,5.19,0,0,0,0-.73c0-.36,0-.73,0-1.09A10.8,10.8,0,0,0,32,41.92a8.87,8.87,0,0,1-.07-1.24c0-.27,0-.54,0-.81l0-.43c0-.61-.08-1.24-.14-1.86,0-.27,0-.54,0-.83s0-.54,0-.82-.08-.73-.12-1.1-.09-.77-.13-1.16c-.13-1.45-.31-2.92-.48-4.34l-.13-1c-.07-.55-.15-1.09-.24-1.62s-.17-1.07-.24-1.61c-.11-.88-.28-1.77-.45-2.62l-.06-.29c0-.07,0-.24,0-.42a7.07,7.07,0,0,0-.22-1.4,3.55,3.55,0,0,1,3.57.16.74.74,0,0,0,0,.18.38.38,0,0,1,0,.05l0,.07c0,.14-.15.57.26.73a.44.44,0,0,0,.48-.08.56.56,0,0,0,.14-.22,12,12,0,0,1,2.71,6A15.48,15.48,0,0,1,37,31.16c0,.44-.06.88-.09,1.31s-.07.9-.1,1.35a73.59,73.59,0,0,0,.33,12.6,20,20,0,0,0,.47,2.66c.06.21.06.21-.11.48l-.6,1c-.3.51-.58,1-.82,1.45l0-.27a.36.36,0,0,1,0,0,.45.45,0,0,0-.08-.36.37.37,0,0,0-.27-.13c-.17,0-.38.05-.46.44v0a1.62,1.62,0,0,0,0,.5c0,.07,0,.14,0,.2s0,.66.26.91a12.09,12.09,0,0,0-1.27,6.24,6.58,6.58,0,0,0,1.18,3.32,4.64,4.64,0,0,0,.62.64.52.52,0,0,0-.24.12.7.7,0,0,0-.2.54,1,1,0,0,0,0,.14.53.53,0,0,1,0,.06.78.78,0,0,1,0,.09.59.59,0,0,0,0,.24h0a1.59,1.59,0,0,1,0,.16c0,.27,0,.73.43.79H36a.42.42,0,0,0,.3-.12.78.78,0,0,0,.12-.68.93.93,0,0,1,0-.13,2.38,2.38,0,0,0,0-.54v-.1s0,0,0-.07a1.33,1.33,0,0,0,0-.2,5.89,5.89,0,0,0,1.34.7,7.24,7.24,0,0,0,1.49.37,8,8,0,0,0,.81.07h.57a2.53,2.53,0,0,1,.08.62c0,.13,0,.25,0,.34l.2,1.45c.35,2.54.61,4.62.81,6.55a52.28,52.28,0,0,1,.37,5.43A29.33,29.33,0,0,1,41.66,83.49ZM6.08,41.27h.08a.43.43,0,0,0,.27-.09.47.47,0,0,0,.15-.35v-.09a1,1,0,0,0,0-.46s0-.14,0-.21a1.57,1.57,0,0,0,0-.7,5,5,0,0,1,1.17-.69,4.34,4.34,0,0,1,1.68-.34l.38,0a3.06,3.06,0,0,0-.38,1,2.47,2.47,0,0,1-.09.26,2.74,2.74,0,0,0-.14.46,3.58,3.58,0,0,0,0,.66c0,.14,0,.28,0,.4l0,.15c0,.16,0,.33,0,.5s0,.31,0,.47a4.41,4.41,0,0,1,0,.48A2.2,2.2,0,0,1,9,43c0,.09-.05.18-.07.26a2.41,2.41,0,0,0,0,.54,2.78,2.78,0,0,1,0,.31c0,.15,0,.3-.07.45s0,.22-.06.34a3.11,3.11,0,0,0,0,.49c0,.11,0,.21,0,.32s0,.4-.07.6-.06.51-.08.77c0,.52-.08,1.05-.13,1.56-.07.75-.15,1.53-.16,2.3,0,1.15-.12,2.32-.22,3.44q0,.43-.08.86c0,.27,0,.54-.05.82,0,.43,0,.87-.1,1.29a3.82,3.82,0,0,0,0,.62,3.69,3.69,0,0,1,0,.4c0,.12,0,.24,0,.37s0,.41-.06.6,0,.32,0,.48,0,.31,0,.47,0,.37-.08.57-.07.44-.09.67a2.75,2.75,0,0,0,0,.28,1.13,1.13,0,0,1,0,.3,4,4,0,0,0-.06.68c0,.08,0,.15,0,.23s0,.4,0,.6a10.51,10.51,0,0,1-.08,1.26V65a2.06,2.06,0,0,0,0,.58.5.5,0,0,0,0,.11.26.26,0,0,0,0,.1h0v.08c0,.14,0,.28,0,.42s0,.24,0,.35,0,.33,0,.5c0,.76-.08,1.54-.13,2.3,0,.35,0,.69-.07,1S7,71,7,71.24s-.06.64-.07,1,0,.55,0,.82,0,.64-.05,1c0,.15,0,.3,0,.46s0,.51,0,.76,0,.29,0,.44a4.34,4.34,0,0,1,0,.7,14.1,14.1,0,0,0,0,2.17,2.84,2.84,0,0,1,0,.38,3.07,3.07,0,0,0,0,.55,5.43,5.43,0,0,1,0,.93,8.87,8.87,0,0,0,0,.94v.26c0,.17,0,.34,0,.52a6.69,6.69,0,0,0,.06,1.41,3,3,0,0,1,0,.7,5.3,5.3,0,0,0,0,.67l0,.23c0,.27,0,.53,0,.8,0,.61.07,1.23.14,1.85,0,.35.07.69.1,1,.05.61.11,1.24.22,1.86.07.37.1.74.14,1.14a13.23,13.23,0,0,0,.17,1.31c.11.58.21,1.18.31,1.76.13.76.25,1.55.42,2.31l.18.86c.09.42.18.85.27,1.26l.09.43a7.93,7.93,0,0,0,.45,1.6,5.89,5.89,0,0,1,.31,1c0,.2.09.41.15.6a19.44,19.44,0,0,0,.63,1.91c.25.61.48,1.21.7,1.84l.13.35,0,.11a.78.78,0,0,1,0,.18,1.3,1.3,0,0,0,0,.2,5.09,5.09,0,0,0,.31.72c.08.16.15.31.21.46a6,6,0,0,0,.3.66,5.28,5.28,0,0,1,.22.48l.1.24a11.48,11.48,0,0,0,.54,1c.15.27.31.55.44.84a15.41,15.41,0,0,0,3.23,4.48,7.75,7.75,0,0,0,1.56,1.14l.19.11a4.6,4.6,0,0,0,.67.35,3.71,3.71,0,0,0,.5.15l.1,0,.09,0a.52.52,0,0,0,.2,0,1.38,1.38,0,0,0,.5.1h.08l.29,0,.26,0A8.18,8.18,0,0,1,19.65,121l-.08.09,0,0h0l-.1-.08,0,0,0,0a1.74,1.74,0,0,0-.31-.22l-.1-.08c-.17-.14-.29-.23-.44-.22a.38.38,0,0,0-.34.26c-.1.3.2.67.28.74a.4.4,0,0,0,.17.09v0a.66.66,0,0,0,.09.12l.06.06a2.32,2.32,0,0,1-1.07,0l-.26,0a7.46,7.46,0,0,1-2-.55,9.2,9.2,0,0,1-2.86-2.55l0-.06a47.12,47.12,0,0,1-5.05-7.65,61.91,61.91,0,0,1-4-8.2,34.46,34.46,0,0,1-2.07-9.1A117.84,117.84,0,0,1,1.37,74c.35-5,.89-10,1.41-14.91q.24-2.27.48-4.55c.16-1.59.31-3.21.44-4.78S4,46.58,4.14,45a9.21,9.21,0,0,1,1.54-4.58c0,.05,0,.08,0,.08s0,.06,0,.09S5.65,41.22,6.08,41.27ZM22,89.48c-.46,4.22-.94,8.34-1.59,12.4-.21,1.27-.4,2.52-.58,3.74-2.67-5.64-3.3-12-3.91-18.11l-.13-1.27c-.2-1.94-.33-3.62-.42-5.17A30.21,30.21,0,0,0,17.73,85,14.72,14.72,0,0,0,22,89.48ZM23.39,73.2a11.77,11.77,0,0,0,.8,2.13c.31.62.64,1.24,1,1.84l.41.77c.25.49.49,1,.72,1.48s.36.78.55,1.16l0,0a6.43,6.43,0,0,0,.39,1.17l.1.27a10.54,10.54,0,0,1,.4,2.1,7,7,0,0,1-.26,2.73A6.37,6.37,0,0,1,27,88.06L27,88a2.71,2.71,0,0,0-.27-.24l-.16-.13,0,0a.44.44,0,0,0-.49-.22.38.38,0,0,0-.23.19.62.62,0,0,0,0,.49,1.4,1.4,0,0,0,.34.47l.13.15.11.11A3.09,3.09,0,0,1,26,89a2.32,2.32,0,0,1-.79.28A4.77,4.77,0,0,1,21.69,88a19.83,19.83,0,0,1-4.33-5.45,22.25,22.25,0,0,1-2.71-7A34.25,34.25,0,0,1,14,67v-.2c.1-2.11.24-5,2.07-6.22a2.77,2.77,0,0,1,1.56-.46,3.57,3.57,0,0,1,2,.65A6.12,6.12,0,0,1,21.67,64a25.87,25.87,0,0,1,1,4.91A30.83,30.83,0,0,0,23.39,73.2ZM13.7,41.34l0,.16a5.38,5.38,0,0,0-.12.64c0,.43.17.57.3.61a.46.46,0,0,0,.39,0,.48.48,0,0,0,.21-.37v-.06l.05-.2,0-.1a16,16,0,0,1,.85,6c0,2.11,0,4.32-.07,6.75,0,1.22-.08,2.47-.14,3.81l0,.88c0,.06,0,.12,0,.19a1.42,1.42,0,0,1,0,.31,1.22,1.22,0,0,1,0,.12l-.07.06,0,0a4.93,4.93,0,0,0-1,1.38,15.14,15.14,0,0,0-1,6.32,35.55,35.55,0,0,0,.68,7.75c.11.56.24,1.12.38,1.64,0,.13.07.25.11.38s.1.33.14.5a3.53,3.53,0,0,1,.06.73c0,.09,0,.18,0,.26,0,1.29.12,2.65.24,4.15.22,2.81.55,5.64.84,8.15.27,2.3.57,4.75,1.06,7.11a33,33,0,0,0,2.39,7.26c.25.53.53,1,.8,1.55s.57,1.06.82,1.6a14.24,14.24,0,0,1,1.05,3.2l-.13-.09-.14-.09,0,0a.41.41,0,0,0-.29-.19.38.38,0,0,0-.3.12c-.17.16-.17.37,0,.62l0,0a1.56,1.56,0,0,0,.32.37l.15.15a1.4,1.4,0,0,0,.6.47,12.9,12.9,0,0,1,0,3.23c0,.26-.09.51-.15.75l0,.1,0,.07h0a1.74,1.74,0,0,1-.46,0l-.36,0A5.19,5.19,0,0,1,18,116.42a7.71,7.71,0,0,1-1.24-1.1c-.19-.22-.37-.46-.53-.69s-.3-.41-.46-.6a7.12,7.12,0,0,1-.73-1.08l-.19-.34c-.09-.17-.18-.34-.29-.53a16.11,16.11,0,0,1-.91-1.76c-.15-.34-.31-.68-.46-1l-.25-.53c-.35-.76-.65-1.55-.91-2.3-.14-.41-.29-.81-.44-1.21-.32-.86-.64-1.74-.91-2.63A71.72,71.72,0,0,1,9,95.57a70.43,70.43,0,0,1-1.25-9.93c-.2-4-.15-8-.09-11,0-1.95.2-3.95.34-5.88.09-1.21.19-2.47.26-3.7,0-.25,0-.51,0-.77a11.59,11.59,0,0,1,.11-1.55,7.9,7.9,0,0,0,.07-1.37,8.22,8.22,0,0,1,0-1.18,14.9,14.9,0,0,0,.12-1.59c0-.33,0-.67.06-1s0-.64.06-1c.05-1.72.19-3.49.33-5.2l0-.2c.05-.68.1-1.36.14-2s.1-1.54.16-2.29c.1-1.13.19-2.31.35-3.48.1-.75.15-1.49.19-2.2l0-.28c0-.12,0-.23,0-.35a2.44,2.44,0,0,1,0-.37,2.58,2.58,0,0,1,.09-.4l0-.16,0-.08a2.72,2.72,0,0,1,.19-.56l0-.07a.94.94,0,0,0,.14-.3.86.86,0,0,0,0-.13,5.67,5.67,0,0,1,3.37,2.37A1.18,1.18,0,0,0,13.7,41.34Zm28.53.06c.09-.47.18-1,.28-1.43l0,.21a6.22,6.22,0,0,0,.07.65c.07.37.27.43.38.43h0c.21,0,.38-.2.44-.52a3,3,0,0,0,0-.86V39.8c0-.29,0-.49-.18-.59a.44.44,0,0,0-.5-.05l-.07.06c0-.13.06-.26.1-.39a.35.35,0,0,0,.16,0c.25-.06.34-.35.37-.48a2.29,2.29,0,0,0,.05-.77c0-.08,0-.17,0-.25a2.55,2.55,0,0,1,.78-1.49,3.18,3.18,0,0,1,1.72-1.07,3.06,3.06,0,0,1,.58-.08,2.24,2.24,0,0,0,0,.41v.05c0,.19,0,.39.06.59,0,.42.08.86.14,1.24a.61.61,0,0,1,0,.1,1.22,1.22,0,0,0,0,.15,1.92,1.92,0,0,0,.06.35l0,.12a3.71,3.71,0,0,1,.06.52,4.86,4.86,0,0,0,0,.5c.07.42.11.87.15,1.35,0,.32.06.64.09,1a19,19,0,0,1-.54,7.9,54.78,54.78,0,0,1-2.07,5.31l-.23.51-.32.74c-.06.13-.12.25-.18.38s-.15.3-.22.46a.93.93,0,0,0,0,.2v0l0,.06a.9.9,0,0,0-.15.2l0,.09-.15.3c-.06.14-.14.26-.22.39s-.15.26-.22.39A9.81,9.81,0,0,1,42,59l-.34.54a10,10,0,0,1-.77,1c-.21.26-.43.53-.62.81a4,4,0,0,1-.58.63l-.3.29a12.31,12.31,0,0,1-1.16,1.07l-.16.13-.08.07-.21-.1-.1-.05a4.3,4.3,0,0,1-1.43-1,4,4,0,0,1-.79-1.38,7.07,7.07,0,0,1-.42-2.46,9.37,9.37,0,0,1,.19-1.78c.06-.3.14-.62.23-.93,0-.16.11-.33.18-.5a4.24,4.24,0,0,0,.26-.8h0a.4.4,0,0,0,.05-.16,1.44,1.44,0,0,0,.13-.28l0-.07c.24-.57.52-1.15.85-1.78.51-.95,1.08-1.87,1.63-2.76l.56-.89A17.93,17.93,0,0,0,42,42.86C42.06,42.37,42.15,41.88,42.24,41.4Zm9.4,4.82a50.23,50.23,0,0,1-1.47,5l-.11.35c-.79,2.39-1.51,4.36-2.25,6.18a10.8,10.8,0,0,1-3.4,4.92,7,7,0,0,1-5.5,1.16l0,0,.25-.16a2.74,2.74,0,0,0,.31-.26l.06-.07.09-.08.06,0a.77.77,0,0,0,.18-.14l.13-.17a.83.83,0,0,1,.14-.16,2.08,2.08,0,0,0,.27-.28l.15-.17c.19-.2.34-.38.51-.58l.3-.36a9.15,9.15,0,0,0,.61-.82l.14-.2.26-.36a8.53,8.53,0,0,0,.55-.81c.21-.36.43-.72.65-1.08l.56-.94a2.66,2.66,0,0,0,.17-.37,2,2,0,0,1,.18-.37,2.44,2.44,0,0,0,.26-.58,3.16,3.16,0,0,1,.13-.34l.13-.24a2.44,2.44,0,0,0,.35-.89,1,1,0,0,1,.12-.25,1.53,1.53,0,0,0,.14-.26,7.14,7.14,0,0,1,.3-.7,3.61,3.61,0,0,0,.18-.48,2.73,2.73,0,0,1,.15-.39,4.41,4.41,0,0,0,.23-.55l.09-.25a2.13,2.13,0,0,0,.09-.31,1.85,1.85,0,0,1,.06-.2,1.61,1.61,0,0,1,.12-.23,2.3,2.3,0,0,0,.14-.28c.09-.21.17-.44.22-.61a.81.81,0,0,0,0-.22v-.06l.06-.1a1.32,1.32,0,0,0,.12-.23,3.22,3.22,0,0,0,.12-.43l.1-.47c0-.17.07-.35.11-.52a20.09,20.09,0,0,0,.37-3.49c0-.2,0-.41,0-.61a5.76,5.76,0,0,0,0-.86v-.07c0-.17,0-.34,0-.52a5,5,0,0,0-.05-.77,6.72,6.72,0,0,1-.07-.82c0-.13,0-.26,0-.38s0-.3-.05-.44,0-.29,0-.42a8.37,8.37,0,0,0-.17-1.16l-.07-.37c-.05-.3-.08-.61-.1-.91s0-.59-.09-.89a3.32,3.32,0,0,1,0-.41,2.29,2.29,0,0,0,0-.28l0-.11a.57.57,0,0,0,0-.32v0a.58.58,0,0,1,0-.08v-.06a5.65,5.65,0,0,1,2.77,1.94C52,39,52.51,42.21,51.64,46.22ZM42.41,71.35a1,1,0,0,0,.37-.09l.12,0c.66-.16,1-.31,1.06-.53a.36.36,0,0,0,0-.3.48.48,0,0,0-.27-.3.71.71,0,0,0-.59.1l-.15.07a2.31,2.31,0,0,0-.42.16l-.18.08h-.06c-.21-1.72-.47-3.57-.77-5.64a8.26,8.26,0,0,0,5.31-3.2,20.34,20.34,0,0,0,2.78-5.79l.28-.79c.92-2.54,1.62-4.66,2.21-6.67a20.21,20.21,0,0,0,1-6,10,10,0,0,0-1.78-5.75,9.84,9.84,0,0,0-1-1.17,7.74,7.74,0,0,0-.62-.57,3,3,0,0,0-.38-.25,1.82,1.82,0,0,1-.4-.28,3.09,3.09,0,0,1,0-1.09c0-.14,0-.26,0-.35,0-.52,0-.94.07-1.32a75.21,75.21,0,0,0,.38-8.25c0-3.57,0-6.58-.25-9.61A28.94,28.94,0,0,1,49,9.37a20.64,20.64,0,0,1,1-5.13c.64-1.9,1.4-3,2.31-3.21a.59.59,0,0,0,0,.16,2.17,2.17,0,0,0,.35.49,2.17,2.17,0,0,1,.13.23c.16.31.31.6.59.6h0a.38.38,0,0,0,.34-.22.74.74,0,0,0-.13-.77l-.05-.09-.07-.16-.1-.22a6.23,6.23,0,0,1,1.39.51,3.34,3.34,0,0,1,1.21,1,11.24,11.24,0,0,1,1.45,3.38c.09.29.18.57.27.84a27.05,27.05,0,0,1,1.25,4.82,73.33,73.33,0,0,1,.43,9.77c0,.75,0,1.5,0,2.25,0,5,.11,8.9.26,12.55,0,1.26.11,2.53.17,3.76.27,5.24.31,12.05-1.88,18.19a30.16,30.16,0,0,1-2.45,5.18c-.46.79-1,1.56-1.41,2.28-.23.36-.45.72-.66,1.09a17.09,17.09,0,0,1-1.9,2.76c-2.26,2.49-5.59,3.33-8.84,3.95-.07-.66-.15-1.33-.23-2Z"/><path class="cls-2" d="M35.63,159.31h0c-.3,0-.47.39-.5.56a1.35,1.35,0,0,0,0,.29s0,.08,0,.13a.74.74,0,0,1,0,.12,1.07,1.07,0,0,0,0,.36v0c0,.19,0,.52.32.62a.51.51,0,0,0,.17,0,.42.42,0,0,0,.22-.06A.52.52,0,0,0,36,161a1.66,1.66,0,0,0,0-.36.8.8,0,0,1,0-.3h0a2.17,2.17,0,0,0,0-.65C35.94,159.34,35.71,159.31,35.63,159.31Z"/><path class="cls-2" d="M36.15,157.29c0-.39-.28-.43-.36-.43h0c-.27,0-.46.32-.5.54a5.11,5.11,0,0,0-.08.75v.07a1,1,0,0,0,.05.48.53.53,0,0,0,.41.3h0a.44.44,0,0,0,.37-.2.8.8,0,0,0,.09-.48s0-.08,0-.1,0-.26,0-.36a1.49,1.49,0,0,0,0-.47Z"/><path class="cls-2" d="M36.28,154.88s0,0,0,0a.41.41,0,0,0-.18-.4.4.4,0,0,0-.42,0,.63.63,0,0,0-.26.48,4.21,4.21,0,0,0-.08.78v.07a1,1,0,0,0,.06.41.35.35,0,0,0,.31.31l.13,0a.45.45,0,0,0,.36-.17.77.77,0,0,0,.1-.51,1,1,0,0,1,0-.1c0-.08,0-.22,0-.36a.93.93,0,0,0,0-.4A.94.94,0,0,1,36.28,154.88Z"/><path class="cls-2" d="M36.11,151.95c-.26,0-.46.3-.51.52a3.94,3.94,0,0,0-.1.83v0c0,.35,0,.51.12.62a.42.42,0,0,0,.3.12H36a.56.56,0,0,0,.4-.24.84.84,0,0,0,.07-.43.89.89,0,0,1,0-.1,1.51,1.51,0,0,0,0-.17.71.71,0,0,1,0-.15,1.83,1.83,0,0,0,0-.63C36.42,152,36.2,152,36.11,151.95Z"/><path class="cls-2" d="M36.62,149.93c0-.39-.28-.43-.36-.43h0c-.28,0-.47.32-.51.56l0,.15a3.81,3.81,0,0,0-.07.65c0,.54.11.63.17.68a.42.42,0,0,0,.27.1h.09a.54.54,0,0,0,.37-.24.84.84,0,0,0,.07-.44,1,1,0,0,1,0-.1c0-.05,0-.11,0-.17a.88.88,0,0,1,0-.16,1.31,1.31,0,0,0,0-.51Z"/><path class="cls-2" d="M36.41,147h0c-.27,0-.46.32-.5.54a4.11,4.11,0,0,0-.09.79s0,.05,0,.09a.91.91,0,0,0,0,.45.5.5,0,0,0,.43.26h0a.47.47,0,0,0,.41-.29,1.1,1.1,0,0,0,.05-.43s0-.09,0-.12,0-.2,0-.31a2.53,2.53,0,0,0,0-.58C36.72,147.08,36.48,147,36.41,147Z"/><path class="cls-2" d="M36.55,144.59c-.3,0-.49.41-.51.63s0,.15,0,.23a3.27,3.27,0,0,0,0,.49s0,.05,0,.09a.9.9,0,0,0,0,.45.52.52,0,0,0,.42.26h0a.45.45,0,0,0,.38-.2.8.8,0,0,0,.09-.48,1,1,0,0,1,0-.1c0-.13,0-.26,0-.37a2.35,2.35,0,0,0,0-.58C36.87,144.61,36.62,144.58,36.55,144.59Z"/><path class="cls-2" d="M37.06,142.58c0-.37-.23-.43-.35-.44s-.43.24-.5.51a3.38,3.38,0,0,0-.1.85v0c0,.35,0,.52.13.63a.42.42,0,0,0,.3.11h.08A.56.56,0,0,0,37,144a.84.84,0,0,0,.06-.43,1,1,0,0,1,0-.1c0-.11,0-.25,0-.36a1.29,1.29,0,0,0,0-.46Z"/><path class="cls-2" d="M36.82,139.68c-.29,0-.46.39-.49.55a4.7,4.7,0,0,0-.08.77v0c0,.36,0,.54.12.65a.43.43,0,0,0,.3.12h.08a.58.58,0,0,0,.4-.28.86.86,0,0,0,.05-.41,1,1,0,0,1,0-.12c0-.08,0-.2,0-.35a2.5,2.5,0,0,0,0-.64A.39.39,0,0,0,36.82,139.68Z"/><path class="cls-2" d="M37.33,137.66c0-.37-.25-.42-.34-.43-.28,0-.45.29-.5.51a3.32,3.32,0,0,0-.09.84s0,0,0,.07c0,.3,0,.49.12.6a.42.42,0,0,0,.3.12h.08a.56.56,0,0,0,.4-.25.86.86,0,0,0,.06-.44,1,1,0,0,1,0-.11c0-.05,0-.11,0-.16a1.06,1.06,0,0,1,0-.16,1.46,1.46,0,0,0,0-.5Z"/><path class="cls-2" d="M37,134.76c-.29,0-.44.41-.47.58a4.43,4.43,0,0,0-.06.79s0,0,0,.08a.87.87,0,0,0,.09.52.45.45,0,0,0,.37.18H37a.51.51,0,0,0,.41-.29.88.88,0,0,0,0-.4,1.09,1.09,0,0,1,0-.13c0-.1,0-.22,0-.32v0a2.62,2.62,0,0,0,0-.67A.38.38,0,0,0,37,134.76Z"/><path class="cls-2" d="M37.53,132.81v-.08c0-.37-.26-.42-.35-.42-.28,0-.45.3-.5.52a3.61,3.61,0,0,0-.08.9c0,.16,0,.6.34.7l.16,0a.44.44,0,0,0,.21-.05.52.52,0,0,0,.24-.34.93.93,0,0,0,0-.35.76.76,0,0,1,0-.16s0-.18,0-.26A1.58,1.58,0,0,0,37.53,132.81Z"/><path class="cls-2" d="M37.6,130.89h0a.9.9,0,0,0,0-.44,1,1,0,0,1,0-.12c0-.39-.26-.45-.35-.45s-.4.17-.48.49a2.9,2.9,0,0,0-.07.65v.15a1.16,1.16,0,0,0,.07.53.36.36,0,0,0,.33.29h.1a.44.44,0,0,0,.38-.21.92.92,0,0,0,.07-.62A.91.91,0,0,1,37.6,130.89Z"/><path class="cls-2" d="M37.64,128.65a1.39,1.39,0,0,0,0-.14.71.71,0,0,1,0-.1.89.89,0,0,0,0-.43,1,1,0,0,1,0-.12c0-.38-.24-.44-.35-.45s-.4.19-.47.52a3.24,3.24,0,0,0-.06.83s0,.05,0,.08a.89.89,0,0,0,.1.53.45.45,0,0,0,.36.18h.11a.52.52,0,0,0,.39-.39,1.15,1.15,0,0,0,0-.37A1,1,0,0,1,37.64,128.65Z"/><path class="cls-2" d="M37.62,125.72l0-.28v0a.43.43,0,0,0-.09-.36.38.38,0,0,0-.31-.11c-.24,0-.38.17-.42.47v0a2.76,2.76,0,0,0-.06.58c0,.05,0,.11,0,.16v0a1.33,1.33,0,0,0,0,.27v0c0,.23,0,.32.1.39a.44.44,0,0,0,.35.16h.09a.5.5,0,0,0,.4-.29.36.36,0,0,0,0-.28C37.66,126.22,37.64,126,37.62,125.72Z"/><path class="cls-2" d="M37.61,122.89c-.06-.38-.28-.42-.37-.42h0c-.28,0-.44.34-.48.55a3.58,3.58,0,0,0,0,.82v.06c0,.22,0,.59.34.69l.16,0a.43.43,0,0,0,.28-.1.51.51,0,0,0,.16-.46c0-.14,0-.27,0-.41A5.27,5.27,0,0,0,37.61,122.89Z"/><path class="cls-2" d="M37.63,120.76v0a.46.46,0,0,1,0-.14.69.69,0,0,0,0-.3.38.38,0,0,0-.42-.29c-.29,0-.43.44-.44.63s0,.14,0,.21a2.86,2.86,0,0,0,0,.69v.07c0,.16.06.49.4.55h.11a.41.41,0,0,0,.28-.1.49.49,0,0,0,.13-.41v-.06s0-.11,0-.18A1.51,1.51,0,0,0,37.63,120.76Z"/><path class="cls-2" d="M37.6,118.25a1.93,1.93,0,0,0-.08-.47.33.33,0,0,0-.17-.21.38.38,0,0,0-.37,0c-.29.18-.32.7-.32.7s0,.13,0,.19,0,.14,0,.22a2.76,2.76,0,0,0,0,.44c0,.34.19.53.44.56h.07a.43.43,0,0,0,.31-.11.56.56,0,0,0,.13-.47s0,0,0-.07,0-.06,0-.11A1.54,1.54,0,0,0,37.6,118.25Z"/><path class="cls-2" d="M37.55,115.8a.83.83,0,0,0-.19-.61.37.37,0,0,0-.35-.09c-.38.11-.36.57-.35.77a.8.8,0,0,1,0,.08V116a2.15,2.15,0,0,0,.06.82c0,.12,0,.33.32.39h.11a.46.46,0,0,0,.4-.22.8.8,0,0,0,.05-.5.84.84,0,0,1,0-.1A2.33,2.33,0,0,0,37.55,115.8Z"/><path class="cls-2" d="M37.32,112.71a.38.38,0,0,0-.4,0c-.29.14-.35.62-.35.71a.94.94,0,0,0,0,.22.55.55,0,0,0,0,.17,1.93,1.93,0,0,0,0,.38v.1c0,.41.26.52.44.53h.06a.44.44,0,0,0,.33-.13.56.56,0,0,0,.1-.49v-.07a1.22,1.22,0,0,1,0-.14,1.19,1.19,0,0,0,0-.63C37.48,112.83,37.36,112.75,37.32,112.71Z"/><path class="cls-2" d="M37.19,110.24a.38.38,0,0,0-.43,0,.75.75,0,0,0-.21.73s0,.08,0,.11a.92.92,0,0,1,0,.14,1.19,1.19,0,0,0,0,.31s0,0,0,0a.77.77,0,0,0,0,.14l0,.14,0,.09a.26.26,0,0,0,0,.12.51.51,0,0,0,.41.22h.06a.46.46,0,0,0,.38-.32.88.88,0,0,0,0-.38,1,1,0,0,1,0-.1v-.09a1.81,1.81,0,0,0,0-.52C37.44,110.76,37.43,110.38,37.19,110.24Z"/><path class="cls-2" d="M37.11,107.77a.39.39,0,0,0-.42.06.81.81,0,0,0-.21.76s0,.07,0,.1,0,.1,0,.16c0,.33-.07.87.34,1l.17,0a.4.4,0,0,0,.23-.07.56.56,0,0,0,.2-.45,1.35,1.35,0,0,0,0-.51c0-.07,0-.28,0-.37C37.37,108.18,37.33,107.88,37.11,107.77Z"/><path class="cls-2" d="M36.83,105.26c-.47,0-.44.63-.43.83v0c0,.08,0,.15,0,.23a2.53,2.53,0,0,0,0,.59.5.5,0,0,1,0,.06.4.4,0,0,0,.34.39h.11a.47.47,0,0,0,.34-.13.69.69,0,0,0,.09-.58s0-.05,0-.07,0-.11,0-.16a1.52,1.52,0,0,0,0-.49c0-.41-.11-.56-.19-.63A.35.35,0,0,0,36.83,105.26Z"/><path class="cls-2" d="M37,102.87a.38.38,0,0,0-.38,0c-.31.16-.29.53-.27.72,0,0,0,.06,0,.09s0,.12,0,.17a2.61,2.61,0,0,0,0,.65.52.52,0,0,1,0,.06.4.4,0,0,0,.35.4h.12a.45.45,0,0,0,.3-.1.55.55,0,0,0,.12-.57.55.55,0,0,1,0-.06,1.45,1.45,0,0,1,0-.21,1.32,1.32,0,0,0,0-.49C37.22,103.26,37.18,103,37,102.87Z"/><path class="cls-2" d="M36.76,100.35a.41.41,0,0,0-.32.11,1,1,0,0,0-.19.73c0,.08,0,.15,0,.23a3.33,3.33,0,0,0,0,.58c0,.12.07.49.45.5h0a.44.44,0,0,0,.36-.14.55.55,0,0,0,.07-.49.64.64,0,0,1,0-.08c0-.21,0-.46,0-.67S37.09,100.38,36.76,100.35Z"/><path class="cls-2" d="M36.52,97.91c-.39.11-.35.57-.34.77,0,0,0,.06,0,.09s0,.11,0,.17a1.46,1.46,0,0,0,.08.81.35.35,0,0,0,.31.29h.11a.47.47,0,0,0,.37-.17.69.69,0,0,0,.07-.54s0-.06,0-.07,0-.11,0-.16a1.58,1.58,0,0,0,0-.48.79.79,0,0,0-.21-.65A.37.37,0,0,0,36.52,97.91Z"/><path class="cls-2" d="M36.55,95.44c-.14,0-.47.1-.47.81v.11a4.29,4.29,0,0,0,0,.73.61.61,0,0,0,.24.45.41.41,0,0,0,.22.06l.15,0c.27-.08.37-.29.3-.62a.57.57,0,0,1,0-.08,1.45,1.45,0,0,1,0-.21,1.32,1.32,0,0,0,0-.48,1,1,0,0,0-.17-.62A.34.34,0,0,0,36.55,95.44Z"/><path class="cls-2" d="M36.93,93.71c0-.28,0-.59-.28-.7a.39.39,0,0,0-.43.1.8.8,0,0,0-.17.74s0,.09,0,.13,0,.09,0,.15c0,.31-.08.9.38,1l.14,0a.41.41,0,0,0,.25-.08.53.53,0,0,0,.17-.43,1.23,1.23,0,0,0,0-.52s0-.07,0-.11A1.15,1.15,0,0,0,36.93,93.71Z"/><path class="cls-2" d="M36.74,90.67a.35.35,0,0,0-.25-.15.43.43,0,0,0-.33.11.92.92,0,0,0-.16.71s0,0,0,.06,0,.12,0,.18a1.91,1.91,0,0,0,.06.7c0,.14,0,.32.31.39h.12a.47.47,0,0,0,.34-.13.72.72,0,0,0,.1-.59s0-.05,0-.07,0-.21,0-.31,0-.18,0-.27A1,1,0,0,0,36.74,90.67Z"/><path class="cls-2" d="M36.82,88.85a1,1,0,0,0-.16-.65.35.35,0,0,0-.28-.14.42.42,0,0,0-.31.14.91.91,0,0,0-.15.67s0,.05,0,.07,0,.13,0,.2a1.37,1.37,0,0,0,.08.78.35.35,0,0,0,.31.29h.12a.46.46,0,0,0,.39-.2.77.77,0,0,0,.05-.53s0-.05,0-.07,0-.15,0-.23S36.82,89,36.82,88.85Z"/><path class="cls-2" d="M36.79,86.28c0-.35-.06-.51-.18-.6a.38.38,0,0,0-.4,0c-.28.14-.35.6-.35.71a.43.43,0,0,0,0,.18v0a.78.78,0,0,0,0,.17,2.48,2.48,0,0,0,0,.44c.06.45.28.56.44.58h.08a.42.42,0,0,0,.3-.11.47.47,0,0,0,.12-.4s0,0,0-.06,0-.12,0-.19a1.45,1.45,0,0,0,0-.62Z"/><path class="cls-2" d="M36.75,83.85c0-.41-.08-.59-.24-.67a.38.38,0,0,0-.37,0c-.29.18-.32.7-.32.7a2.11,2.11,0,0,0,0,.23,1.12,1.12,0,0,1,0,.19,2,2,0,0,0,0,.46c0,.12.07.48.43.52h.07a.44.44,0,0,0,.32-.12.56.56,0,0,0,.11-.49s0-.05,0-.07a1.11,1.11,0,0,1,0-.16,1.11,1.11,0,0,0,0-.52Z"/><path class="cls-2" d="M36.73,81.38c0-.38-.05-.46-.12-.54a.38.38,0,0,0-.42-.13c-.32.11-.4.63-.4.73a.7.7,0,0,0,0,.21.55.55,0,0,0,0,.17,2.53,2.53,0,0,0,0,.44c.07.47.31.57.44.58h.07a.43.43,0,0,0,.31-.12.52.52,0,0,0,.12-.45s0,0,0-.06a1.66,1.66,0,0,1,0-.18,1.42,1.42,0,0,0,0-.57Z"/><path class="cls-2" d="M36.67,78.83c0-.17,0-.57-.38-.59a.41.41,0,0,0-.31.11,1,1,0,0,0-.2.72c0,.08,0,.16,0,.24a3,3,0,0,0,0,.58.58.58,0,0,0,.23.43.4.4,0,0,0,.21.06l.15,0a.47.47,0,0,0,.31-.62s0-.06,0-.08a1.07,1.07,0,0,1,0-.11,1,1,0,0,0,0-.66Z"/><path class="cls-2" d="M36.28,75.77a.4.4,0,0,0-.32.1,1,1,0,0,0-.23.7v.17a3.61,3.61,0,0,0,0,.68.61.61,0,0,0,.24.45.41.41,0,0,0,.22.06l.15,0c.27-.08.37-.29.3-.61v-.14a1.87,1.87,0,0,0,0-.67,1.24,1.24,0,0,0-.12-.52A.33.33,0,0,0,36.28,75.77Z"/><path class="cls-2" d="M36.6,74.08c0-.69-.24-.75-.33-.77a.41.41,0,0,0-.35.08.91.91,0,0,0-.21.74v.2a2.8,2.8,0,0,0,0,.67v.05a.42.42,0,0,0,.44.41h0a.46.46,0,0,0,.37-.16.54.54,0,0,0,.07-.47.64.64,0,0,1,0-.08C36.6,74.55,36.6,74.3,36.6,74.08Z"/><path class="cls-2" d="M36.38,71a.37.37,0,0,0-.27-.1c-.48,0-.44.61-.43.8,0,0,0,.06,0,.08v.13a2,2,0,0,0,0,.75A.36.36,0,0,0,36,73h.11a.47.47,0,0,0,.35-.13.69.69,0,0,0,.1-.58s0-.05,0-.07,0-.19,0-.29,0-.21,0-.32A.92.92,0,0,0,36.38,71Z"/><path class="cls-2" d="M36.51,69.13a.86.86,0,0,0-.18-.63.36.36,0,0,0-.26-.1c-.3,0-.47.31-.47.8v.12a5,5,0,0,0,0,.73.48.48,0,0,0,.46.5h0a.45.45,0,0,0,.36-.15.55.55,0,0,0,.07-.48.75.75,0,0,1,0-.08,1.52,1.52,0,0,1,0-.22A1.36,1.36,0,0,0,36.51,69.13Z"/><path class="cls-2" d="M35.65,67.81a.36.36,0,0,0,.33.28h.09a.45.45,0,0,0,.4-.23.81.81,0,0,0,0-.48s0-.07,0-.09a2.48,2.48,0,0,0,0-.33,2.16,2.16,0,0,1,0-.25c0-.28,0-.6-.25-.72a.39.39,0,0,0-.42.05.77.77,0,0,0-.22.73s0,.07,0,.1,0,.13,0,.2A1.3,1.3,0,0,0,35.65,67.81Z"/><path class="cls-2" d="M35.53,48.73c-.3,0-.47.54-.47.69s0,.17,0,.25a3.67,3.67,0,0,0,0,.54c0,.25.1.59.37.67l.17,0a.4.4,0,0,0,.24-.08.54.54,0,0,0,.19-.46,6.94,6.94,0,0,0,0-.71v-.08a1.94,1.94,0,0,0-.1-.6A.33.33,0,0,0,35.53,48.73Zm.11.35Zm-.22.05h0Z"/><path class="cls-2" d="M35.5,46.3a.38.38,0,0,0-.38.08c-.37.33-.15,1.57-.15,1.6a.48.48,0,0,0,.44.46h0a.44.44,0,0,0,.35-.14.55.55,0,0,0,.06-.51.68.68,0,0,1,0-.08,1.42,1.42,0,0,1,0-.21,1.58,1.58,0,0,0,0-.39V47C35.75,46.58,35.71,46.36,35.5,46.3Z"/><path class="cls-2" d="M35.1,43.83c-.35.11-.4.81-.4.82a5.85,5.85,0,0,0,.1.86v0a.46.46,0,0,0,.44.45h0a.45.45,0,0,0,.35-.14.56.56,0,0,0,.09-.48V45.3c0-.05,0-.11,0-.17a2.88,2.88,0,0,0-.05-.49l0-.15a1.33,1.33,0,0,0-.14-.51A.34.34,0,0,0,35.1,43.83Zm-.06.45h0Z"/><path class="cls-2" d="M35.08,41.43l-.07,0a.38.38,0,0,0-.38.11c-.33.34-.1,1.46-.1,1.47l0,.07c0,.16.11.46.42.5h.09a.42.42,0,0,0,.31-.12.51.51,0,0,0,.1-.45v0c0-.06,0-.13,0-.2a3,3,0,0,0-.06-.53l0-.1C35.3,41.74,35.25,41.52,35.08,41.43Z"/><path class="cls-2" d="M34.15,40.05s0,.09,0,.12a2.16,2.16,0,0,0,.06.4c.09.35.26.52.5.52h0a.46.46,0,0,0,.37-.17.56.56,0,0,0,0-.5l0-.07c0-.1,0-.22,0-.33a3.17,3.17,0,0,0-.15-.75c-.11-.29-.28-.32-.39-.32s-.3.06-.42.41a.76.76,0,0,0,0,.49C34.13,39.91,34.14,40,34.15,40.05Z"/><path class="cls-2" d="M34.35,38.67h.09a.43.43,0,0,0,.29-.19c.17-.27.06-.71-.09-1.21l-.06-.2a.41.41,0,0,1,0,0,.47.47,0,0,0-.14-.38.38.38,0,0,0-.37-.08.56.56,0,0,0-.32.43,1.67,1.67,0,0,0,0,.35.41.41,0,0,0,.07.17v0a.65.65,0,0,0,0,.15c0,.12.07.73.36.92A.39.39,0,0,0,34.35,38.67Z"/><path class="cls-2" d="M34.34,36.07c.21-.27.09-.78-.06-1.31l0-.11v-.08c0-.16-.07-.4-.29-.47a.39.39,0,0,0-.41.15.85.85,0,0,0-.11.78,1.16,1.16,0,0,1,0,.16v.05c0,.3,0,1,.54,1A.43.43,0,0,0,34.34,36.07Z"/><path class="cls-2" d="M33.63,33.81h0a.39.39,0,0,0,.31-.12c.22-.23.16-.71,0-1.41l0-.07s0,0,0-.07,0-.39-.26-.47a.4.4,0,0,0-.42.13.84.84,0,0,0-.13.78l0,.1s0,.06,0,.1c0,.43,0,.8.26,1A.36.36,0,0,0,33.63,33.81Z"/><path class="cls-2" d="M33.38,31.36h.07a.52.52,0,0,0,.35-.2.75.75,0,0,0,.07-.59.79.79,0,0,1,0-.13,2,2,0,0,0-.07-.55.88.88,0,0,1,0-.11c0-.18,0-.42-.25-.52a.38.38,0,0,0-.38,0,.65.65,0,0,0-.24.72.82.82,0,0,1,0,.1v.06c0,.66,0,1,.22,1.11A.36.36,0,0,0,33.38,31.36Z"/><path class="cls-2" d="M33.22,28.91h.08a.55.55,0,0,0,.43-.72,1.05,1.05,0,0,1,0-.18,2,2,0,0,0,0-.55,1,1,0,0,1,0-.11c0-.19,0-.45-.25-.54a.39.39,0,0,0-.41.07.75.75,0,0,0-.21.73s0,.08,0,.11,0,0,0,.08c0,.53,0,.87.19,1A.36.36,0,0,0,33.22,28.91Z"/><path class="cls-2" d="M33.2,26.45h.09a.46.46,0,0,0,.32-.18.55.55,0,0,0,.06-.44.66.66,0,0,1,0-.09,1.29,1.29,0,0,1,0-.21,1.45,1.45,0,0,0,0-.4s0-.08,0-.14c0-.35,0-.44-.11-.53a.38.38,0,0,0-.42-.14c-.29.09-.38.5-.38.61a.93.93,0,0,0,0,.17.37.37,0,0,1,0,.07.5.5,0,0,1,0,.09.91.91,0,0,0,0,.17,1.88,1.88,0,0,0,0,.54v0C32.83,26.3,33,26.45,33.2,26.45Z"/><path class="cls-2" d="M33.2,24h.12a.41.41,0,0,0,.25-.08.49.49,0,0,0,.17-.38v0a4.81,4.81,0,0,0,0-.75s0-.08,0-.13a1.18,1.18,0,0,0-.05-.54.38.38,0,0,0-.41-.23c-.28,0-.42.41-.44.57s0,.16,0,.24,0,.14,0,.21v0a1.17,1.17,0,0,0,0,.56A.49.49,0,0,0,33.2,24Z"/><path class="cls-2" d="M25.43,161.48c0-.13,0-.26,0-.38v0a.38.38,0,0,0-.27-.49.39.39,0,0,0-.31,0,.62.62,0,0,0-.24.44v0a3.25,3.25,0,0,0-.06.85v0c0,.36,0,.55.16.65a.42.42,0,0,0,.29.1.61.61,0,0,0,.41-.16.38.38,0,0,0,.1-.44C25.46,161.91,25.45,161.69,25.43,161.48Z"/><path class="cls-2" d="M25.42,158.56c-.05-.37-.25-.43-.37-.43s-.41.26-.47.52a3.25,3.25,0,0,0-.06.84v.07c0,.22,0,.59.34.69l.15,0a.45.45,0,0,0,.31-.12.48.48,0,0,0,.14-.43v-.05A7.36,7.36,0,0,0,25.42,158.56Z"/><path class="cls-2" d="M25.51,156.95s0-.09,0-.16,0-.1,0-.15a2,2,0,0,0,0-.59c-.07-.33-.26-.39-.37-.39h0c-.27,0-.42.32-.47.5a2.74,2.74,0,0,0-.06.61c0,.05,0,.11,0,.16a1.22,1.22,0,0,0,.08.58.36.36,0,0,0,.34.27h.08a.43.43,0,0,0,.39-.23,1,1,0,0,0,.07-.52S25.51,157,25.51,156.95Z"/><path class="cls-2" d="M25.53,154.24a1,1,0,0,0,0-.47l0-.1c-.05-.39-.28-.43-.38-.43h0c-.26,0-.43.28-.47.55a4.06,4.06,0,0,0-.05.79v.07a1.07,1.07,0,0,0,.07.39.35.35,0,0,0,.33.31h.1a.45.45,0,0,0,.38-.2.79.79,0,0,0,.07-.5,1,1,0,0,1,0-.1,1.45,1.45,0,0,0,0-.17.77.77,0,0,1,0-.15Z"/><path class="cls-2" d="M25.54,151.06a.38.38,0,0,0-.4-.31c-.3,0-.45.44-.46.58a5,5,0,0,0,0,.74v.06a1.14,1.14,0,0,0,.06.44.35.35,0,0,0,.32.32h.12a.44.44,0,0,0,.38-.21.82.82,0,0,0,.07-.48s0-.08,0-.1a1.58,1.58,0,0,0,0-.17.71.71,0,0,1,0-.16A2.46,2.46,0,0,0,25.54,151.06Z"/><path class="cls-2" d="M25.61,148.82v-.08c0-.38-.27-.42-.37-.43h0c-.27,0-.45.32-.48.55a4.25,4.25,0,0,0-.07.8s0,0,0,0a.79.79,0,0,0,0,.15v.1c0,.2,0,.22.06.26a.52.52,0,0,0,.43.24h0a.45.45,0,0,0,.38-.21.83.83,0,0,0,.07-.5s0-.08,0-.11,0-.23,0-.34A1.31,1.31,0,0,0,25.61,148.82Z"/><path class="cls-2" d="M25.68,146.42l0-.11c0-.38-.26-.43-.36-.44s-.4.19-.47.5a3.23,3.23,0,0,0-.08.83v.07a1,1,0,0,0,.07.41.36.36,0,0,0,.34.3h.1a.43.43,0,0,0,.38-.22.84.84,0,0,0,.07-.48s0-.08,0-.11,0-.11,0-.16a.9.9,0,0,1,0-.17A1.16,1.16,0,0,0,25.68,146.42Z"/><path class="cls-2" d="M25.74,143.88c0-.4-.25-.46-.35-.46s-.41.18-.48.5a2.89,2.89,0,0,0-.06.52c0,.07,0,.15,0,.22a1.14,1.14,0,0,0,.06.57.35.35,0,0,0,.32.31h.12a.45.45,0,0,0,.34-.15.75.75,0,0,0,.11-.54s0-.07,0-.09,0-.25,0-.37a1,1,0,0,0,0-.4A1,1,0,0,1,25.74,143.88Z"/><path class="cls-2" d="M25.5,140.94h0c-.3,0-.46.4-.49.54a3.42,3.42,0,0,0-.06.57v.16a1.15,1.15,0,0,0,.05.52c0,.19.11.31.33.35h.11a.43.43,0,0,0,.37-.19.79.79,0,0,0,.08-.49s0-.07,0-.1,0-.26,0-.38a2.38,2.38,0,0,0,0-.6C25.79,141,25.58,140.95,25.5,140.94Z"/><path class="cls-2" d="M25.95,139c0-.36-.23-.43-.35-.44s-.4.17-.48.48a3.23,3.23,0,0,0-.09.81v.06a1.11,1.11,0,0,0,.06.47.35.35,0,0,0,.31.3l.13,0a.44.44,0,0,0,.37-.19A.78.78,0,0,0,26,140a.92.92,0,0,1,0-.1c0-.06,0-.12,0-.18a1,1,0,0,1,0-.18,1.22,1.22,0,0,0,0-.44Z"/><path class="cls-2" d="M25.69,136.05c-.28,0-.45.35-.48.57v0a4.55,4.55,0,0,0-.06.74v.06c0,.28,0,.51.16.64a.42.42,0,0,0,.27.09h.09a.54.54,0,0,0,.37-.25.91.91,0,0,0,.06-.45s0-.09,0-.12a1.46,1.46,0,0,0,0-.16.73.73,0,0,1,0-.14,2.37,2.37,0,0,0,0-.65C26,136.07,25.76,136,25.69,136.05Z"/><path class="cls-2" d="M25.84,133.6c-.28,0-.47.34-.5.57v.08a5.24,5.24,0,0,0-.06.67V135a1,1,0,0,0,.06.47.53.53,0,0,0,.42.29h0a.44.44,0,0,0,.36-.2.84.84,0,0,0,.09-.49s0-.08,0-.11,0-.1,0-.16a.84.84,0,0,1,0-.16,2.22,2.22,0,0,0,0-.61C26.17,133.63,25.91,133.61,25.84,133.6Z"/><path class="cls-2" d="M26.35,131.62c0-.37-.22-.44-.33-.45s-.43.24-.5.48a3.12,3.12,0,0,0-.11.83v.06a1,1,0,0,0,.05.41.34.34,0,0,0,.29.32l.15,0a.45.45,0,0,0,.37-.18.79.79,0,0,0,.09-.5s0-.07,0-.1,0-.25,0-.37a1.08,1.08,0,0,0,0-.43S26.35,131.64,26.35,131.62Z"/><path class="cls-2" d="M26.51,129a.38.38,0,0,0-.39-.3c-.32,0-.46.46-.48.56a4.24,4.24,0,0,0-.08.79s0,0,0,.08a.86.86,0,0,0,.08.53.48.48,0,0,0,.39.19h0a.48.48,0,0,0,.39-.19,1,1,0,0,0,.1-.63,1,1,0,0,1,0-.28A2.37,2.37,0,0,0,26.51,129Z"/><path class="cls-2" d="M26.31,126.25h0c-.28,0-.47.33-.51.55a4.41,4.41,0,0,0-.08.77v.07a1,1,0,0,0,.05.45.54.54,0,0,0,.41.3h0a.44.44,0,0,0,.36-.2.83.83,0,0,0,.09-.49s0-.07,0-.1a1.43,1.43,0,0,0,0-.15.72.72,0,0,1,0-.18,2.26,2.26,0,0,0,0-.64C26.62,126.28,26.38,126.25,26.31,126.25Z"/><path class="cls-2" d="M26.49,123.8c-.3,0-.48.38-.51.55a4.31,4.31,0,0,0-.09.79v.07c0,.3,0,.49.11.61a.42.42,0,0,0,.3.12h.05a.58.58,0,0,0,.41-.23,1,1,0,0,0,.09-.49s0-.08,0-.11a1.45,1.45,0,0,0,0-.15.77.77,0,0,1,0-.13,2.32,2.32,0,0,0,0-.64C26.8,123.83,26.56,123.8,26.49,123.8Z"/><path class="cls-2" d="M26.7,121.36c-.28,0-.45.29-.51.47a2.5,2.5,0,0,0-.09.54c0,.07,0,.15,0,.22s-.08.7.28.9a.38.38,0,0,0,.18,0,.49.49,0,0,0,.32-.14.72.72,0,0,0,.16-.57s0-.07,0-.09a1.67,1.67,0,0,0,0-.17.7.7,0,0,1,0-.16h0a2.24,2.24,0,0,0,0-.62C27,121.43,26.81,121.37,26.7,121.36Z"/><path class="cls-2" d="M27.21,119.45s0,0,0-.06a.44.44,0,0,0-.15-.44.4.4,0,0,0-.43,0,.59.59,0,0,0-.26.44v0a4.65,4.65,0,0,0-.11.85c0,.18,0,.6.32.72a.55.55,0,0,0,.19,0A.4.4,0,0,0,27,121a.55.55,0,0,0,.22-.42,5.6,5.6,0,0,0,.06-.67.8.8,0,0,0,0-.36A.76.76,0,0,1,27.21,119.45Z"/><path class="cls-2" d="M27.06,116.46c-.31,0-.48.45-.5.62s0,.17,0,.25a3.5,3.5,0,0,0-.06.52c0,.51.11.61.16.65a.43.43,0,0,0,.28.11H27a.56.56,0,0,0,.37-.3,1.13,1.13,0,0,0,.06-.51.94.94,0,0,1,0-.28h0a2.3,2.3,0,0,0,0-.69C27.36,116.47,27.13,116.46,27.06,116.46Z"/><path class="cls-2" d="M27.27,114c-.34,0-.52.53-.53.66a1.11,1.11,0,0,0,0,.22.67.67,0,0,1,0,.13s0,.06,0,.1a1.35,1.35,0,0,0,0,.29c0,.53.14.64.2.68a.42.42,0,0,0,.25.08h.11a.56.56,0,0,0,.35-.28.9.9,0,0,0,.06-.41,1.1,1.1,0,0,1,0-.14,1.15,1.15,0,0,0,0-.16.78.78,0,0,1,0-.11,2.48,2.48,0,0,0,0-.72C27.57,114,27.34,114,27.27,114Z"/><path class="cls-2" d="M27.88,111.92c-.07-.31-.27-.35-.36-.35h0c-.34,0-.49.5-.49.51a3.62,3.62,0,0,0-.14.89c0,.53.14.64.19.68a.42.42,0,0,0,.25.09h.11a.56.56,0,0,0,.35-.29,1.06,1.06,0,0,0,.06-.41s0-.09,0-.12a1.47,1.47,0,0,0,0-.15.77.77,0,0,1,0-.13h0A2.57,2.57,0,0,0,27.88,111.92Z"/><path class="cls-2" d="M28.06,109.63a.39.39,0,0,1,0,0,.41.41,0,0,0-.1-.37.39.39,0,0,0-.35-.09.49.49,0,0,0-.38.44v0a3.18,3.18,0,0,0-.12.83s0,.05,0,.08a1,1,0,0,0,0,.44.52.52,0,0,0,.41.3h0a.44.44,0,0,0,.37-.21.85.85,0,0,0,.09-.48s0-.08,0-.11,0-.1,0-.16a.94.94,0,0,1,0-.16.94.94,0,0,0,0-.41A1,1,0,0,1,28.06,109.63Z"/><path class="cls-2" d="M28.22,107.11c0-.39-.29-.42-.37-.42-.28,0-.46.32-.5.55s0,.23,0,.35,0,.18,0,.26a1.33,1.33,0,0,0,.05.66.34.34,0,0,0,.29.3l.15,0a.45.45,0,0,0,.34-.15.78.78,0,0,0,.12-.56s0-.08,0-.1,0-.1,0-.16a.84.84,0,0,1,0-.16,1.58,1.58,0,0,0,0-.54Z"/><path class="cls-2" d="M28.31,105.6a4.34,4.34,0,0,0-.06-1c-.08-.35-.29-.38-.39-.38-.3,0-.45.39-.48.57a3.86,3.86,0,0,0,0,.79s0,.05,0,.09a.88.88,0,0,0,.11.52.44.44,0,0,0,.35.16h.1a.5.5,0,0,0,.4-.3.36.36,0,0,0,0-.27C28.31,105.72,28.31,105.66,28.31,105.6Z"/><path class="cls-2" d="M27.85,101.77H27.8a.45.45,0,0,0-.35.12,1,1,0,0,0-.22.67c0,.07,0,.13,0,.2a1.24,1.24,0,0,1,0,.19,2,2,0,0,0,0,.4v0c0,.16.11.49.45.52h.07a.43.43,0,0,0,.33-.12.47.47,0,0,0,.09-.42.65.65,0,0,1,0-.07c0-.06,0-.12,0-.18a4.07,4.07,0,0,0,0-.46C28.09,101.85,28,101.81,27.85,101.77Z"/><path class="cls-2" d="M27.57,99.36a.31.31,0,0,0-.21,0,.41.41,0,0,0-.29.19c-.27.43.08,1.56.09,1.6a.36.36,0,0,0,.36.34h.07a.48.48,0,0,0,.4-.21.73.73,0,0,0,0-.56l0-.07s0-.09,0-.14a2,2,0,0,0-.06-.39l0-.07C27.81,99.65,27.73,99.45,27.57,99.36Z"/><path class="cls-2" d="M27.22,96.93a.31.31,0,0,0-.21,0,.41.41,0,0,0-.28.18c-.27.42.07,1.53.07,1.54a.61.61,0,0,0,.39.42h.08a.44.44,0,0,0,.33-.16.54.54,0,0,0,.06-.58l0-.06a1.37,1.37,0,0,1,0-.21,1.48,1.48,0,0,0,0-.39l0-.07C27.46,97.21,27.38,97,27.22,96.93Z"/><path class="cls-2" d="M26.87,94.47a.4.4,0,0,0-.38.09c-.2.18-.24.62-.13,1.29v.08c0,.22.1.68.51.68h0a.46.46,0,0,0,.36-.14.48.48,0,0,0,.09-.4V96a1,1,0,0,0-.08-.45s0-.14,0-.21C27.2,94.92,27.17,94.54,26.87,94.47Z"/><path class="cls-2" d="M26.13,93a.88.88,0,0,1,0,.14,1.29,1.29,0,0,0,0,.29v.06c0,.29.06.49.19.59a.41.41,0,0,0,.26.09l.14,0a.58.58,0,0,0,.37-.36,1.09,1.09,0,0,0,0-.41s0-.09,0-.12v0a1.57,1.57,0,0,0-.09-.61.58.58,0,0,0-.21-.54.39.39,0,0,0-.5.08.82.82,0,0,0-.15.74S26.13,93,26.13,93Z"/><path class="cls-2" d="M28.25,75.24a.34.34,0,0,0-.22-.3.53.53,0,0,0-.53.18.9.9,0,0,0-.15.38l0,.22a2.73,2.73,0,0,0-.08.64v.07c0,.17,0,.49.29.61a.51.51,0,0,0,.19,0,.44.44,0,0,0,.19,0,.5.5,0,0,0,.26-.32,1.1,1.1,0,0,0,0-.31,1,1,0,0,1,0-.17c0-.06,0-.2,0-.28a.91.91,0,0,0,0-.22.59.59,0,0,1,0-.1s0-.06,0-.09A.79.79,0,0,0,28.25,75.24Z"/><path class="cls-2" d="M28.29,72.5a.48.48,0,0,0-.48.13,1.25,1.25,0,0,0-.23.51.41.41,0,0,0,0,.17l0,0a.82.82,0,0,0,0,.13,2.28,2.28,0,0,0,0,.46V74c0,.17,0,.48.31.59a.56.56,0,0,0,.18,0,.4.4,0,0,0,.21-.06.55.55,0,0,0,.22-.41,7,7,0,0,0,.08-.71v-.06a2.22,2.22,0,0,0,0-.62A.34.34,0,0,0,28.29,72.5Z"/><path class="cls-2" d="M28.68,70.21a.38.38,0,0,0-.33-.19c-.24,0-.37.24-.43.33a.75.75,0,0,0-.08.39.62.62,0,0,1,0,.09l0,.14a2.07,2.07,0,0,0-.05.37v.06a1,1,0,0,0,0,.5.48.48,0,0,0,.42.27h0a.49.49,0,0,0,.43-.29,1.66,1.66,0,0,0,.05-.61s0-.08,0-.13,0-.07,0-.09h0A2.22,2.22,0,0,0,28.68,70.21Z"/><path class="cls-2" d="M28.85,68.1v0a.41.41,0,0,0-.07-.36.37.37,0,0,0-.31-.13c-.31,0-.4.3-.43.4v0a2.61,2.61,0,0,0-.11.85V69a1,1,0,0,0,.05.44.35.35,0,0,0,.29.31l.15,0a.46.46,0,0,0,.34-.14.76.76,0,0,0,.12-.54s0-.07,0-.09,0-.25,0-.37a.81.81,0,0,0,0-.38Z"/><path class="cls-2" d="M29,66.45a1.19,1.19,0,0,0,0-.14.62.62,0,0,1,0-.15h0a.91.91,0,0,0,0-.44,1.06,1.06,0,0,1,0-.12c0-.37-.23-.44-.34-.45s-.39.17-.48.48a3,3,0,0,0-.07.82v.07a1.05,1.05,0,0,0,.07.46.36.36,0,0,0,.33.3h.1a.43.43,0,0,0,.38-.21.86.86,0,0,0,.07-.51S29,66.48,29,66.45Z"/><path class="cls-2" d="M28.9,63.1c-.07-.37-.28-.43-.38-.41-.25,0-.41.26-.45.53A3.67,3.67,0,0,0,28,64,.52.52,0,0,1,28,64a.79.79,0,0,0,0,.19l0,.21v0a.27.27,0,0,0,0,.1.47.47,0,0,0,.4.21h.06a.49.49,0,0,0,.41-.28.36.36,0,0,0,0-.29A6.62,6.62,0,0,0,28.9,63.1Z"/><path class="cls-2" d="M28.61,60.26a.39.39,0,0,0-.52.16.92.92,0,0,0-.11.69,1.56,1.56,0,0,1,0,.16s0,.08,0,.12c0,.3-.06.87.4,1h.12a.42.42,0,0,0,.3-.11.78.78,0,0,0,.12-.69.92.92,0,0,1,0-.12s0,0,0-.08a1.12,1.12,0,0,0-.05-.54A.58.58,0,0,0,28.61,60.26Z"/><path class="cls-2" d="M28.36,57.75a.55.55,0,0,0-.44.28.93.93,0,0,0-.08.41c0,.07,0,.14,0,.21a2.8,2.8,0,0,0,0,.64v.05c0,.18.09.51.41.56h.11a.42.42,0,0,0,.28-.09.53.53,0,0,0,.15-.44,6.24,6.24,0,0,0,0-.72v-.08a1.77,1.77,0,0,0-.13-.64A.33.33,0,0,0,28.36,57.75Z"/><path class="cls-2" d="M28.15,55.29h0c-.3,0-.46.42-.46.44a1.42,1.42,0,0,0,0,.41v.09a3.92,3.92,0,0,0,.1.79v.05a.42.42,0,0,0,.43.38h0a.46.46,0,0,0,.36-.17.55.55,0,0,0,0-.48.7.7,0,0,1,0-.08,1.21,1.21,0,0,1,0-.19,1.45,1.45,0,0,0,0-.39l0-.13a1.56,1.56,0,0,0-.12-.5A.33.33,0,0,0,28.15,55.29Z"/><path class="cls-2" d="M28,52.88h0a.4.4,0,0,0-.38.1c-.36.35-.12,1.54-.12,1.55s.1.48.46.49h0a.45.45,0,0,0,.34-.14.56.56,0,0,0,.1-.48v-.07c0-.06,0-.11,0-.17a2.84,2.84,0,0,0,0-.47v-.06C28.29,53.14,28.24,52.93,28,52.88Z"/><path class="cls-2" d="M27.78,52.57h.06a.46.46,0,0,0,.35-.18.55.55,0,0,0,0-.48.74.74,0,0,1,0-.08,1.24,1.24,0,0,1,0-.21,1.41,1.41,0,0,0,0-.4l0-.08c-.1-.45-.14-.65-.35-.7h0a.4.4,0,0,0-.38.11c-.35.36-.1,1.56-.09,1.58S27.43,52.57,27.78,52.57Z"/><path class="cls-2" d="M27.55,50.13h0a.46.46,0,0,0,.37-.16.55.55,0,0,0,.06-.48v-.08a1.91,1.91,0,0,1,0-.21,1.89,1.89,0,0,0,0-.41l0-.09c-.08-.41-.13-.64-.34-.7a.38.38,0,0,0-.37.08c-.36.33-.12,1.56-.12,1.57S27.18,50.13,27.55,50.13Z"/><path class="cls-2" d="M27.26,47.69a.51.51,0,0,0,.41-.16.72.72,0,0,0,.09-.6,1.33,1.33,0,0,1,0-.15,2.54,2.54,0,0,0-.1-.57s0-.06,0-.1c0-.19-.06-.46-.29-.54a.39.39,0,0,0-.42.12.76.76,0,0,0-.13.72,1,1,0,0,1,0,.11,1,1,0,0,1,0,.15,1.24,1.24,0,0,0,0,.32v0C26.85,47.25,26.91,47.69,27.26,47.69Z"/><path class="cls-2" d="M26.81,45.16a.36.36,0,0,0,.23.08h.07a.52.52,0,0,0,.35-.19.72.72,0,0,0,.08-.56,1.31,1.31,0,0,1,0-.15,2.24,2.24,0,0,0-.09-.56.85.85,0,0,1,0-.11.68.68,0,0,0-.2-.49.37.37,0,0,0-.28-.07c-.47.07-.4.64-.38.82,0,0,0,.06,0,.07V44C26.56,44.71,26.62,45,26.81,45.16Z"/><path class="cls-2" d="M26.58,42.72a.36.36,0,0,0,.23.09h.07c.38-.06.45-.24.44-.54a1.22,1.22,0,0,0-.07-.51s0-.12,0-.18c0-.37,0-.76-.31-.87a.38.38,0,0,0-.41.08.71.71,0,0,0-.17.72,1,1,0,0,1,0,.11s0,0,0,.08C26.36,42.22,26.39,42.55,26.58,42.72Z"/><path class="cls-2" d="M26.39,40.26a.37.37,0,0,0,.24.09h.06a.52.52,0,0,0,.37-.19.69.69,0,0,0,.07-.56,1.08,1.08,0,0,1,0-.17,2.29,2.29,0,0,0-.06-.54.86.86,0,0,1,0-.12c0-.19,0-.45-.26-.54a.39.39,0,0,0-.41.08.8.8,0,0,0-.18.79s0,.08,0,.11,0,.06,0,.11C26.19,39.74,26.19,40.09,26.39,40.26Z"/><path class="cls-2" d="M26.55,37.9h0a.44.44,0,0,0,.39-.23.79.79,0,0,0,0-.49s0-.07,0-.09V37a2.58,2.58,0,0,0,0-.45v-.09c0-.27-.09-.72-.46-.7s-.47.32-.46.81a5.62,5.62,0,0,0,.09.93.3.3,0,0,0,0,.13A.48.48,0,0,0,26.55,37.9Z"/><path class="cls-2" d="M26.05,35.16a.51.51,0,0,0,.42.3h0a.43.43,0,0,0,.38-.24.81.81,0,0,0,0-.46s0-.07,0-.09a3,3,0,0,0,0-.64,1.07,1.07,0,0,1,0-.11c0-.23,0-.54-.3-.61a.39.39,0,0,0-.34.07,1.06,1.06,0,0,0-.25.75,4.75,4.75,0,0,0,.07.94A.27.27,0,0,0,26.05,35.16Z"/><path class="cls-2" d="M26,32.58a.45.45,0,0,0,.44.42h0a.45.45,0,0,0,.36-.15.54.54,0,0,0,.08-.47.7.7,0,0,1,0-.08,1.16,1.16,0,0,1,0-.19,1.47,1.47,0,0,0,0-.4s0-.1,0-.15a2.2,2.2,0,0,0,0-.34c-.09-.36-.33-.37-.4-.36-.3,0-.45.41-.47.6s0,.17,0,.25,0,.13,0,.19V32a1,1,0,0,0,0,.57Z"/><path class="cls-2" d="M26,30a.44.44,0,0,0,.31.49l.15,0a.44.44,0,0,0,.21-.05.51.51,0,0,0,.24-.33,1,1,0,0,0,0-.32,1.08,1.08,0,0,1,0-.13v-.05c0-.09,0-.19,0-.28a4,4,0,0,0,0-.58c-.06-.37-.3-.4-.38-.4h0c-.28,0-.46.33-.5.55a1.18,1.18,0,0,0,0,.25,1,1,0,0,1,0,.1s0,.06,0,.09A.73.73,0,0,0,26,30S26,30,26,30Z"/><path class="cls-2" d="M26.55,28.08h.11a.41.41,0,0,0,.27-.09.47.47,0,0,0,.14-.38s0,0,0-.07,0-.13,0-.19a2.84,2.84,0,0,0,0-.51s0-.08,0-.13a1.16,1.16,0,0,0,0-.54.38.38,0,0,0-.4-.23c-.32.05-.45.51-.46.6s0,.21-.05.32l0,.14a1.58,1.58,0,0,0,0,.55A.49.49,0,0,0,26.55,28.08Z"/><path class="cls-2" d="M26.75,25.64l.14,0a.4.4,0,0,0,.25-.08.47.47,0,0,0,.16-.38.62.62,0,0,1,0-.07l0-.19a3.32,3.32,0,0,0,.07-.45V24.4a1.56,1.56,0,0,0,0-.61.37.37,0,0,0-.4-.28c-.31,0-.48.48-.49.61s0,.16,0,.24a3.72,3.72,0,0,1-.1.57.65.65,0,0,0,.07.49A.46.46,0,0,0,26.75,25.64Z"/><path class="cls-2" d="M18.86,110.65a1,1,0,0,0,.34.44l.12.12.07.08c.14.19.41.54.72.54a.43.43,0,0,0,.23-.07.41.41,0,0,0,.2-.34c0-.46-.77-1-.8-1.06l-.09-.08a1,1,0,0,0-.17-.15.46.46,0,0,0-.56,0A.4.4,0,0,0,18.86,110.65Z"/><path class="cls-2" d="M17.27,108.7a1.07,1.07,0,0,0,.31.53l.1.12.05.08c.14.2.39.59.71.59a.44.44,0,0,0,.21-.05.41.41,0,0,0,.23-.31c0-.33-.29-.69-.66-1.06l-.09-.09-.05-.07a.61.61,0,0,0-.24-.25.41.41,0,0,0-.45.08A.44.44,0,0,0,17.27,108.7Z"/><path class="cls-2" d="M16.15,106.13a.4.4,0,0,0-.19.46,1,1,0,0,0,.22.51l.07.1a.6.6,0,0,1,0,.11,1,1,0,0,0,.13.28l.12.15,0,0h0v0l.1.13a.26.26,0,0,0,.14.12h0l.15,0a.44.44,0,0,0,.28-.11.56.56,0,0,0,.2-.5,1,1,0,0,0-.2-.38l-.07-.1a3.94,3.94,0,0,0-.31-.46l-.06-.11a1,1,0,0,0-.11-.17A.47.47,0,0,0,16.15,106.13Z"/><path class="cls-2" d="M15.12,103.95a.41.41,0,0,0-.11.46,1.72,1.72,0,0,0,.13.49c0,.07.05.14.07.2s.21.78.67.78H16a.42.42,0,0,0,.3-.23c.14-.3-.08-.75-.33-1.23l-.06-.12,0-.07a.53.53,0,0,0-.14-.29A.42.42,0,0,0,15.12,103.95Z"/><path class="cls-2" d="M14.46,101.58h0c-.3.2-.16.6-.08.79l0,.07c0,.07,0,.13,0,.19a1.53,1.53,0,0,0,.26.7.3.3,0,0,0,.32.23h.11a.44.44,0,0,0,.4-.39.83.83,0,0,0-.08-.43l0-.1a2.84,2.84,0,0,0-.18-.55l-.06-.11a1.38,1.38,0,0,1-.07-.15l0-.07a.37.37,0,0,0-.22-.27A.44.44,0,0,0,14.46,101.58Z"/><path class="cls-2" d="M14,99.06a.32.32,0,0,0-.27.21c-.19.22-.07.59,0,.78l0,.06a1.7,1.7,0,0,1,0,.2A1.2,1.2,0,0,0,14,101a.31.31,0,0,0,.31.2h.09a.43.43,0,0,0,.42-.43.84.84,0,0,0-.07-.37.88.88,0,0,1,0-.1,2.63,2.63,0,0,0-.19-.6v0C14.42,99.3,14.28,99,14,99.06Z"/><path class="cls-2" d="M13.34,96.75c-.36.18-.22.63-.17.82l0,.08s0,.1,0,.16a1.38,1.38,0,0,0,.24.79.32.32,0,0,0,.33.21h.05a.44.44,0,0,0,.43-.31.8.8,0,0,0-.05-.49l0-.1v0a2.56,2.56,0,0,0-.12-.47l0-.08c-.1-.31-.2-.55-.42-.62A.33.33,0,0,0,13.34,96.75Z"/><path class="cls-2" d="M12.62,94.66a.94.94,0,0,0,.05.58,1.27,1.27,0,0,1,0,.15.69.69,0,0,1,0,.09.94.94,0,0,0,0,.31c.13.46.26.57.37.62a.57.57,0,0,0,.22,0,.38.38,0,0,0,.25-.09c.23-.2.13-.6.07-.86l0-.07a1.49,1.49,0,0,0-.09-.33,1,1,0,0,1-.06-.22h0c0-.22-.15-.55-.43-.58C12.94,94.28,12.73,94.31,12.62,94.66Z"/><path class="cls-2" d="M12.8,91.93a.38.38,0,0,0-.34,0,.56.56,0,0,0-.3.38,1.93,1.93,0,0,0,0,.38l0,.16c0,.09,0,.17,0,.27a2.63,2.63,0,0,0,.1.43.66.66,0,0,0,.32.44.44.44,0,0,0,.18,0,.59.59,0,0,0,.26-.06c.3-.14.2-.58.11-1l0-.09a2.08,2.08,0,0,0-.1-.34L13,92.37s0,0,0,0A.43.43,0,0,0,12.8,91.93Z"/><path class="cls-2" d="M12.36,91.6a.54.54,0,0,0,.43-.2.59.59,0,0,0,0-.54l0-.05a.72.72,0,0,1,0-.14,1.38,1.38,0,0,0,0-.22,1.76,1.76,0,0,0-.09-.3L12.61,90a.44.44,0,0,1,0-.06.49.49,0,0,0-.11-.35.39.39,0,0,0-.38-.11.55.55,0,0,0-.35.41,1.41,1.41,0,0,0,0,.58,1.64,1.64,0,0,1,0,.22,2,2,0,0,0,.1.48.55.55,0,0,0,.37.44Z"/><path class="cls-2" d="M12.05,89.16a.43.43,0,0,0,.31-.19c.16-.23.14-.64-.06-1.32a1,1,0,0,1,0-.11c0-.18-.07-.43-.3-.5a.39.39,0,0,0-.4.11.82.82,0,0,0-.13.82,1.33,1.33,0,0,1,0,.14s0,.05,0,.09c0,.37,0,.72.26.88a.38.38,0,0,0,.23.08Z"/><path class="cls-2" d="M11.64,86.74h.05A.39.39,0,0,0,12,86.6c.31-.35,0-1.34,0-1.35a.92.92,0,0,1,0-.11c0-.19-.07-.44-.3-.52a.39.39,0,0,0-.4.11.82.82,0,0,0-.14.79v.09s0,.06,0,.1c0,.44,0,.82.27,1A.36.36,0,0,0,11.64,86.74Z"/><path class="cls-2" d="M11.14,84.21a.37.37,0,0,0,.23.08h.05a.47.47,0,0,0,.36-.16.74.74,0,0,0,.06-.63,1.19,1.19,0,0,1,0-.15,1.76,1.76,0,0,0-.06-.53.74.74,0,0,1,0-.11c0-.15-.07-.6-.46-.56a.43.43,0,0,0-.3.16,1,1,0,0,0-.08.73v.07s0,.05,0,.09C10.91,83.72,10.95,84.05,11.14,84.21Z"/><path class="cls-2" d="M10.93,81.77a.36.36,0,0,0,.23.09h.07c.52-.09.46-.54.43-.74a1.36,1.36,0,0,1,0-.16,2.68,2.68,0,0,0-.08-.58s0-.06,0-.1c0-.19,0-.45-.27-.54a.39.39,0,0,0-.42.1.75.75,0,0,0-.17.72s0,.08,0,.12,0,0,0,.08C10.7,81.27,10.73,81.6,10.93,81.77Z"/><path class="cls-2" d="M10.76,79.31a.36.36,0,0,0,.24.09h.07a.54.54,0,0,0,.37-.2.69.69,0,0,0,.07-.54,1.06,1.06,0,0,1,0-.18,1.92,1.92,0,0,0,0-.53,1,1,0,0,1,0-.11c0-.19,0-.44-.26-.54a.39.39,0,0,0-.41.07.76.76,0,0,0-.2.74s0,.07,0,.1,0,0,0,.09C10.55,78.81,10.57,79.15,10.76,79.31Z"/><path class="cls-2" d="M10.67,76.89a.57.57,0,0,0,.3.1.38.38,0,0,0,.2-.05c.26-.15.25-.53.24-.78,0,0,0-.07,0-.1a2.5,2.5,0,0,0,0-.55.82.82,0,0,1,0-.11.66.66,0,0,0-.18-.51.38.38,0,0,0-.3-.07c-.44.08-.4.59-.38.78a.87.87,0,0,1,0,.09c0,.05,0,.1,0,.15a1.76,1.76,0,0,0,0,.33v0C10.48,76.59,10.51,76.79,10.67,76.89Z"/><path class="cls-2" d="M10.43,73.64c0,.26,0,.8.43.85h.06a.44.44,0,0,0,.31-.12.91.91,0,0,0,.14-.74s0-.09,0-.13c0-.86-.15-1-.32-1.12a.37.37,0,0,0-.43.11,1.2,1.2,0,0,0-.2.6s0,.11,0,.2,0,.17,0,.21a.27.27,0,0,0,0,0Z"/><path class="cls-2" d="M10.59,71.89a.43.43,0,0,0,.32.15H11c.44-.09.4-.63.38-.9,0,0,0-.07,0-.1a2.88,2.88,0,0,0,0-.37l0-.15a.5.5,0,0,1,0-.07.54.54,0,0,0,0-.33A.39.39,0,0,0,11,69.9a.5.5,0,0,0-.42.27,1.41,1.41,0,0,0-.1.39,3.82,3.82,0,0,0,0,.51A1,1,0,0,0,10.59,71.89Z"/><path class="cls-2" d="M10.53,69.08a.44.44,0,0,0,.31.49l.15,0a.44.44,0,0,0,.22-.06.52.52,0,0,0,.24-.34,1,1,0,0,0,0-.31.91.91,0,0,1,0-.15,3.11,3.11,0,0,0,0-.33,4.28,4.28,0,0,0,0-.45V67.9c0-.38-.27-.44-.36-.44-.26,0-.44.26-.5.54a1.22,1.22,0,0,0,0,.3s0,.08,0,.11l0,.07a.66.66,0,0,0,0,.53A.52.52,0,0,1,10.53,69.08Z"/><path class="cls-2" d="M10.65,66.69a.44.44,0,0,0,.38.44h.11a.41.41,0,0,0,.28-.09.47.47,0,0,0,.14-.39.62.62,0,0,1,0-.07c0-.08,0-.15,0-.21a2.7,2.7,0,0,0,0-.46s0-.08,0-.13a2,2,0,0,0,0-.45c-.08-.33-.31-.34-.38-.34-.29,0-.46.37-.49.56s0,.18,0,.27,0,.13,0,.19v.06a1.07,1.07,0,0,0,0,.57Z"/><path class="cls-2" d="M11.22,64.68h.11a.41.41,0,0,0,.27-.09.53.53,0,0,0,.16-.43s0,0,0-.07,0-.14,0-.21a2.83,2.83,0,0,0,0-.43s0-.09,0-.15a1.61,1.61,0,0,0,0-.41c-.08-.33-.31-.35-.38-.35-.29,0-.47.37-.51.56a2.08,2.08,0,0,0,0,.26c0,.06,0,.12,0,.18l0,.07a1,1,0,0,0,0,.55A.48.48,0,0,0,11.22,64.68Z"/><path class="cls-2" d="M11.43,62.23l.15,0a.4.4,0,0,0,.23-.07.5.5,0,0,0,.19-.38l0-.16a4,4,0,0,0,.07-.63V60.9c0-.11,0-.23,0-.32,0-.38-.26-.43-.33-.44-.26,0-.47.24-.54.5a2.73,2.73,0,0,0-.07.46,2.16,2.16,0,0,1-.07.43h0a.65.65,0,0,0,.07.48A.46.46,0,0,0,11.43,62.23Z"/><path class="cls-2" d="M11.36,59.27a.49.49,0,0,0,.37.53h.13a.4.4,0,0,0,.24-.08.48.48,0,0,0,.17-.37v-.06l0-.19a4.23,4.23,0,0,0,.06-.47v-.09a2.25,2.25,0,0,0,0-.51c-.07-.34-.3-.36-.37-.37-.31,0-.5.43-.53.6s0,.2-.06.3l0,.1a1.5,1.5,0,0,0,0,.58Z"/><path class="cls-2" d="M12,57.36l.16,0a.39.39,0,0,0,.23-.07.48.48,0,0,0,.18-.38v-.06l0-.19a3.35,3.35,0,0,0,.07-.52s0-.09,0-.15a1.66,1.66,0,0,0,0-.41c-.06-.33-.29-.36-.36-.36-.28,0-.49.35-.53.54s0,.26-.06.39a2.62,2.62,0,0,1-.08.47.65.65,0,0,0,.06.48A.45.45,0,0,0,12,57.36Z"/><path class="cls-2" d="M12.63,52.81c-.3,0-.48.41-.51.55s0,.26-.06.39a2.67,2.67,0,0,1-.08.47.65.65,0,0,0,.07.48.46.46,0,0,0,.28.23l.17,0a.39.39,0,0,0,.23-.07.48.48,0,0,0,.17-.39.67.67,0,0,1,0-.07l0-.19a2.92,2.92,0,0,0,.06-.5s0-.09,0-.15a1.4,1.4,0,0,0,0-.45A.38.38,0,0,0,12.63,52.81Z"/><path class="cls-2" d="M12.86,50.37c-.29,0-.45.42-.47.55s0,.15,0,.22,0,.15,0,.22v0a1.14,1.14,0,0,0,0,.56h0a.48.48,0,0,0,.38.52h.12a.41.41,0,0,0,.26-.08.47.47,0,0,0,.16-.37V52l0-.19a3.25,3.25,0,0,0,.05-.52s0-.08,0-.13a1.22,1.22,0,0,0,0-.52A.38.38,0,0,0,12.86,50.37Z"/><path class="cls-2" d="M13.18,47.94c-.27,0-.48.31-.53.54a1.45,1.45,0,0,0,0,.27,1.39,1.39,0,0,1,0,.14l0,.09a.84.84,0,0,0-.06.57v0a.46.46,0,0,0,.37.48H13a.41.41,0,0,0,.26-.08.47.47,0,0,0,.15-.38s0,0,0-.07l0-.19a3,3,0,0,0,.06-.5s0-.1,0-.15a2.19,2.19,0,0,0,0-.33C13.5,48,13.25,47.94,13.18,47.94Z"/><path class="cls-2" d="M13.81,45.94a.42.42,0,0,0-.18-.4.4.4,0,0,0-.42,0,.66.66,0,0,0-.27.46c0,.13,0,.27-.06.4a3,3,0,0,1-.08.47.65.65,0,0,0,.07.48.46.46,0,0,0,.28.23l.16,0a.4.4,0,0,0,.22-.06.49.49,0,0,0,.19-.38l0-.12c0-.19.06-.36.08-.57a2.68,2.68,0,0,0,0-.4Z"/><path class="cls-2" d="M13.14,44.84a.46.46,0,0,0,.34.34l.13,0A.43.43,0,0,0,14,45a.78.78,0,0,0,.13-.46s0-.07,0-.09a3,3,0,0,0,.07-.59s0-.07,0-.11c0-.21.06-.65-.31-.71-.1,0-.34,0-.5.33a1.56,1.56,0,0,0-.12.37,5.9,5.9,0,0,0-.1.92A.3.3,0,0,0,13.14,44.84Z"/><path class="cls-2" d="M16.72,120l.07,0,.08.09a1,1,0,0,0,.22.21l0,0c.27.19.39.26.51.26h0a.44.44,0,0,0,.35-.27.56.56,0,0,0-.05-.52,1,1,0,0,0-.28-.24l-.12-.08a2.44,2.44,0,0,0-.45-.31l0,0-.13-.07h0a.4.4,0,0,0-.32-.18h0a.42.42,0,0,0-.35.19.35.35,0,0,0-.05.24C16.2,119.66,16.53,119.89,16.72,120Z"/><path class="cls-2" d="M14.45,117.92a1.08,1.08,0,0,0,.36.45l.12.11,0,0c.16.18.45.52.76.52A.43.43,0,0,0,16,119a.44.44,0,0,0,.2-.36c0-.26-.24-.45-.4-.58l-.07-.06a2.09,2.09,0,0,0-.4-.36l-.08-.08a.89.89,0,0,0-.17-.15.47.47,0,0,0-.57.06A.39.39,0,0,0,14.45,117.92Z"/><path class="cls-2" d="M12.95,115.9a1.13,1.13,0,0,0,.13.29l.08.12,0,.06a.51.51,0,0,1,0,.09,1,1,0,0,0,.07.16s.39.63.78.63a.37.37,0,0,0,.15,0,.42.42,0,0,0,.24-.3c.07-.33-.24-.71-.59-1.11l-.08-.09,0-.08a.61.61,0,0,0-.22-.26.42.42,0,0,0-.46,0A.45.45,0,0,0,12.95,115.9Z"/><path class="cls-2" d="M11.6,113.81a1,1,0,0,0,.25.5l.07.09.08.16c.14.27.34.67.69.67h.09a.41.41,0,0,0,.33-.27c.14-.43-.51-1.16-.59-1.24l-.07-.1a1,1,0,0,0-.16-.2.45.45,0,0,0-.53-.05A.41.41,0,0,0,11.6,113.81Z"/><path class="cls-2" d="M10.3,111.72a.93.93,0,0,0,.25.52l.09.13.06.13c.11.24.31.67.66.67l.16,0a.41.41,0,0,0,.27-.28c.09-.34-.27-.86-.6-1.24l-.06-.09a.64.64,0,0,0-.22-.27.42.42,0,0,0-.46,0A.44.44,0,0,0,10.3,111.72Z"/><path class="cls-2" d="M9,109.61a1,1,0,0,0,.25.54l.08.12.06.13c.11.24.3.67.65.66l.15,0a.41.41,0,0,0,.27-.28c.12-.42-.44-1.09-.55-1.22l-.06-.1a.88.88,0,0,0-.15-.21.45.45,0,0,0-.53-.06A.4.4,0,0,0,9,109.61Z"/><path class="cls-2" d="M7.86,107.55h0a2.69,2.69,0,0,0,.19.4l.1.19,0,.1c.1.24.31.7.66.7a.47.47,0,0,0,.18,0,.42.42,0,0,0,.26-.28c.09-.33-.19-.75-.52-1.19l-.06-.08,0-.07a.54.54,0,0,0-.19-.28A.41.41,0,0,0,8,107,.46.46,0,0,0,7.86,107.55Z"/><path class="cls-2" d="M6.73,105.36h0l0,.07a1.47,1.47,0,0,0,.06.2l0,.07c.05.11.1.21.14.34s.3.74.73.74h.09a.42.42,0,0,0,.3-.26c.11-.3-.11-.71-.5-1.27l0,0,0-.07a.54.54,0,0,0-.14-.24.42.42,0,0,0-.51,0A.45.45,0,0,0,6.73,105.36Z"/><path class="cls-2" d="M6.22,102.57a.35.35,0,0,0-.3,0c-.43.21-.17.76-.08.94l0,0a2.19,2.19,0,0,1,.08.21,1.42,1.42,0,0,0,.36.66.28.28,0,0,0,.27.17l.13,0a.51.51,0,0,0,.37-.3.58.58,0,0,0-.14-.52l0,0a1.22,1.22,0,0,1-.07-.19,1.18,1.18,0,0,0-.21-.44A.94.94,0,0,0,6.22,102.57Z"/><path class="cls-2" d="M6.07,102.09a.4.4,0,0,0,0-.34,6.75,6.75,0,0,0-.52-1.2c-.17-.31-.37-.3-.48-.27s-.3.28-.28.59a1.83,1.83,0,0,0,.12.48c0,.07,0,.14.07.2a1.32,1.32,0,0,0,.27.54.3.3,0,0,0,.32.23h.1A.5.5,0,0,0,6.07,102.09Z"/><path class="cls-2" d="M5.29,99.75a.37.37,0,0,0,0-.27,1.33,1.33,0,0,0-.1-.33l0-.12c0-.09-.05-.21-.08-.3A1.3,1.3,0,0,0,5,98.48a1,1,0,0,1-.07-.14v0c0-.4-.31-.42-.43-.41s-.41.11-.37.57v0a1.77,1.77,0,0,0,.08.47c0,.07,0,.13,0,.2a1.43,1.43,0,0,0,.18.48l0,0v0a.34.34,0,0,0,.36.28H4.9A.52.52,0,0,0,5.29,99.75Z"/><path class="cls-2" d="M4.65,97.45h0a.61.61,0,0,0,0-.57l0-.06a.83.83,0,0,1,0-.14,1.5,1.5,0,0,0,0-.19,1.93,1.93,0,0,0-.07-.28A1.68,1.68,0,0,1,4.5,96s0,0,0,0c0-.36-.18-.46-.3-.49a.39.39,0,0,0-.3.06.6.6,0,0,0-.22.41v0a1.57,1.57,0,0,0,0,.51c0,.07,0,.13,0,.19a1.81,1.81,0,0,0,.1.5.65.65,0,0,0,.31.43l.11,0A.62.62,0,0,0,4.65,97.45Z"/><path class="cls-2" d="M4.05,95.19h0A.44.44,0,0,0,4.48,95a.8.8,0,0,0,.06-.46.93.93,0,0,1,0-.1,2.85,2.85,0,0,0,0-.64.81.81,0,0,1,0-.11.6.6,0,0,0-.2-.54.38.38,0,0,0-.38,0c-.33.15-.31.52-.3.72,0,0,0,.07,0,.1V94a4.19,4.19,0,0,0,0,.81.27.27,0,0,0,0,.11A.49.49,0,0,0,4.05,95.19Z"/><path class="cls-2" d="M4,92.73h.11a.44.44,0,0,0,.38-.21.75.75,0,0,0,.05-.58.78.78,0,0,1,0-.17h0c.08-.13.07-.31,0-.68l0-.08c-.05-.37-.28-.41-.37-.41-.29,0-.44.33-.48.54a4.09,4.09,0,0,0-.05.77V92a1.12,1.12,0,0,0,.08.47A.35.35,0,0,0,4,92.73Z"/><path class="cls-2" d="M3.77,90.19a.42.42,0,0,0,.28.1.61.61,0,0,0,.42-.17.38.38,0,0,0,.09-.43,7,7,0,0,0-.07-1.14c-.06-.39-.31-.41-.39-.4-.28,0-.45.35-.47.58a4.62,4.62,0,0,0,0,.75v.07C3.61,89.85,3.63,90.07,3.77,90.19Z"/><path class="cls-2" d="M4,87.82h.07a.43.43,0,0,0,.32-.12.52.52,0,0,0,.11-.45s0,0,0-.07,0-.14,0-.22a2.67,2.67,0,0,0,0-.44s0-.07,0-.13c0-.35,0-.45-.1-.53a.38.38,0,0,0-.43-.18c-.31.09-.39.55-.39.64s0,.14,0,.21,0,.15,0,.22v0a1.18,1.18,0,0,0,0,.57A.49.49,0,0,0,4,87.82Z"/><path class="cls-2" d="M3.68,85.32h0a.57.57,0,0,0,.28.08.4.4,0,0,0,.21-.06c.26-.16.24-.54.23-.77v-.05a2.94,2.94,0,0,0-.06-.61,1,1,0,0,1,0-.11c0-.19,0-.45-.26-.54a.39.39,0,0,0-.41.08.67.67,0,0,0-.19.66.78.78,0,0,1,0,.11c0,.05,0,.1,0,.15a1.64,1.64,0,0,0,0,.35v0C3.49,85.07,3.53,85.24,3.68,85.32Z"/><path class="cls-2" d="M3.64,82.89l.13,0a.57.57,0,0,0,.53-.33.9.9,0,0,0,0-.38,1.11,1.11,0,0,1,0-.11,2.66,2.66,0,0,0,0-.6.74.74,0,0,1,0-.11c0-.16,0-.6-.41-.6h0c-.36,0-.49.42-.48.8v.15c0,.1,0,.19,0,.3a1.3,1.3,0,0,0,0,.3.92.92,0,0,1,0,.16h0A.33.33,0,0,0,3.64,82.89Z"/><path class="cls-2" d="M3.38,79.47a.28.28,0,0,0,0,.09s0,.11,0,.18,0,.18,0,.2.06.5.44.52h0a.43.43,0,0,0,.32-.13,1,1,0,0,0,.15-.74s0-.09,0-.12a3.37,3.37,0,0,0,0-.4l0-.16c0-.19,0-.52-.3-.59s-.31,0-.44.22a1.42,1.42,0,0,0-.15.46s0,.11,0,.2S3.38,79.41,3.38,79.47Z"/><path class="cls-2" d="M3.45,77.51a.49.49,0,0,0,.4.5h.09a.42.42,0,0,0,.29-.1.52.52,0,0,0,.14-.43s0,0,0-.07,0-.14,0-.22a2.58,2.58,0,0,0,0-.45s0-.08,0-.14c0-.34,0-.44-.06-.53a.37.37,0,0,0-.41-.21c-.33.07-.45.56-.46.65a.65.65,0,0,0,0,.18v0l0,.06a.78.78,0,0,0,0,.17,1.6,1.6,0,0,0,0,.53Z"/><path class="cls-2" d="M3.6,75.12a.44.44,0,0,0,.38.44h.11a.41.41,0,0,0,.27-.09.47.47,0,0,0,.14-.39.67.67,0,0,1,0-.07c0-.06,0-.13,0-.19a2.89,2.89,0,0,0,0-.5s0-.06,0-.11c0-.44,0-.52-.06-.61a.38.38,0,0,0-.41-.19c-.35.08-.45.63-.45.64a.49.49,0,0,0,0,.19l0,.06a.69.69,0,0,0,0,.14,1.25,1.25,0,0,0,0,.62Z"/><path class="cls-2" d="M3.77,72.62a.48.48,0,0,0,.38.5h.11A.41.41,0,0,0,4.54,73a.47.47,0,0,0,.15-.37s0,0,0-.06,0-.13,0-.19a2.85,2.85,0,0,0,0-.53s0-.08,0-.14a1.24,1.24,0,0,0,0-.52A.37.37,0,0,0,4.32,71c-.29,0-.44.43-.46.57a1.9,1.9,0,0,0,0,.25,1.67,1.67,0,0,1,0,.18l0,.07a1,1,0,0,0,0,.56Z"/><path class="cls-2" d="M4,70.18a.47.47,0,0,0,.39.49h.11a.41.41,0,0,0,.27-.09.47.47,0,0,0,.14-.38.63.63,0,0,1,0-.07c0-.06,0-.12,0-.19a2.93,2.93,0,0,0,0-.5s0-.08,0-.14a1.16,1.16,0,0,0,0-.53.38.38,0,0,0-.4-.24c-.29,0-.44.44-.46.57L4,69.56a1.33,1.33,0,0,0,0,.6Z"/><path class="cls-2" d="M4.17,67.75a.46.46,0,0,0,.38.47h.11a.42.42,0,0,0,.28-.09.53.53,0,0,0,.15-.43s0,0,0-.06,0-.14,0-.22a2.34,2.34,0,0,0,0-.47s0-.08,0-.15c0-.35,0-.45-.07-.54a.38.38,0,0,0-.41-.18c-.31.07-.44.55-.45.64s0,.14,0,.21,0,.12,0,.17v.06a1.06,1.06,0,0,0,0,.55Z"/><path class="cls-2" d="M4.32,65.27a.49.49,0,0,0,.4.5h.09a.42.42,0,0,0,.29-.1.56.56,0,0,0,.15-.45s0,0,0-.07,0-.11,0-.16a3.06,3.06,0,0,0,0-.49s0-.09,0-.16a1.28,1.28,0,0,0,0-.44.38.38,0,0,0-.4-.28c-.3,0-.45.45-.46.59a1,1,0,0,0,0,.17.34.34,0,0,1,0,.07.52.52,0,0,1,0,.08.84.84,0,0,0,0,.16,1.54,1.54,0,0,0,0,.55Z"/><path class="cls-2" d="M4.82,63.32h.11a.46.46,0,0,0,.28-.09.35.35,0,0,0,.12-.18.9.9,0,0,0,0-.43s0-.07,0-.09,0-.2,0-.3a1.94,1.94,0,0,0,0-.31,1.8,1.8,0,0,1,0-.21v0c.07-.36-.14-.48-.27-.51s-.42,0-.55.43v0a1.55,1.55,0,0,0-.06.49,1.69,1.69,0,0,1,0,.21,1.34,1.34,0,0,0,0,.59C4.47,63.08,4.52,63.27,4.82,63.32Z"/><path class="cls-2" d="M4.61,60.69a.43.43,0,0,0,.29.17H5a.43.43,0,0,0,.3-.12A.92.92,0,0,0,5.43,60c0-.05,0-.1,0-.13,0-.81-.09-1-.29-1.12a.38.38,0,0,0-.43.11,1,1,0,0,0-.2.51,3.53,3.53,0,0,0,0,.53A1.17,1.17,0,0,0,4.61,60.69Z"/><path class="cls-2" d="M4.59,57.87s0,0,0,.05a.44.44,0,0,0,.3.48l.16,0a.43.43,0,0,0,.2,0,.5.5,0,0,0,.24-.31,1.21,1.21,0,0,0,0-.36s0-.09,0-.13,0-.2,0-.3v0a2.36,2.36,0,0,0,0-.32c0-.06,0-.11,0-.17,0-.41-.29-.45-.37-.45-.26,0-.45.28-.48.55a1.51,1.51,0,0,0,0,.26s0,.08,0,.11l0,.09a.69.69,0,0,0,0,.56Zm0,0h0Z"/><path class="cls-2" d="M4.68,55.47A.46.46,0,0,0,5,56l.15,0a.41.41,0,0,0,.24-.07.54.54,0,0,0,.2-.42,6.38,6.38,0,0,0,0-.72v-.1a1.8,1.8,0,0,0,0-.55.38.38,0,0,0-.4-.29c-.31,0-.45.46-.47.6a1.58,1.58,0,0,0,0,.22s0,.07,0,.1a.82.82,0,0,1,0,.09.76.76,0,0,0,0,.55A.48.48,0,0,1,4.68,55.47Z"/><path class="cls-2" d="M4.78,53a.48.48,0,0,0,.4.49h.08a.43.43,0,0,0,.3-.11.57.57,0,0,0,.14-.48s0,0,0-.07a1.51,1.51,0,0,1,0-.21,1.69,1.69,0,0,0,0-.4s0-.08,0-.14c0-.36,0-.46-.07-.55a.38.38,0,0,0-.42-.19c-.31.08-.42.54-.42.63s0,.18,0,.27l0,.18a1.42,1.42,0,0,0,0,.56Z"/><path class="cls-2" d="M4.92,50.58a.47.47,0,0,0,.39.48h.1A.42.42,0,0,0,5.68,51a.48.48,0,0,0,.16-.37V50.5a6.12,6.12,0,0,0,0-.64V49.8a2.46,2.46,0,0,0,0-.52c-.08-.33-.32-.35-.39-.35-.28,0-.45.34-.48.56s0,.17,0,.26,0,.13,0,.2V50a1.1,1.1,0,0,0,0,.56Z"/><path class="cls-2" d="M5.07,48.13a.47.47,0,0,0,.39.48h.11a.42.42,0,0,0,.27-.09A.48.48,0,0,0,6,48.15s0,0,0-.06S6,48,6,47.9a3.06,3.06,0,0,0,0-.54s0-.09,0-.14a1.81,1.81,0,0,0,0-.39c-.08-.34-.32-.35-.39-.35-.29,0-.46.4-.49.59s0,.13,0,.19,0,.16,0,.24v0a1.16,1.16,0,0,0,0,.56Z"/><path class="cls-2" d="M5.71,46.17h0a.49.49,0,0,0,.43-.28,1.64,1.64,0,0,0,0-.7h0a.19.19,0,0,1,0,0,1.87,1.87,0,0,1,0-.19c0-.39.05-.8-.2-1a.38.38,0,0,0-.41,0,.74.74,0,0,0-.27.68,1.1,1.1,0,0,1,0,.12.94.94,0,0,1,0,.13,1.18,1.18,0,0,0,0,.31s0,.05,0,.09a.89.89,0,0,0,0,.45A.48.48,0,0,0,5.71,46.17Z"/><path class="cls-2" d="M5.49,42.51l0,.15a1.6,1.6,0,0,0,0,.54v.05a.46.46,0,0,0,.38.47h.11a.41.41,0,0,0,.25-.08.49.49,0,0,0,.17-.36v0a6.06,6.06,0,0,0,.07-.71v-.06c0-.49,0-.6,0-.69A.38.38,0,0,0,6,41.58c-.32.06-.44.53-.45.62S5.51,42.41,5.49,42.51Z"/><path class="cls-2" d="M24.14,86.13a1,1,0,0,0,.33.47l.11.11.08.12c.14.21.37.56.68.56a.47.47,0,0,0,.22-.06.41.41,0,0,0,.22-.33c0-.46-.72-1.07-.75-1.1L25,85.8a.93.93,0,0,0-.16-.16.46.46,0,0,0-.56,0A.4.4,0,0,0,24.14,86.13Z"/><path class="cls-2" d="M22.65,84.26a1.32,1.32,0,0,0,.3.49,1.49,1.49,0,0,1,.13.17,1.19,1.19,0,0,0,.6.56h.11a.42.42,0,0,0,.23-.07.46.46,0,0,0,.24-.35.55.55,0,0,0-.24-.45L24,84.57l0-.08a.9.9,0,0,0-.14-.22.93.93,0,0,0-.32-.32l-.08-.06,0,0a.44.44,0,0,0-.3-.25.38.38,0,0,0-.32.1A.48.48,0,0,0,22.65,84.26Z"/><path class="cls-2" d="M21.33,81.69c-.19.13-.22.34-.1.61l0,0a1.59,1.59,0,0,0,.23.42,1.78,1.78,0,0,1,.12.18,1.25,1.25,0,0,0,.39.44.3.3,0,0,0,.28.18.51.51,0,0,0,.2,0,.53.53,0,0,0,.29-.3.35.35,0,0,0,0-.22.9.9,0,0,0-.23-.38l-.05-.07-.06-.09-.15-.22a1.29,1.29,0,0,0-.21-.21l-.12-.11,0,0a.44.44,0,0,0-.28-.25A.38.38,0,0,0,21.33,81.69Z"/><path class="cls-2" d="M21.37,81.2a.35.35,0,0,0,0-.23.93.93,0,0,0-.21-.39l0-.06,0,0-.18-.3a2.11,2.11,0,0,0-.21-.26l-.1-.12v0a.4.4,0,0,0-.27-.24.38.38,0,0,0-.33.1.45.45,0,0,0-.08.57l0,0a1.8,1.8,0,0,0,.2.43l.1.18a1.42,1.42,0,0,0,.34.45.31.31,0,0,0,.3.2.57.57,0,0,0,.2,0A.52.52,0,0,0,21.37,81.2Z"/><path class="cls-2" d="M20.14,79.13a.4.4,0,0,0,0-.34c-.09-.22-.19-.43-.3-.63s-.15-.3-.22-.46v0a.43.43,0,0,0-.23-.32.39.39,0,0,0-.35,0,.49.49,0,0,0-.19.56v0a2.06,2.06,0,0,0,.13.48l.07.19a1.23,1.23,0,0,0,.31.54.29.29,0,0,0,.3.2l.13,0A.5.5,0,0,0,20.14,79.13Z"/><path class="cls-2" d="M18.9,77.07a.54.54,0,0,0,.36-.15.35.35,0,0,0,.1-.25,2.05,2.05,0,0,0-.11-.57l0-.17a2.18,2.18,0,0,0-.1-.3,2.13,2.13,0,0,1-.08-.21.32.32,0,0,1,0,0c0-.33-.18-.42-.33-.44a.38.38,0,0,0-.3.07.63.63,0,0,0-.19.46,1.48,1.48,0,0,0,.06.55,1.83,1.83,0,0,1,0,.19,1.68,1.68,0,0,0,.15.48l0,.06a.39.39,0,0,0,.41.31Z"/><path class="cls-2" d="M18.5,74.65a.42.42,0,0,0,.28-.18c.18-.26.1-.72,0-1.24l0-.15V73c0-.17-.06-.42-.29-.49a.4.4,0,0,0-.43.17,1.19,1.19,0,0,0-.14.84s0,.08,0,.11,0,.72.32.94a.39.39,0,0,0,.23.08Z"/><path class="cls-2" d="M17.94,72.13a.36.36,0,0,0,.24.09h.06A.52.52,0,0,0,18.6,72a.69.69,0,0,0,.09-.55,1,1,0,0,1,0-.17,2.07,2.07,0,0,0,0-.56,1,1,0,0,1,0-.1c0-.19,0-.46-.25-.56a.39.39,0,0,0-.42.09.76.76,0,0,0-.19.71s0,.08,0,.11,0,0,0,.08C17.73,71.62,17.75,72,17.94,72.13Z"/><path class="cls-2" d="M18.16,69.76h.07a.43.43,0,0,0,.31-.11.51.51,0,0,0,.12-.43s0,0,0-.07,0-.12,0-.18a3.09,3.09,0,0,0,0-.48s0-.07,0-.12a1.28,1.28,0,0,0-.07-.53.38.38,0,0,0-.42-.22c-.33.08-.43.58-.43.67a.66.66,0,0,0,0,.18v0l0,.06a.78.78,0,0,0,0,.17,1.57,1.57,0,0,0,0,.53C17.76,69.41,17.82,69.72,18.16,69.76Z"/><path class="cls-2" d="M18.68,66.09c0-.15,0-.34-.06-.51-.06-.39-.31-.41-.39-.41-.28,0-.46.35-.48.6v.07a4.36,4.36,0,0,0,0,.7v.07c0,.3,0,.49.16.6a.43.43,0,0,0,.29.1.61.61,0,0,0,.41-.17.38.38,0,0,0,.07-.47,1.14,1.14,0,0,1,0-.28A1.93,1.93,0,0,0,18.68,66.09Z"/><path class="cls-2" d="M17.75,64.31h0a.46.46,0,0,1,0,.07.44.44,0,0,0,.34.47l.14,0a.41.41,0,0,0,.25-.08.54.54,0,0,0,.18-.43,4.86,4.86,0,0,0,0-.76c0-.14,0-.3-.06-.44-.06-.38-.28-.43-.38-.43-.25,0-.43.28-.47.55a1.18,1.18,0,0,0,0,.27s0,.07,0,.1a.93.93,0,0,1,0,.09.74.74,0,0,0,0,.57Z"/><path class="cls-2" d="M18.2,62.4h.12a.41.41,0,0,0,.26-.09.47.47,0,0,0,.15-.38.59.59,0,0,1,0-.07c0-.09,0-.17,0-.24a3.09,3.09,0,0,0,.06-.4s0-.09,0-.15a1.51,1.51,0,0,0,0-.46c-.07-.32-.29-.35-.36-.35h0c-.3,0-.51.39-.55.55l-.06.23-.07.25a1.55,1.55,0,0,0,0,.53A.5.5,0,0,0,18.2,62.4Z"/><path class="cls-2" d="M42.62,42.5a1.93,1.93,0,0,0,0,.53.86.86,0,0,1,0,.11.64.64,0,0,0,.2.52.36.36,0,0,0,.21.06l.12,0c.38-.11.35-.58.34-.78,0,0,0-.06,0-.08v0c0-.68,0-1-.2-1.15a.36.36,0,0,0-.31-.08h0c-.31.08-.42.16-.43.51a1.39,1.39,0,0,0,0,.25A.88.88,0,0,1,42.62,42.5Z"/><path class="cls-2" d="M43.09,44a.5.5,0,0,0-.41.32,1.55,1.55,0,0,0,0,.69s0,.13,0,.2c0,.37,0,.65.15.81a.37.37,0,0,0,.26.12h0c.3,0,.49-.3.5-.79,0-.07,0-.14,0-.2a1.34,1.34,0,0,1,0-.19v0a1,1,0,0,0,0-.52.35.35,0,0,0-.06-.22A.43.43,0,0,0,43.09,44Z"/><path class="cls-2" d="M43.55,47a.47.47,0,0,0-.7-.45.54.54,0,0,0-.21.42,5.8,5.8,0,0,0,0,.71v.08a3.45,3.45,0,0,0,0,.45c0,.37.27.42.36.42h0c.26,0,.44-.3.49-.52a1.38,1.38,0,0,0,0-.28s0-.08,0-.12l0-.08a.73.73,0,0,0,0-.57A.5.5,0,0,1,43.55,47Zm0,.07h0Z"/><path class="cls-2" d="M42.43,51h0c.31,0,.61-.46.64-.54a.44.44,0,0,0,0-.21l0,0a.74.74,0,0,0,.07-.14,1.9,1.9,0,0,0,.08-.46v-.06c0-.17,0-.51-.29-.63a.46.46,0,0,0-.41,0,.52.52,0,0,0-.21.41v.07c0,.09,0,.16-.06.23a2.9,2.9,0,0,0-.09.38l0,.13a1.39,1.39,0,0,0-.07.54A.33.33,0,0,0,42.43,51Z"/><path class="cls-2" d="M41.62,53.31h0c.46,0,.86-1.12.87-1.16.07-.21.2-.6-.09-.81a.45.45,0,0,0-.43-.07.65.65,0,0,0-.34.5h0a1,1,0,0,1-.1.23,1.66,1.66,0,0,0-.14.34l0,.14c-.12.36-.15.48-.09.6A.38.38,0,0,0,41.62,53.31Z"/><path class="cls-2" d="M40.57,55.49h0c.35,0,.51-.36.6-.56l0-.09,0-.08c.28-.43.42-.73.35-1a.36.36,0,0,0-.22-.23c-.52-.19-.69.26-.75.43a1,1,0,0,1-.07.17,2.05,2.05,0,0,0-.2.42l0,.1,0,.08a.55.55,0,0,0-.06.54A.39.39,0,0,0,40.57,55.49Z"/><path class="cls-2" d="M39.06,56.82a.63.63,0,0,0-.12.55.38.38,0,0,0,.27.23l.12,0c.29,0,.47-.31.57-.47l0-.07,0,0c.41-.53.54-.83.48-1.06a.35.35,0,0,0-.21-.24h0c-.32-.13-.47-.08-.66.19l-.12.2-.07.12a1.91,1.91,0,0,0-.27.48Z"/><path class="cls-2" d="M38.93,57.82a.52.52,0,0,0-.41-.08.68.68,0,0,0-.4.38.94.94,0,0,1-.1.15,1.93,1.93,0,0,0-.31.42l-.06.09c-.11.16-.27.37-.16.59a.39.39,0,0,0,.37.21h0a.7.7,0,0,0,.55-.38l.07-.09,0,0c.46-.48.62-.76.58-1A.37.37,0,0,0,38.93,57.82Z"/><path class="cls-2" d="M37.06,59.61a.76.76,0,0,0-.52.36l-.11.12a2.44,2.44,0,0,0-.28.29l-.13.16,0,0a.44.44,0,0,0-.24.47.45.45,0,0,0,.46.3h.11a1,1,0,0,0,.52-.37l.1-.11.09-.07a1,1,0,0,0,.28-.25l0,0a.76.76,0,0,0,.22-.55.34.34,0,0,0-.12-.21A.49.49,0,0,0,37.06,59.61Z"/><path class="cls-2" d="M53.39,3.79a1.93,1.93,0,0,0,0,.25c0,.16.09.34.13.48.09.31.27.36.38.36h0c.28,0,.39-.38.4-.6a2.7,2.7,0,0,0-.11-.86l0-.06c-.08-.29-.14-.43-.25-.51a.47.47,0,0,0-.47,0,.51.51,0,0,0-.31.39.37.37,0,0,0,.13.31A1.29,1.29,0,0,1,53.39,3.79Z"/><path class="cls-2" d="M54.07,5.18a.47.47,0,0,0-.34.13.8.8,0,0,0-.12.67s0,.07,0,.09a2,2,0,0,0,0,.54.77.77,0,0,1,0,.11.68.68,0,0,0,.15.5.37.37,0,0,0,.25.1h0c.48,0,.47-.59.46-.78,0,0,0-.06,0-.09.07-.87,0-1.1-.19-1.21A.35.35,0,0,0,54.07,5.18Z"/><path class="cls-2" d="M53.59,8.83v.05a2.43,2.43,0,0,0,.06.57c.09.29.28.33.37.33h0c.29,0,.43-.4.45-.58a4.53,4.53,0,0,0,0-.78V8.35a.94.94,0,0,0-.11-.55A.47.47,0,0,0,54,7.65a.5.5,0,0,0-.4.29.36.36,0,0,0,0,.28c0,.07,0,.13,0,.19S53.59,8.67,53.59,8.83Z"/><path class="cls-2" d="M53.57,10.63a6.5,6.5,0,0,0,.07.93l0,.16a.35.35,0,0,1,0,0,.43.43,0,0,0,.08.35.38.38,0,0,0,.29.12h0c.23,0,.37-.15.43-.45v0a1.71,1.71,0,0,0,.05-.49,1.91,1.91,0,0,1,0-.22,1.25,1.25,0,0,0-.09-.69.36.36,0,0,0-.37-.27.57.57,0,0,0-.48.27A.36.36,0,0,0,53.57,10.63Z"/><path class="cls-2" d="M53.76,14.59a.37.37,0,0,0,.28.11h0c.23,0,.37-.17.42-.48v0a2,2,0,0,0,0-.45c0-.07,0-.15,0-.22a1.72,1.72,0,0,0,0-.48V13a.43.43,0,0,0-.35-.43.46.46,0,0,0-.52.21.8.8,0,0,0-.05.48s0,.07,0,.1v.06a.79.79,0,0,0,0,.44h0a1,1,0,0,1,0,.25c0,.06,0,.11,0,.15v0A.39.39,0,0,0,53.76,14.59Z"/><path class="cls-2" d="M54.15,15a.44.44,0,0,0-.53.3,1,1,0,0,0,0,.44,1.26,1.26,0,0,1,0,.14c0,.06,0,.13,0,.21s0,.08,0,.12a2.28,2.28,0,0,0,.05.41l0,.09c.06.36.26.42.37.42h0c.25,0,.4-.28.45-.51a3.32,3.32,0,0,0,0-.8v-.07a1,1,0,0,0-.08-.44A.35.35,0,0,0,54.15,15Z"/><path class="cls-2" d="M54.55,17.86a.44.44,0,0,0-.42-.41.46.46,0,0,0-.39.14.54.54,0,0,0-.08.49.71.71,0,0,1,0,.08,1.35,1.35,0,0,1,0,.21,1.59,1.59,0,0,0,0,.39s0,.1,0,.16a2.24,2.24,0,0,0,0,.32c.08.32.28.36.37.36h0c.29,0,.44-.39.46-.57a2.72,2.72,0,0,0,0-.33c0-.06,0-.11,0-.17v-.05a1.07,1.07,0,0,0,0-.57Z"/><path class="cls-2" d="M54.18,19.91a.46.46,0,0,0-.4.12.55.55,0,0,0-.09.5.65.65,0,0,1,0,.08,1.37,1.37,0,0,1,0,.21,1.52,1.52,0,0,0,0,.4s0,.08,0,.14c0,.37,0,.46.11.54a.4.4,0,0,0,.31.16l.11,0c.29-.09.37-.52.38-.62s0-.18,0-.26V21a1.36,1.36,0,0,0,0-.6A.49.49,0,0,0,54.18,19.91Z"/><path class="cls-2" d="M54.61,22.82a.48.48,0,0,0-.41-.45.45.45,0,0,0-.4.12.55.55,0,0,0-.09.5.64.64,0,0,1,0,.08,1.23,1.23,0,0,1,0,.2,1.56,1.56,0,0,0,0,.38s0,.06,0,.11c0,.42,0,.5.11.58a.39.39,0,0,0,.32.18h.1c.29-.09.38-.51.39-.61s0-.16,0-.23,0-.14,0-.21v0a1.11,1.11,0,0,0,0-.57Z"/><path class="cls-2" d="M54.41,24.88a.43.43,0,0,0-.51,0c-.27.17-.23.57-.2.86,0,0,0,.07,0,.09a2.66,2.66,0,0,0,0,.38c0,.06,0,.12,0,.18a.44.44,0,0,1,0,.05.48.48,0,0,0,0,.34.4.4,0,0,0,.34.2h0a.5.5,0,0,0,.41-.28,2.22,2.22,0,0,0,.09-.91A1,1,0,0,0,54.41,24.88Z"/><path class="cls-2" d="M54.63,28.24v-.08c0-.35,0-.73-.27-.88a.44.44,0,0,0-.46,0c-.26.16-.24.55-.22.86,0,0,0,.09,0,.12a2.24,2.24,0,0,0,0,.33c0,.07,0,.14,0,.2a.45.45,0,0,1,0,0,.48.48,0,0,0,.07.39.39.39,0,0,0,.3.15h0a.54.54,0,0,0,.39-.3,1.85,1.85,0,0,0,.1-.42s0-.14,0-.25S54.63,28.28,54.63,28.24Z"/><path class="cls-2" d="M54.2,29.73a.44.44,0,0,0-.37.11,1,1,0,0,0-.16.77s0,.09,0,.12v0c0,.58,0,.94.29,1.06a.35.35,0,0,0,.15,0,.4.4,0,0,0,.26-.1.76.76,0,0,0,.21-.53v-.07c0-.21,0-.35,0-.44a1.6,1.6,0,0,0,0-.44C54.57,29.94,54.44,29.76,54.2,29.73Z"/><path class="cls-2" d="M54.45,32.39a.42.42,0,0,0-.3-.21.47.47,0,0,0-.4.09.46.46,0,0,0-.12.4.6.6,0,0,1,0,.07v.06a.7.7,0,0,0,0,.38s0,.06,0,.09a.94.94,0,0,0,0,.24s0,.09,0,.15a1,1,0,0,0,.07.44.39.39,0,0,0,.34.23h0c.27,0,.38-.37.42-.51a2,2,0,0,0,.07-.68A1.13,1.13,0,0,0,54.45,32.39Z"/><path class="cls-2" d="M54.49,35.66a.25.25,0,0,0,0-.18.78.78,0,0,1,0-.16.67.67,0,0,0-.09-.53.45.45,0,0,0-.32-.16.44.44,0,0,0-.35.12,1,1,0,0,0-.17.78s0,.09,0,.12a2.27,2.27,0,0,0,0,.34c0,.06,0,.12,0,.19s0,.53.31.6H54a.46.46,0,0,0,.36-.25,1.45,1.45,0,0,0,.14-.48s0-.1,0-.18S54.49,35.71,54.49,35.66Z"/><path class="cls-2" d="M53.54,38.5a1,1,0,0,1,0,.11c0,.21,0,.51.25.6l.15,0a.38.38,0,0,0,.21-.06c.26-.17.29-.64.3-.73s0-.21,0-.31,0-.13,0-.2c0-.55,0-.7-.17-.79a.46.46,0,0,0-.5-.07c-.28.15-.27.55-.27.81,0,0,0,.05,0,.07A1.92,1.92,0,0,0,53.54,38.5Z"/><path class="cls-2" d="M53.54,41.1s0,.09,0,.11c0,.38.25.44.36.45h0c.2,0,.37-.19.44-.5a2,2,0,0,0,0-.44,2.12,2.12,0,0,1,0-.22,1.61,1.61,0,0,0,0-.5.47.47,0,0,1,0-.05.41.41,0,0,0-.32-.4.49.49,0,0,0-.5.15.69.69,0,0,0-.07.6,1.22,1.22,0,0,1,0,.18l0,0A.82.82,0,0,0,53.54,41.1Z"/><path class="cls-2" d="M54.49,42.94h0a1.41,1.41,0,0,1,0-.17c0-.26,0-.76-.47-.78a.44.44,0,0,0-.35.13,1,1,0,0,0-.14.79s0,.09,0,.12a2.72,2.72,0,0,0,0,.37l0,.15s0,0,0,.08,0,.38.22.48a.33.33,0,0,0,.14,0,.47.47,0,0,0,.28-.11.66.66,0,0,0,.22-.52.92.92,0,0,0,0-.17.52.52,0,0,1,0-.06l0-.08A.56.56,0,0,0,54.49,42.94Z"/><path class="cls-2" d="M54.22,44.49a.42.42,0,0,0-.53,0,.62.62,0,0,0-.14.59s0,0,0,.06a1.11,1.11,0,0,1,0,.14,1.71,1.71,0,0,0,0,.19,1.81,1.81,0,0,0,0,.32,1.92,1.92,0,0,1,0,.2v0c-.05.32.1.45.23.5l.13,0a.52.52,0,0,0,.45-.36,2.42,2.42,0,0,0,.06-.84A1,1,0,0,0,54.22,44.49Z"/><path class="cls-2" d="M54.23,46.94a.43.43,0,0,0-.48,0c-.27.16-.24.58-.22.86,0,0,0,.07,0,.09,0,.73.08,1,.32,1.12L54,49a.42.42,0,0,0,.32-.17,1,1,0,0,0,.17-.49,3.73,3.73,0,0,0,0-.53C54.49,47.69,54.53,47.14,54.23,46.94Z"/><path class="cls-2" d="M54.4,49.84a.58.58,0,0,0-.21-.43.44.44,0,0,0-.36-.05.48.48,0,0,0-.34.59.7.7,0,0,1,0,.08,1.3,1.3,0,0,1,0,.2,1.46,1.46,0,0,0,0,.38s0,.08,0,.15c0,.32,0,.42.05.5a.39.39,0,0,0,.35.23h.06c.32-.06.44-.5.45-.59a2.17,2.17,0,0,0,0-.25,1.76,1.76,0,0,1,0-.18l0-.07a.94.94,0,0,0,0-.56Z"/><path class="cls-2" d="M53.88,51.81a.46.46,0,0,0-.4.07.57.57,0,0,0-.17.48s0,.05,0,.07a1.93,1.93,0,0,1,0,.21,2,2,0,0,0,0,.38v.06c0,.51,0,.7.16.8a.4.4,0,0,0,.21.06.39.39,0,0,0,.16,0c.3-.13.39-.61.39-.61a.44.44,0,0,0,0-.19l0,0a.84.84,0,0,0,0-.14,1.37,1.37,0,0,0,0-.59A.49.49,0,0,0,53.88,51.81Z"/><path class="cls-2" d="M53,56.28a.34.34,0,0,0,.21.07.52.52,0,0,0,.22-.06.79.79,0,0,0,.35-.7s0-.09,0-.12l0-.09c.11-.39.2-.75,0-1a.37.37,0,0,0-.27-.16.5.5,0,0,0-.4.09.71.71,0,0,0-.21.55,1.06,1.06,0,0,1,0,.16,2.12,2.12,0,0,0-.08.57.91.91,0,0,1,0,.1C52.83,55.9,52.79,56.14,53,56.28Z"/><path class="cls-2" d="M52.59,58.72a.57.57,0,0,0,.2,0c.3-.11.37-.44.41-.64,0,0,0-.08,0-.1l0-.08c.18-.49.26-.82.13-1a.37.37,0,0,0-.28-.18h0c-.52-.05-.6.37-.63.56a1,1,0,0,1,0,.18,2,2,0,0,0-.11.48l0,.16,0,.08a.49.49,0,0,0,.07.53A.34.34,0,0,0,52.59,58.72Z"/><path class="cls-2" d="M51.68,61a.44.44,0,0,0,.18,0A.41.41,0,0,0,52,61c.24-.1.33-.4.4-.6l0-.06,0,0c.27-.61.34-.93.23-1.14a.36.36,0,0,0-.25-.18.52.52,0,0,0-.4,0,.72.72,0,0,0-.28.49.86.86,0,0,1,0,.14,1.91,1.91,0,0,0-.15.52.83.83,0,0,1,0,.11C51.48,60.49,51.36,60.88,51.68,61Z"/><path class="cls-2" d="M50.95,63.33H51c.34-.06.45-.41.51-.6l0-.1,0-.09c.2-.38.36-.74.25-1a.36.36,0,0,0-.24-.21h-.08a.43.43,0,0,0-.55.3,1.66,1.66,0,0,0-.08.21,1,1,0,0,1-.06.16,2.13,2.13,0,0,0-.16.48l0,.16,0,.07a.47.47,0,0,0,0,.49A.36.36,0,0,0,50.95,63.33Z"/><path class="cls-2" d="M49.87,65.52h.07a.72.72,0,0,0,.53-.49l.05-.1,0,0c.35-.53.46-.83.39-1a.36.36,0,0,0-.23-.23.54.54,0,0,0-.42,0A.67.67,0,0,0,50,64a1,1,0,0,1-.07.17,2.3,2.3,0,0,0-.24.47l0,.1c-.09.17-.2.4-.07.59A.37.37,0,0,0,49.87,65.52Z"/><path class="cls-2" d="M48.44,67.52h.06a.74.74,0,0,0,.56-.37l.07-.09c.57-.61.62-.86.59-1a.36.36,0,0,0-.19-.27h0a.54.54,0,0,0-.78.31.92.92,0,0,1-.1.16,1.94,1.94,0,0,0-.3.4l-.07.1c-.11.15-.26.35-.17.56A.39.39,0,0,0,48.44,67.52Z"/><path class="cls-2" d="M46.74,69.21h.07a1,1,0,0,0,.54-.33l.11-.1.09-.06a1,1,0,0,0,.31-.25.79.79,0,0,0,.26-.56.34.34,0,0,0-.12-.22.5.5,0,0,0-.37-.15.75.75,0,0,0-.51.32L47,68a2.33,2.33,0,0,0-.28.26l-.16.16,0,0a.44.44,0,0,0-.27.38.38.38,0,0,0,.13.29A.53.53,0,0,0,46.74,69.21Z"/><path class="cls-2" d="M44.44,70.43a.5.5,0,0,0,.21,0,1,1,0,0,0,.48-.16l.08,0,.06,0c.52-.22.85-.42.91-.68a.37.37,0,0,0-.06-.31.48.48,0,0,0-.31-.24.78.78,0,0,0-.61.21l-.13.09a2.77,2.77,0,0,0-.33.2l-.17.11-.06,0c-.13.07-.36.18-.35.42A.4.4,0,0,0,44.44,70.43Z"/><path class="cls-2" d="M48.81,83.39a.45.45,0,0,0-.39,0,.52.52,0,0,0-.22.4v0a5.87,5.87,0,0,0-.08.7v.11a2.1,2.1,0,0,0,0,.52.34.34,0,0,0,.2.3.36.36,0,0,0,.15,0,.55.55,0,0,0,.36-.15.78.78,0,0,0,.19-.42l0-.18a3,3,0,0,0,.08-.69V84C49.12,83.82,49.11,83.49,48.81,83.39Z"/><path class="cls-2" d="M48.54,85.83a.53.53,0,0,0-.4,0A.35.35,0,0,0,48,86a2.75,2.75,0,0,0-.15.93c0,.12,0,.24,0,.35v0c-.12.36.07.5.19.55a.4.4,0,0,0,.16,0c.13,0,.3-.08.44-.37a1.5,1.5,0,0,0,.14-.51,1.61,1.61,0,0,1,0-.22,1.84,1.84,0,0,0,.07-.48A.49.49,0,0,0,48.54,85.83Z"/><path class="cls-2" d="M48,88.23a.5.5,0,0,0-.4.07.7.7,0,0,0-.25.52,1,1,0,0,1,0,.16,2.07,2.07,0,0,0-.1.55,1,1,0,0,1,0,.11c0,.18-.09.43.09.58a.34.34,0,0,0,.23.08.53.53,0,0,0,.18,0c.31-.12.36-.46.39-.66,0,0,0-.07,0-.1l0-.09c.17-.49.24-.82.1-1A.36.36,0,0,0,48,88.23Z"/><path class="cls-2" d="M47.47,90.62a.51.51,0,0,0-.4.05.7.7,0,0,0-.27.49,1,1,0,0,1,0,.16,1.84,1.84,0,0,0-.11.48c0,.05,0,.11,0,.17l0,.07a.51.51,0,0,0,.06.54.34.34,0,0,0,.23.09.57.57,0,0,0,.2,0c.29-.11.37-.44.41-.64l0-.1,0-.08c.19-.48.28-.81.15-1A.36.36,0,0,0,47.47,90.62Z"/><path class="cls-2" d="M46.73,93h-.14c-.27,0-.36.09-.47.34,0,.06-.06.16-.09.25l0,.1a2,2,0,0,0-.17.51,1,1,0,0,1,0,.12.58.58,0,0,0,0,.58.36.36,0,0,0,.28.12h.1c.32-.06.42-.38.48-.55l0-.09,0-.07c.24-.52.36-.87.24-1.11A.36.36,0,0,0,46.73,93Z"/><path class="cls-2" d="M45.9,95.27a.52.52,0,0,0-.41,0,.69.69,0,0,0-.29.48.94.94,0,0,1-.05.16,2.1,2.1,0,0,0-.15.4c0,.07,0,.13-.07.21l0,.06a.48.48,0,0,0,0,.51.36.36,0,0,0,.3.13h.11c.33-.06.45-.38.51-.57l0-.11,0-.07c.25-.47.37-.79.26-1A.36.36,0,0,0,45.9,95.27Z"/><path class="cls-2" d="M44.9,97.51h0l-.05,0a.44.44,0,0,0-.55.08,1.09,1.09,0,0,0-.17.23l-.08.12c-.1.11-.2.24-.31.41l-.08.08c-.15.15-.34.33-.26.56a.4.4,0,0,0,.24.26l.13,0a.68.68,0,0,0,.34-.12l0,0c.18,0,.32-.19.5-.41l.07-.08s.47-.46.41-.82A.36.36,0,0,0,44.9,97.51Z"/><path class="cls-2" d="M55.48,84.74c.09.32.28.37.38.37h0c.27,0,.42-.36.44-.59a4,4,0,0,0,0-.79v-.08c0-.29,0-.49-.18-.6a.54.54,0,0,0-.69.1.38.38,0,0,0-.08.43A4.79,4.79,0,0,0,55.48,84.74Z"/><path class="cls-2" d="M56,85.43a.43.43,0,0,0-.41.05.53.53,0,0,0-.19.59.53.53,0,0,1,0,.07,1.35,1.35,0,0,1,0,.21,1.47,1.47,0,0,0,0,.39v.11c0,.41.05.54.16.64a.39.39,0,0,0,.25.1.37.37,0,0,0,.15,0,.87.87,0,0,0,.38-.66,2.24,2.24,0,0,0,0-.23,1.12,1.12,0,0,1,0-.22,1.57,1.57,0,0,0,0-.52A.65.65,0,0,0,56,85.43Z"/><path class="cls-2" d="M55.36,89.55c0,.37.22.44.34.45h0c.2,0,.37-.18.46-.48a2.32,2.32,0,0,0,.07-.45c0-.07,0-.15,0-.22a1.23,1.23,0,0,0,0-.54h0c0-.12,0-.33-.29-.42a.45.45,0,0,0-.52.18.83.83,0,0,0-.09.49s0,.08,0,.11,0,.24,0,.35a1.18,1.18,0,0,0,0,.42S55.36,89.52,55.36,89.55Z"/><path class="cls-2" d="M55.48,92.48h.07c.35-.08.5-.7.5-.7s0-.12,0-.17a1.87,1.87,0,0,1,0-.21,1.79,1.79,0,0,0,0-.4s0,0,0-.07a.53.53,0,0,0-.31-.56.45.45,0,0,0-.4,0,.54.54,0,0,0-.22.42c0,.23-.07.48-.08.71,0,.65,0,.79.1.86A.35.35,0,0,0,55.48,92.48Z"/><path class="cls-2" d="M54.79,94.57a.35.35,0,0,0,.18.28.36.36,0,0,0,.17,0,.53.53,0,0,0,.27-.08.71.71,0,0,0,.26-.45l0-.11a4.38,4.38,0,0,0,.11-.66V93.5a.85.85,0,0,0,0-.53.44.44,0,0,0-.42-.22.52.52,0,0,0-.44.3.93.93,0,0,0-.06.34,1.06,1.06,0,0,1,0,.11l0,.11c0,.08,0,.16,0,.24a1,1,0,0,0,0,.22s0,.06,0,.08a1.08,1.08,0,0,1,0,.11A.84.84,0,0,0,54.79,94.57Z"/><path class="cls-2" d="M54.72,97.33h0c.32,0,.58-.52.59-.61l0-.18a4.38,4.38,0,0,0,.1-.57c.05-.53-.1-.65-.15-.7a.43.43,0,0,0-.42-.09.58.58,0,0,0-.34.43,6.41,6.41,0,0,0-.12.71v.06a1.84,1.84,0,0,0,0,.68A.33.33,0,0,0,54.72,97.33Z"/><path class="cls-2" d="M54.22,99.73h0c.33,0,.6-.51.63-.59a.59.59,0,0,0,0-.2v0l0-.06A.8.8,0,0,0,55,98.7a2,2,0,0,0,.06-.38s0-.05,0-.08a.53.53,0,0,0-.27-.61.46.46,0,0,0-.4,0,.49.49,0,0,0-.22.37v.05l-.05.2a2.88,2.88,0,0,0-.1.49v.1a1.68,1.68,0,0,0,0,.6A.33.33,0,0,0,54.22,99.73Z"/><path class="cls-2" d="M53.54,102.09h0c.3,0,.59-.43.63-.53l.05-.18a1.73,1.73,0,0,1,.06-.2,2,2,0,0,0,.12-.41v-.06c0-.18.08-.51-.2-.66a.45.45,0,0,0-.4,0,.55.55,0,0,0-.29.38l0,.13a5.41,5.41,0,0,0-.16.55v0a2,2,0,0,0-.1.68A.33.33,0,0,0,53.54,102.09Z"/><path class="cls-2" d="M52.78,104.37a.61.61,0,0,0,.17,0,.65.65,0,0,0,.35-.33v0a1.12,1.12,0,0,0,.11-.28,1.19,1.19,0,0,1,0-.14l0-.07a.92.92,0,0,0,.15-.28c.11-.38.11-.6,0-.75a.43.43,0,0,0-.4-.17.57.57,0,0,0-.41.36c-.1.24-.17.42-.25.64l0,.08a2,2,0,0,0-.17.61.33.33,0,0,0,.11.28A.39.39,0,0,0,52.78,104.37Z"/><path class="cls-2" d="M51.38,106.43a.45.45,0,0,0,.29.11h.07a.86.86,0,0,0,.53-.39l.11-.19.11-.19a2.62,2.62,0,0,0,.2-.4c.19-.44,0-.64-.13-.71a.46.46,0,0,0-.39-.08.5.5,0,0,0-.3.32l0,.07-.11.18a2.63,2.63,0,0,0-.22.41l0,.08c-.2.45-.27.62-.15.77Z"/><path class="cls-2" d="M51.35,106.79a.46.46,0,0,0-.4-.12.55.55,0,0,0-.35.35l0,.07a1.23,1.23,0,0,1-.13.16,1.43,1.43,0,0,0-.24.32l-.06.1c-.16.29-.26.48-.21.65a.27.27,0,0,0,0,.09.4.4,0,0,0,.32.16h0c.5,0,1.08-1.1,1.09-1.11A.49.49,0,0,0,51.35,106.79Z"/><path class="cls-2" d="M49.59,108.62h0a.46.46,0,0,0-.34.2l0,0a1.16,1.16,0,0,0-.29.39l-.15.16c-.28.28-.53.53-.42.79l0,.06a.46.46,0,0,0,.35.19h0c.3,0,.57-.28.82-.56l.08-.09a1.24,1.24,0,0,0,.4-.69.42.42,0,0,0-.11-.31A.48.48,0,0,0,49.59,108.62Z"/><path class="cls-2" d="M48,110.39a.51.51,0,0,0-.42.15l-.15.12A4.91,4.91,0,0,0,47,111l-.06.05c-.32.29-.54.5-.43.73h0a.44.44,0,0,0,.27.22l.13,0a.86.86,0,0,0,.43-.14l0,0a3.2,3.2,0,0,0,.7-.53l0,0c.12-.13.35-.38.2-.67A.45.45,0,0,0,48,110.39Z"/><path class="cls-2" d="M46.11,111.84a.52.52,0,0,0-.6.12l-.05,0-.18.07a1.52,1.52,0,0,0-.33.14l-.07,0c-.35.19-.51.31-.56.48a.31.31,0,0,0,0,.21.42.42,0,0,0,.27.24l.17,0a3.14,3.14,0,0,0,1.27-.5.67.67,0,0,0,.3-.51A.43.43,0,0,0,46.11,111.84Z"/></g></g></svg>