<svg xmlns="http://www.w3.org/2000/svg" viewBox="0 0 46.55 22.22"><defs><style>.cls-1{fill:#71c0b3;}</style></defs><title>Cloud Back</title><g id="Layer_2" data-name="Layer 2"><g id="Logo"><path class="cls-1" d="M36.22,11.38c-2.8,0-5.74,0-8.29-1-3.27-1.32-4.56-3-9.23-3.1-1.57,0-3.07.26-4.62.32a53.55,53.55,0,0,1-5.81-.11.26.26,0,0,0-.15,0A.26.26,0,0,0,8,7.61a14.37,14.37,0,0,0-1.6,3.62c1.84.5,3.85-.2,5.75-.26a20.36,20.36,0,0,1,6.12.74,103.5,103.5,0,0,0,12.48,2.45,3.62,3.62,0,0,1,1.61.5.58.58,0,0,1,0,.89c-1.13,1.35-4.69,1.46-7.59,1.37-3.83-.11-7.73-.12-11.55-.34-3.22-.19-5.88-1.24-9-1.55,0,2.48-3.22,4.1-4.15,6.42-.1.24-.15.56.07.71a.76.76,0,0,0,.48.07c6.28-.45,12.53-.35,18.82-1,6.45-.68,12.93-1.49,19.44-1.34,2.38.05,5.49.54,7.64-.76-.33-1.07-1.6-2-2.37-2.75a10.79,10.79,0,0,1-1.65-2.73,4.49,4.49,0,0,0-2.15-2.28C39.1,10.84,37.55,11.35,36.22,11.38Z"/><path class="cls-1" d="M16.44,3.24a36,36,0,0,1,9,.92c1.91.51,3.7,1.35,5.61,1.85s3.5.19,5.32.44c1.07.14,1.53-.33,1-1.34L36.29,2.75c-.47-1-.5-2.88-1.93-2.74a11.1,11.1,0,0,0-1.25.31A24.66,24.66,0,0,1,27.9.39c-2.16,0-4.33,0-6.5,0-3.21,0-6.23.5-9.45.41a1.75,1.75,0,0,0-.52,0c-.72.2-.77,1.11-.67,1.8a.7.7,0,0,0,.22.5.84.84,0,0,0,.47.11C13.11,3.25,14.77,3.23,16.44,3.24Z"/></g></g></svg>