<svg xmlns="http://www.w3.org/2000/svg" viewBox="0 0 128.98 34.3"><defs><style>.cls-1{fill:#71c0b3;}</style></defs><title>Cloud-Front</title><g id="Layer_2" data-name="Layer 2"><g id="Logo"><path class="cls-1" d="M27.08,10.28c2.61.58,5.32.73,7.83,1.62s4.85,2.5,7.51,2.4a11.44,11.44,0,0,0,3.9-.72c1.53-.66,1.95-1.88,2.86-3.13A4.31,4.31,0,0,1,51.76,8.8a20.64,20.64,0,0,1,2.33-.17,3.13,3.13,0,0,0,2.1-.88,1.5,1.5,0,0,0,0-2.09,2.3,2.3,0,0,0-1.47-.33c-2.77,0-5.8.14-7.86,2a5,5,0,0,1-1.89,1.4c-1.64.41-2.89-1.58-4.53-2-1.24-.3-2.48.34-3.68.76C33.26,8.7,29.42,8.14,25.86,9,25.6,9.64,26.43,10.13,27.08,10.28Z"/><path class="cls-1" d="M124.61,24.4l-10.18,1.47a26,26,0,0,1-6.28.4c-2.32-.23-4-2.12-6.25-2.63-1.76-.41-3.39.22-5.15.59a13.74,13.74,0,0,0-4.16,2.13c-3,1.82-8.07,2.54-11.48,2.27-2-.16-11.35,1.3-10.29-2.83C71.55,23,77,23.41,79,23.22A8.47,8.47,0,0,0,84,21.3c1.08-1,1.67-2.45,2.59-3.61,2.59-3.28,5.7-.13,9-.06a66.82,66.82,0,0,1,7.33.77l16.43,2.17c2,.26,4.11.49,5.85-.48.32-.18-2.05-1.15-2.28-1.21-1.31-.33-2.6-.79-3.9-1.18q-3.9-1.16-7.84-2.15-8-2-16.17-3.29a29.45,29.45,0,0,1-4.54-.66,14,14,0,0,0-5-.9c-3.95.18-4.92,2.89-7.59,5-1.66,1.34-4,1.12-5.87,2a16.15,16.15,0,0,0-5.2,3.71c-2.11,2.41-3.74,3.75-7.1,4.1-8.24.87-8.76-4.08-.87-8.25S70.28,14.44,74.7,9s7.73-5.81,12.85-4.68c1.83.4,2.39-1,1.08-2.26A9.5,9.5,0,0,0,83.94.15a11.55,11.55,0,0,0-9.81,3C72.9,4.33,72,5.81,70.63,6.92c-2.26,1.89-4.89,1.67-7.52,2.39a28.49,28.49,0,0,1-4.64,1.08c-1.46.14-2.85-.08-4.22.65s-2.32,2.3-3.45,3.5a10,10,0,0,1-5.65,3c-1.46.23-3,.15-4.34.82a19.84,19.84,0,0,0-3,2.44,11.33,11.33,0,0,1-5.13,2c-1.51.26-2.83.89-4.35,1.07a78.66,78.66,0,0,0-8.95,1.32c-2.61.62-3.18,1.33-1.29,3.56a11.83,11.83,0,0,0,6.23,3.64c3.23.79,6.62.55,9.94.31a15.74,15.74,0,0,0,4.1-.67c4.37-1.54,8.56-.72,13.3-.79a82.31,82.31,0,0,1,19,2.06,34.44,34.44,0,0,0,5.36,1,22.58,22.58,0,0,0,4.59-.3,83.18,83.18,0,0,0,15-3.6A21.64,21.64,0,0,1,99.15,29a9.59,9.59,0,0,1,3.33.69,26.07,26.07,0,0,0,7.35,1.2,82.27,82.27,0,0,0,12.06-1.66,19.37,19.37,0,0,0,4.44-1.22,4.73,4.73,0,0,0,1.82-1.29C130.79,23.44,126.41,24.14,124.61,24.4Z"/><path class="cls-1" d="M13.48,20.66a13.49,13.49,0,0,1-2.83,0C6.35,20,.37,19,0,14.79a4.31,4.31,0,0,1,1.43-3.12C4,9,9,7.51,12.6,9.12c1.83.82,3.07,2.31,5,3a14.79,14.79,0,0,0,4.42.69l5.3.29c2.06.11,4.27.27,5.78,1.33a2.34,2.34,0,0,1,1,1.25c.34,1.33-1.28,2.56-2.91,3.13-2.58.89-5.44.85-8.15,1.13C19.83,20.29,16.65,20.44,13.48,20.66Z"/></g></g></svg>