<svg xmlns="http://www.w3.org/2000/svg" viewBox="0 0 324.39 19.03"><defs><style>.cls-1{fill:#ede9d5;}</style></defs><title>Coming-To-The-Arizona-Desert</title><g id="Layer_2" data-name="Layer 2"><g id="Text"><path class="cls-1" d="M8.58,14.66c0,2.49-1.49,4.28-4,4.28A4.51,4.51,0,0,1,0,14.45V4.84A4.61,4.61,0,0,1,4.56.36H8.23c0,1.42-1.3,4.78-1.38,6.08A.42.42,0,0,0,7,6.9V6.84a.63.63,0,1,1,1.25,0,1.16,1.16,0,0,1-.76,1,1.24,1.24,0,0,1-1.36-.26c-1.66-1.65.92-6.17-1.44-6.17-1.25,0-2,2-2,3.42v9.61c0,1.39.73,3.13,1.85,3.13,2.52,0,2.5-4.17,1.09-4.17C5.65,12.14,8.58,11.65,8.58,14.66Z"/><path class="cls-1" d="M20.36,4.84v9.61a4.64,4.64,0,0,1-4.42,4.49,4.54,4.54,0,0,1-4.42-4.49V4.84A4.51,4.51,0,0,1,16,.36h0A4.53,4.53,0,0,1,20.36,4.84Zm-2.74,0a3.55,3.55,0,0,0-1.68-3.07,3.55,3.55,0,0,0-1.68,3.07v9.61a3.55,3.55,0,0,0,1.68,3.07,3.55,3.55,0,0,0,1.68-3.07Z"/><path class="cls-1" d="M37.76,18.94H33.3a.37.37,0,0,1,.38-.43c.43,0,.46-2.05.46-2.23V6.2l-4,12.74L26,5.86V16.28s0,2.23.49,2.23.38.43.38.43H23.4a.37.37,0,0,1,.38-.43c.43,0,.46-2.11.46-2.23V3c0-.12,0-2.23-.46-2.23A.37.37,0,0,1,23.4.36H27l3.58,11.32L34.15.36h3.61a.37.37,0,0,1-.38.43c-.43,0-.49,2.11-.49,2.23V16.28c0,.12.05,2.23.49,2.23A.37.37,0,0,1,37.76,18.94Z"/><path class="cls-1" d="M45,18.94H40.58A.37.37,0,0,1,41,18.5c.43,0,.46-2.11.46-2.23V3c0-.12,0-2.23-.46-2.23a.37.37,0,0,1-.38-.43H45a.37.37,0,0,1-.38.43C44.19.79,44.16,3,44.16,3V16.28s0,2.23.49,2.23A.37.37,0,0,1,45,18.94Z"/><path class="cls-1" d="M58.14,18.94H54.53L50.4,5.86V16.25s0,2.26.49,2.26.38.43.38.43H47.79a.37.37,0,0,1,.38-.43c.43,0,.46-2.05.46-2.23V3c0-.17,0-2.23-.46-2.23a.37.37,0,0,1-.38-.43h3.61l3.12,9.93V3c0-.17,0-2.23-.46-2.23a.37.37,0,0,1-.38-.43h4.45a.37.37,0,0,1-.38.43c-.43,0-.49,2.08-.49,2.23V16.28c0,.12.05,2.23.49,2.23A.37.37,0,0,1,58.14,18.94Z"/><path class="cls-1" d="M69.54,18.3c-.68.72-3.85.64-3.85.64a4.51,4.51,0,0,1-4.56-4.49V4.84A4.51,4.51,0,0,1,65.68.36h3.66c0,1.42-1.3,4.78-1.38,6.08a.42.42,0,0,0,.19.46V6.84a.63.63,0,1,1,1.25,0,1.16,1.16,0,0,1-.76,1,1.24,1.24,0,0,1-1.36-.26c-1.66-1.65.92-6.17-1.44-6.17-1.25,0-2,2-2,3.42v9.61c0,3,1.87,3.13,2.82,3.13V15c0-.15,0-2.23-.49-2.23s-.35-.43-.35-.43H69.4C69,13.12,69.1,17.75,69.54,18.3Z"/><path class="cls-1" d="M90.35,6.84a1.29,1.29,0,0,1-.76,1,1.24,1.24,0,0,1-1.36-.26c-1.68-1.65,1.19-6.11-1.44-6.17h-.62V16.28c0,.12.05,2.23.49,2.23a.37.37,0,0,1,.38.43H82.59A.37.37,0,0,1,83,18.5c.43,0,.46-2.05.46-2.23V1.43h-.6c-2.63.06.22,4.52-1.44,6.17A1.24,1.24,0,0,1,80,7.85a1.27,1.27,0,0,1-.76-1,.66.66,0,0,1,.62-.69.68.68,0,0,1,.65.69s0,0,0,.06a.42.42,0,0,0,.19-.46c-.08-1.3-1.36-4.66-1.36-6.08H90.27c0,1.42-1.28,4.78-1.36,6.08a.46.46,0,0,0,.16.46V6.84a.68.68,0,0,1,.65-.69A.66.66,0,0,1,90.35,6.84Z"/><path class="cls-1" d="M101.89,4.84v9.61a4.64,4.64,0,0,1-4.42,4.49A4.54,4.54,0,0,1,93,14.45V4.84A4.51,4.51,0,0,1,97.49.36h0A4.53,4.53,0,0,1,101.89,4.84Zm-2.74,0a3.55,3.55,0,0,0-1.68-3.07,3.55,3.55,0,0,0-1.68,3.07v9.61a3.55,3.55,0,0,0,1.68,3.07,3.55,3.55,0,0,0,1.68-3.07Z"/><path class="cls-1" d="M122.73,6.84a1.29,1.29,0,0,1-.76,1,1.24,1.24,0,0,1-1.36-.26c-1.68-1.65,1.19-6.11-1.44-6.17h-.62V16.28c0,.12.05,2.23.49,2.23a.37.37,0,0,1,.38.43H115a.37.37,0,0,1,.38-.43c.43,0,.46-2.05.46-2.23V1.43h-.6c-2.63.06.22,4.52-1.44,6.17a1.24,1.24,0,0,1-1.36.26,1.27,1.27,0,0,1-.76-1,.66.66,0,0,1,.62-.69.68.68,0,0,1,.65.69s0,0,0,.06a.42.42,0,0,0,.19-.46c-.08-1.3-1.36-4.66-1.36-6.08h10.91c0,1.42-1.28,4.78-1.36,6.08a.46.46,0,0,0,.16.46V6.84a.68.68,0,0,1,.65-.69A.66.66,0,0,1,122.73,6.84Z"/><path class="cls-1" d="M135,13.27v3s0,2.23.49,2.23.35.43.35.43h-4.45s0-.43.38-.43.49-2.11.49-2.23V12.48C128.95,11.33,129,15,129,15v1.27s0,2.23.49,2.23a.37.37,0,0,1,.38.43h-4.45a.37.37,0,0,1,.38-.43c.43,0,.46-2.11.46-2.23V3c0-.12,0-2.23-.46-2.23a.37.37,0,0,1-.38-.43h4.45a.37.37,0,0,1-.38.43C129,.79,129,3,129,3v8.83l.41-.26a3.55,3.55,0,0,1,2.82-.29V3c0-.12,0-2.23-.49-2.23s-.38-.43-.38-.43h4.45s.05.43-.35.43S135,3,135,3V11.3a.63.63,0,0,0,.24-.78c1.85.09,1.44,2.43.05,2.72C135.16,13.24,135.05,13.27,135,13.27Z"/><path class="cls-1" d="M147.84,18.94H139a.37.37,0,0,1,.38-.43c.43,0,.46-2.05.46-2.23V3c0-.17,0-2.23-.46-2.23A.37.37,0,0,1,139,.36h8.6c0,1.42-1.28,4.78-1.36,6.08a.46.46,0,0,0,.16.46V6.84a.64.64,0,1,1,1.28,0,1.15,1.15,0,0,1-.76,1,1.23,1.23,0,0,1-1.36-.26c-1.68-1.65,1.19-6.11-1.44-6.17h-1.55V11.85c.27,0,2.09-.06,2.09-.52a.35.35,0,0,1,.41-.38v2.89a.35.35,0,0,1-.41-.38c0-.46-1.82-.52-2.09-.52v4.92h1.47c2.09-.09,2.5-3.71,2.5-4.63,0-1.27,1.25-.93,1.25-.93A12.27,12.27,0,0,0,147.84,18.94Z"/><path class="cls-1" d="M169.14,18.94h-4.42s-.14-.43.3-.43.14-2.11.11-2.23l-.3-1.79c-3-1.1-3.91.93-4.13,1.88-.08.43-.38,2.14,0,2.14s.3.43.3.43h-3.47a.49.49,0,0,1,.46-.43c.46,0,.95-2.11,1-2.23L161.81,3c0-.12.46-2.23,0-2.23s-.27-.43-.27-.43h4.53s.14.43-.3.43S165.67,3,165.67,3l1.66,10c.65-.49,0-1.33,0-1.33a1.63,1.63,0,0,1,.33,3.18l.24,1.45c0,.06.38,2.23.84,2.23S169.14,18.94,169.14,18.94Zm-4.56-5.85L163.2,4.73l-1.9,8.83A4.53,4.53,0,0,1,164.58,13.09Z"/><path class="cls-1" d="M183.26,18.94h-4.43s-.3-.43.11-.43-.73-2.11-.81-2.23c-1.11-2-1.66-2.89-2.52-2.89v2.89c0,.12.05,2.23.49,2.23a.37.37,0,0,1,.38.43H172a.37.37,0,0,1,.38-.43c.43,0,.46-2.05.46-2.23V3c0-.17,0-2.23-.46-2.23A.37.37,0,0,1,172,.36h4.89A6.32,6.32,0,0,1,183,6.93,6.62,6.62,0,0,1,179,13.12l1.82,3.16s1.3,2.23,1.76,2.23A.74.74,0,0,1,183.26,18.94Zm-3-12c0-3-2-5.47-4.45-5.47a.7.7,0,0,0-.24,0V12.37h.24C178.23,12.37,180.3,9.94,180.3,6.9Z"/><path class="cls-1" d="M190.47,18.94H186a.37.37,0,0,1,.38-.43c.43,0,.46-2.11.46-2.23V3c0-.12,0-2.23-.46-2.23A.37.37,0,0,1,186,.36h4.45a.37.37,0,0,1-.38.43c-.46,0-.49,2.26-.49,2.26V16.28s0,2.23.49,2.23A.37.37,0,0,1,190.47,18.94Z"/><path class="cls-1" d="M201.49,12.31a12.27,12.27,0,0,0,0,6.63h-8.25l5.67-17.51h-2c-2.63.06.22,4.52-1.44,6.17a1.24,1.24,0,0,1-1.36.26,1.13,1.13,0,0,1-.76-1,.63.63,0,1,1,1.25,0V6.9a.42.42,0,0,0,.19-.46c-.08-1.3-1.38-4.66-1.38-6.08H202l-5.67,17.51h1.41c2.09-.09,2.5-3.71,2.5-4.63C200.25,12,201.49,12.31,201.49,12.31Z"/><path class="cls-1" d="M213.79,4.84v9.61a4.64,4.64,0,0,1-4.42,4.49,4.54,4.54,0,0,1-4.42-4.49V4.84A4.51,4.51,0,0,1,209.39.36h0A4.53,4.53,0,0,1,213.79,4.84Zm-2.74,0a3.55,3.55,0,0,0-1.68-3.07,3.55,3.55,0,0,0-1.68,3.07v9.61a3.55,3.55,0,0,0,1.68,3.07A3.55,3.55,0,0,0,211,14.45Z"/><path class="cls-1" d="M227.12,18.94H223.5L219.38,5.86V16.25s0,2.26.49,2.26.38.43.38.43h-3.47a.37.37,0,0,1,.38-.43c.43,0,.46-2.05.46-2.23V3c0-.17,0-2.23-.46-2.23a.37.37,0,0,1-.38-.43h3.61l3.12,9.93V3c0-.17,0-2.23-.46-2.23a.37.37,0,0,1-.38-.43h4.45a.37.37,0,0,1-.38.43c-.43,0-.49,2.08-.49,2.23V16.28c0,.12.05,2.23.49,2.23A.37.37,0,0,1,227.12,18.94Z"/><path class="cls-1" d="M241.31,18.94h-4.42s-.14-.43.3-.43.14-2.11.11-2.23l-.3-1.79c-3-1.1-3.91.93-4.13,1.88-.08.43-.38,2.14,0,2.14s.3.43.3.43h-3.47a.49.49,0,0,1,.46-.43c.46,0,1-2.11,1-2.23L234,3c0-.12.46-2.23,0-2.23s-.27-.43-.27-.43h4.53s.14.43-.3.43S237.83,3,237.83,3l1.66,10c.65-.49,0-1.33,0-1.33a1.63,1.63,0,0,1,.33,3.18l.24,1.45c0,.06.38,2.23.84,2.23S241.31,18.94,241.31,18.94Zm-4.56-5.85-1.38-8.37-1.9,8.83A4.53,4.53,0,0,1,236.75,13.09Z"/><path class="cls-1" d="M261.42,4.84v9.61a4.51,4.51,0,0,1-4.56,4.49h-5.62a.37.37,0,0,1,.38-.43c.43,0,.46-2.11.46-2.23V3c0-.12,0-2.23-.46-2.23a.37.37,0,0,1-.38-.43h5.62A4.51,4.51,0,0,1,261.42,4.84Zm-2.71,0a3.35,3.35,0,0,0-3.2-3.47,2.59,2.59,0,0,0-.68.09V17.84a2.59,2.59,0,0,0,.68.09,3.35,3.35,0,0,0,3.2-3.47Z"/><path class="cls-1" d="M273.17,18.94h-8.79a.37.37,0,0,1,.38-.43c.43,0,.46-2.05.46-2.23V3c0-.17,0-2.23-.46-2.23a.37.37,0,0,1-.38-.43H273c0,1.42-1.28,4.78-1.36,6.08a.46.46,0,0,0,.16.46V6.84a.64.64,0,1,1,1.28,0,1.15,1.15,0,0,1-.76,1,1.23,1.23,0,0,1-1.36-.26c-1.68-1.65,1.19-6.11-1.44-6.17H268V11.85c.27,0,2.09-.06,2.09-.52a.35.35,0,0,1,.41-.38v2.89a.35.35,0,0,1-.41-.38c0-.46-1.82-.52-2.09-.52v4.92h1.47c2.09-.09,2.5-3.71,2.5-4.63,0-1.27,1.25-.93,1.25-.93A12.27,12.27,0,0,0,273.17,18.94Z"/><path class="cls-1" d="M284.79,14.25A4.42,4.42,0,0,1,280,19a4,4,0,0,1-4-4.28c0-3.53,3.31-3.1,3.31-1.33-1.38,0-1.52,4.25.65,4.25,1.09,0,2.06-1.56,2.06-3.42,0-5.24-5.78-4.83-5.78-9.64A4.19,4.19,0,0,1,280.07.1a11.18,11.18,0,0,1,4.13.26c0,1.42-1.28,4.78-1.36,6.08a.42.42,0,0,0,.19.46s0,0,0-.06a.68.68,0,0,1,.65-.69.66.66,0,0,1,.62.69,1.12,1.12,0,0,1-.76,1,1.24,1.24,0,0,1-1.36-.26c-1.68-1.65,1.55-6.17-1.6-6.17-1.25,0-1.57,1.3-1.57,3.18C279,8.11,284.79,8.75,284.79,14.25Z"/><path class="cls-1" d="M296.4,18.94h-8.79a.37.37,0,0,1,.38-.43c.43,0,.46-2.05.46-2.23V3c0-.17,0-2.23-.46-2.23a.37.37,0,0,1-.38-.43h8.61c0,1.42-1.28,4.78-1.36,6.08a.46.46,0,0,0,.16.46V6.84a.64.64,0,1,1,1.28,0,1.15,1.15,0,0,1-.76,1,1.23,1.23,0,0,1-1.36-.26c-1.68-1.65,1.19-6.11-1.44-6.17h-1.55V11.85c.27,0,2.09-.06,2.09-.52a.35.35,0,0,1,.41-.38v2.89a.35.35,0,0,1-.41-.38c0-.46-1.82-.52-2.09-.52v4.92h1.47c2.09-.09,2.5-3.71,2.5-4.63,0-1.27,1.25-.93,1.25-.93A12.27,12.27,0,0,0,296.4,18.94Z"/><path class="cls-1" d="M310.65,18.94h-4.42s-.3-.43.11-.43-.73-2.11-.81-2.23c-1.11-2-1.66-2.89-2.52-2.89v2.89c0,.12.05,2.23.49,2.23a.37.37,0,0,1,.38.43h-4.45a.37.37,0,0,1,.38-.43c.43,0,.46-2.05.46-2.23V3c0-.17,0-2.23-.46-2.23a.37.37,0,0,1-.38-.43h4.89a6.32,6.32,0,0,1,6.08,6.57,6.62,6.62,0,0,1-3.94,6.19l1.82,3.16s1.3,2.23,1.76,2.23A.74.74,0,0,1,310.65,18.94Zm-3-12c0-3-2-5.47-4.45-5.47a.7.7,0,0,0-.24,0V12.37h.24C305.63,12.37,307.7,9.94,307.7,6.9Z"/><path class="cls-1" d="M324.39,6.84a1.29,1.29,0,0,1-.76,1,1.24,1.24,0,0,1-1.36-.26c-1.68-1.65,1.19-6.11-1.44-6.17h-.62V16.28c0,.12.05,2.23.49,2.23a.37.37,0,0,1,.38.43h-4.45a.37.37,0,0,1,.38-.43c.43,0,.46-2.05.46-2.23V1.43h-.6c-2.63.06.22,4.52-1.44,6.17a1.24,1.24,0,0,1-1.36.26,1.27,1.27,0,0,1-.76-1,.66.66,0,0,1,.62-.69.68.68,0,0,1,.65.69s0,0,0,.06a.42.42,0,0,0,.19-.46c-.08-1.3-1.36-4.66-1.36-6.08h10.91c0,1.42-1.28,4.78-1.36,6.08a.46.46,0,0,0,.16.46V6.84a.68.68,0,0,1,.65-.69A.66.66,0,0,1,324.39,6.84Z"/></g></g></svg>