<svg xmlns="http://www.w3.org/2000/svg" viewBox="0 0 123.27 23.54"><defs><style>.cls-1{fill:#111639;}</style></defs><title>Get-Down</title><g id="Layer_2" data-name="Layer 2"><g id="Logo"><path class="cls-1" d="M15.29.3h.1a.14.14,0,0,1,.1,0,.1.1,0,0,0,.07,0,2.06,2.06,0,0,0,.53.27,5.14,5.14,0,0,1,.56.24l.27.07a.76.76,0,0,1,.27.14l.3.14a.45.45,0,0,1,.2.2,2.42,2.42,0,0,1,.05.27.34.34,0,0,0,.19.24.36.36,0,0,0,0,.32.53.53,0,0,1,.05.36,1.35,1.35,0,0,1,0,.68,4.57,4.57,0,0,1-.24.58V4a.37.37,0,0,0,0,.19.76.76,0,0,1,0,.15.18.18,0,0,1-.08.14.41.41,0,0,0-.12.14.1.1,0,0,0,0,.1.19.19,0,0,1,0,.14l-.1.27a4.59,4.59,0,0,0-.24.47,1.29,1.29,0,0,1-.27.41c0,.09,0,.15,0,.17l-.1.1a4,4,0,0,1-.37.66L16,7.53a.44.44,0,0,0-.1.15,1.09,1.09,0,0,1-.1.19,1.75,1.75,0,0,1-.29.29,1.06,1.06,0,0,0-.25.29l-.3.34a.1.1,0,0,1,0,.07L14.84,9l-.07,0-.07,0-.07.24a.76.76,0,0,1-.14.17,1.4,1.4,0,0,1-.2.17.14.14,0,0,0-.1,0s-.06,0-.1,0q-.07.2-.44.36t-.54-.08a.2.2,0,0,1,0-.14.11.11,0,0,0-.12,0,.21.21,0,0,1-.12,0s-.07,0-.14-.1a.74.74,0,0,0-.41.05,1,1,0,0,1-.37.08.65.65,0,0,1-.41-.1.32.32,0,0,0,0-.25,1.34,1.34,0,0,1,0-.29l.1-.2.12-.12a.26.26,0,0,0,.05-.19.16.16,0,0,0,.08-.12A.3.3,0,0,1,12,8.41h.14a10.43,10.43,0,0,1,.85-1.36,7.23,7.23,0,0,0,.81-1.42L14,5.12l.12-.24a1.11,1.11,0,0,0,.08-.27,3.16,3.16,0,0,0-.91.44,1.61,1.61,0,0,1-.44.24,1.3,1.3,0,0,1-.41.27,3,3,0,0,0-.42.29c-.12.1-.24.21-.36.32l-.39.27a1.89,1.89,0,0,1-.46.24l-.36.47a1,1,0,0,1-.49.34s0,.07,0,.07,0,0,0,.07a3.53,3.53,0,0,0-.71.71q-.31.41-.61.78a.52.52,0,0,1-.17.2.51.51,0,0,0-.17.2,2.94,2.94,0,0,1-.56.49,1.46,1.46,0,0,0-.49.56,2.21,2.21,0,0,0-.44.63q-.17.36-.34.66l-.17.34a.63.63,0,0,1-.14.15L6,12.47a1.37,1.37,0,0,1-.19.32l-.22.29a2,2,0,0,0-.22.34l-.19.34-.34.68-.34.7a3.94,3.94,0,0,0-.27.76,2.73,2.73,0,0,0-.12.92,2,2,0,0,0,.19.81.74.74,0,0,0,.2.39l.27.22a3.45,3.45,0,0,0,.78.27,2.06,2.06,0,0,0,.92-.17,1.29,1.29,0,0,1,.41-.07,1.16,1.16,0,0,0,.58-.2L8,17.69a.31.31,0,0,1,.14-.09.3.3,0,0,0,.14-.08l.17-.12.13-.09a.27.27,0,0,0,.17,0l.41-.34,1.15-.81.2-.14a.15.15,0,0,0,.08-.08.35.35,0,0,1,.09-.12l.24-.1.22-.15.19-.15a3.07,3.07,0,0,0,.3-.36,1.62,1.62,0,0,1,.3-.32l.19-.14a.72.72,0,0,0,.15-.17c-.09,0-.1-.06,0-.05s.14-.1.19-.32v0l-.1.07-.1.1a.46.46,0,0,1-.24.1l-.31.07-.54.19-.54.19a.8.8,0,0,1-.37.13.64.64,0,0,1-.37,0,.8.8,0,0,1-.22-.36.31.31,0,0,0-.29-.22,2,2,0,0,1-.1-1,1,1,0,0,1,.41-.8v.07a.15.15,0,0,0,.08-.08s0-.05.08-.05H10a3.15,3.15,0,0,0,.85-.31h.1A.2.2,0,0,1,11,12s.08-.07.1-.07a.3.3,0,0,1,.15-.08.89.89,0,0,0,.22-.09,1.21,1.21,0,0,0,.27-.1.76.76,0,0,1,.34-.07l.29,0a1.1,1.1,0,0,0,.32-.07.64.64,0,0,0,.2,0l.24-.07.54-.12.54-.12L15.34,11l1.07-.25.53-.14a4,4,0,0,1,.53-.1l.29-.05.29,0c.11,0,.15,0,.1,0s0,0,0-.05l1.05-.2a2,2,0,0,1,1,.07c.18,0,.27.07.27.2v.07a1.45,1.45,0,0,1-.46.14.71.71,0,0,0-.42.2l-.07.14q0,.17.07.22a.15.15,0,0,1,.07.12s.06.09,0,.12a.21.21,0,0,0,0,.12.8.8,0,0,0-.05.37.32.32,0,0,1-.12.3.29.29,0,0,0-.22.08.26.26,0,0,1-.19.09,2,2,0,0,1-.47.07l-.46.1a3.37,3.37,0,0,1-.46.1s-.07,0-.14,0l-.17,0a.56.56,0,0,1-.24,0v.07a.31.31,0,0,1-.17.17.44.44,0,0,0-.17.1.2.2,0,0,1,0,.14.05.05,0,0,1-.05,0s0,0-.05,0c-.11.18-.25.38-.41.59s-.29.41-.41.59a2.21,2.21,0,0,1-.2.47q-.14.24-.24.44l-.14.19a.34.34,0,0,0-.07.22q-.1.2-.24.42t-.3.46q-.07.2-.15.41a2.4,2.4,0,0,1-.22.41s0,.07,0,.07,0,0,0,0-.12.11-.17.27a.11.11,0,0,0,.12-.1c0-.07,0-.1.08-.1a.75.75,0,0,1-.1.27,1.52,1.52,0,0,0-.14.27l-.15.19a.85.85,0,0,0-.12.22.47.47,0,0,1,0,.2.32.32,0,0,1-.17.2l-.2.24-.1.2-.1.24a.28.28,0,0,0,0,.24.2.2,0,0,1,0,.2.2.2,0,0,0-.07.14.39.39,0,0,0-.07.22.25.25,0,0,1-.07.19l-.12.1s-.05,0-.05,0a.31.31,0,0,0,0,.14.32.32,0,0,1,0-.29.47.47,0,0,1,.2-.19l0,0s.06,0,0,0,0,0,0,0a4.51,4.51,0,0,1,.14-.46c0-.12.09-.28.14-.46a1.81,1.81,0,0,0,.24-.41,4.62,4.62,0,0,1,.24-.47.06.06,0,0,0,.07-.07.14.14,0,0,0,0-.1.11.11,0,0,1,.05-.1s0-.06,0-.1-.1,0-.1.13l-.13.25a.75.75,0,0,1-.2.22.68.68,0,0,1-.24.47.3.3,0,0,0,0,.14s0,.07,0,.07a.05.05,0,0,1-.07,0s0,0,0,0a.82.82,0,0,1-.08.25l-.12.22s0,0,.05,0,0,0,.05,0,0,0-.1,0,.06.07,0,.07a0,0,0,0,0,0,0s0,0,.05,0,0,0,0,0,0,0-.07,0a.14.14,0,0,1-.1,0,1.58,1.58,0,0,0,.22-.58,2.5,2.5,0,0,1,.19-.61c-.09,0-.14,0-.14-.07a.21.21,0,0,0-.05.19.18.18,0,0,1-.08.19c0,.16,0,.27-.07.32a.46.46,0,0,0-.1.36.92.92,0,0,0-.15.36,1.3,1.3,0,0,1-.19.42,1.36,1.36,0,0,1-.19.41,1.68,1.68,0,0,0-.19.34c0-.09,0-.14,0-.14s-.18,0-.19.12,0,.12-.09.12a3,3,0,0,1,.37-.8,3.85,3.85,0,0,0,.41-.83c.07,0,.1-.06.1-.12a.34.34,0,0,1,0-.15l0-.07v-.17l-.15.29-.19.32c0,.09-.09.19-.14.3a2.33,2.33,0,0,1-.17.34v-.1a1.82,1.82,0,0,0-.36.63,2.18,2.18,0,0,1-.32.63.48.48,0,0,1,0-.2.06.06,0,0,0,.07-.07.27.27,0,0,0,0-.17c.09-.18.19-.36.29-.54a3.28,3.28,0,0,0,.25-.58s0,0,0,.13l.61-1.32a.31.31,0,0,0-.2.24.4.4,0,0,1-.2.27l0,0-.22.39q-.19.32-.69,1.14a.15.15,0,0,0-.08.09l-.05.12a0,0,0,0,0,0,0,.36.36,0,0,1,0,.12s0,0-.08,0,0,0,0,0,0,0,0,0l-.1.24-.1.24s0,0,.1,0,.1,0,.1,0,0,0,0,0,0,0,0,0l-.13.36a1.33,1.33,0,0,0-.07.46.46.46,0,0,0-.1.15.21.21,0,0,1-.14.12.45.45,0,0,0,.07-.25.3.3,0,0,1,.07-.22c0-.09-.09-.14-.14-.14a.57.57,0,0,1-.15.37.68.68,0,0,0-.19.27h-.1s0,.06,0,.17a.27.27,0,0,1-.17.1.07.07,0,0,1,0-.05.07.07,0,0,0,0-.05.18.18,0,0,0-.17.19.31.31,0,0,1-.07.22c-.09,0-.14.06-.14,0a.14.14,0,0,1-.14-.07s-.08,0-.17,0l-.1-.14-.1-.1a1.37,1.37,0,0,1-.1-.54,1.6,1.6,0,0,1,.14-.58,5.74,5.74,0,0,1,.39-1q.29-.61.63-1.27c.23-.44.45-.86.66-1.25s.38-.71.49-.93q-.68.78-1.2,1.3a9,9,0,0,1-1.2,1A.1.1,0,0,0,9,20a.42.42,0,0,0-.17.1.53.53,0,0,1-.14.1l-.64.27-.34.2a.14.14,0,0,1-.14,0,.14.14,0,0,0-.14,0,.16.16,0,0,0-.08.09s-.05.05-.12.05H7l-.14.1a1.06,1.06,0,0,1-.46.17,1.35,1.35,0,0,0-.49.17.14.14,0,0,1,0-.09s0,0,0-.08a.37.37,0,0,1-.25.05.5.5,0,0,0-.29.05.1.1,0,0,1,0-.07,0,0,0,0,1,0,0s-.08,0-.12.1-.07.1-.12.1,0,0,0-.05a.06.06,0,0,0,0-.05l-.47.27a1.15,1.15,0,0,1-.58.13l-.36-.07a.64.64,0,0,0-.36,0s-.07,0-.14,0l-.17,0a.07.07,0,0,0,0-.05.07.07,0,0,1,0-.05v-.07a4.06,4.06,0,0,1-1.36-.25,2.19,2.19,0,0,1-.92-.7A4,4,0,0,1,0,18v-.44l.14-1.14a10.54,10.54,0,0,1,.2-1.14c0-.18.08-.35.12-.51a2.16,2.16,0,0,1,.19-.51,2.66,2.66,0,0,1,.17-.44A2.52,2.52,0,0,0,1,13.36a3,3,0,0,1,.24-.49q.14-.22.24-.42l.95-1.63q.13-.2.27-.37c.09-.11.18-.24.27-.37l.54-.76q.27-.39.58-.76c.18-.25.36-.49.54-.71l.58-.71a9,9,0,0,1,.58-.71q.3-.34.68-.68l.34-.3L7.17,5a2.6,2.6,0,0,0,.36-.46.15.15,0,0,0,.08-.08.16.16,0,0,1,.08-.08s0-.07.07-.07a.1.1,0,0,0,.07,0,.68.68,0,0,0,.27-.19,1,1,0,0,1,.2-.19l.3-.29.27-.22A7.25,7.25,0,0,1,9.56,3l.71-.39.1-.14a.68.68,0,0,1,.22-.15.41.41,0,0,0,.19-.15.2.2,0,0,0,.14,0l.2-.15.17-.15a3.22,3.22,0,0,1,.44-.42,1.94,1.94,0,0,1,.51-.29l.3-.1.27-.07a.88.88,0,0,0,.2-.1,1.27,1.27,0,0,0,.22-.14.57.57,0,0,1,.22-.1.62.62,0,0,1,.3-.05.93.93,0,0,0,.31,0,.6.6,0,0,0,.27-.07.74.74,0,0,1,.24-.14.45.45,0,0,0,.24,0s0,0,0,0,0,0,.05,0ZM11,21.05l-.07.2-.1.24s-.06.08-.05.1a.23.23,0,0,1,0,.1l.07-.07a1.3,1.3,0,0,0,.05-.22.52.52,0,0,1,.08-.22s0-.09.1-.14Zm-.17.88a.07.07,0,0,1,0,.05.07.07,0,0,0,0,.05c.07,0,.08,0,0-.14Zm1.9-3.19a.2.2,0,0,0,.14-.14A.12.12,0,0,0,12.78,18.75Zm.17.17c-.09,0-.13.07-.13.14A.12.12,0,0,0,12.95,18.92Zm.24-.58a.14.14,0,0,0,.1,0,.19.19,0,0,1,.07-.13h-.07a0,0,0,0,1,0,0S13.21,18.29,13.18,18.34Zm.64-1.19s0,.06-.07.1l0,0a.93.93,0,0,0-.24.34.61.61,0,0,0-.05.19.19.19,0,0,1-.09.15l-.07.07a.12.12,0,0,0,0,.09.12.12,0,0,1,0,.08.45.45,0,0,0,.29-.29,1.53,1.53,0,0,1,.19-.36.11.11,0,0,0,.07-.1.26.26,0,0,0,0-.1s0,0,.07,0a.21.21,0,0,1,.05-.15A.21.21,0,0,0,14,17h0C14,17.11,13.94,17.15,13.83,17.15Z"/><path class="cls-1" d="M17.25,20.41a.31.31,0,0,1-.29-.2.77.77,0,0,1,0-.36,2.93,2.93,0,0,1,.1-.39,3,3,0,0,0,.1-.37q.14-.37.25-.75a7.1,7.1,0,0,1,.29-.75,1.34,1.34,0,0,1,.12-.37,2.75,2.75,0,0,0,.15-.37q.47-1.42,1.05-2.75t1.22-2.51a1.17,1.17,0,0,1,.07-.17.51.51,0,0,1,.1-.14,4.09,4.09,0,0,0,.19-.44,1.42,1.42,0,0,1,.25-.44Q21.52,9.19,22.27,8l1.49-2.42.75-1.29q.37-.64.75-1.32a1.41,1.41,0,0,1,.34-.75l.58-.64a.49.49,0,0,0,.29-.08.29.29,0,0,1,.25-.05.52.52,0,0,1,.2.07.82.82,0,0,1,.2.14,2.55,2.55,0,0,1,.47.46l.44.53q1.83-.34,3.58-.7a20.63,20.63,0,0,1,3.78-.39,3,3,0,0,1,.56,0l.59.05a.73.73,0,0,0,.19.15s.09.07.15.19a.48.48,0,0,0-.19.22,1,1,0,0,0,.05.36c-.11,0-.18,0-.19.1a1.41,1.41,0,0,0,0,.24.19.19,0,0,1-.14,0,.08.08,0,0,0-.1.05,1.32,1.32,0,0,0-.08.41.62.62,0,0,1-.19.41c0,.16,0,.25,0,.29a.4.4,0,0,0-.17.22.25.25,0,0,0-.14.08s-.08.05-.17.05a2.47,2.47,0,0,1-.93.46A9.07,9.07,0,0,1,33.52,5l-.25.08a.72.72,0,0,1-.29.05h-.34l-.41.07a2.69,2.69,0,0,0-.41.1c-.36.07-.7.14-1,.22s-.63.18-.95.29l-.37.12L29.11,6a5.18,5.18,0,0,1-.85.2.6.6,0,0,0-.54.47.16.16,0,0,0-.08.08.08.08,0,0,1-.08.05,4.43,4.43,0,0,1-.83,1.39,8.39,8.39,0,0,0-.93,1.29q1.15-.27,2.42-.47t2.63-.37l1.37-.12a4.3,4.3,0,0,1,1.37.12c0,.09,0,.15.05.17a.11.11,0,0,1,.05.1s-.08.06-.12,0a.22.22,0,0,0-.12,0,1,1,0,0,0-.29.17,1.22,1.22,0,0,1-.25.17s-.07,0-.07,0,0,0-.07.07h-.1a1.19,1.19,0,0,0-.22.2.29.29,0,0,0-.09.27h.42a1.22,1.22,0,0,0,.39-.07s-.09.07-.2.07v.47l-.24.05c-.09,0-.12.05-.1.12a.41.41,0,0,1-.24.07.75.75,0,0,0-.24,0,.13.13,0,0,0,.08.13.13.13,0,0,1,.08.14,3,3,0,0,1-.58.15,2.05,2.05,0,0,0-.58.19.14.14,0,0,0,0,.08s0,0,0,.08a1.8,1.8,0,0,0-.59,0l-.66.13A3,3,0,0,0,28.5,12l-.81.32a6.14,6.14,0,0,1-.88.25l-.64.15a4,4,0,0,1-.58.12h-.53l-.59,0h-.29a.81.81,0,0,0-.29.07,4.34,4.34,0,0,0-.46.7L23,14.3a5.38,5.38,0,0,0-.3.56q-.14.29-.24.56-.2.47-.37,1t-.37,1c0,.11,0,.19,0,.24s.07.14,0,.27a1.74,1.74,0,0,1,.47-.05,1.15,1.15,0,0,0,.44-.08l.64-.2L25,16.95a.2.2,0,0,0,.14-.07q.81-.24,1.69-.54l1.8-.61,1.08-.36L30.84,15l.39-.1.46-.1,1.32-.2a4,4,0,0,1,.56,0c.21,0,.31.11.29.34a.11.11,0,0,1-.07.1s0,.07,0,.14a.35.35,0,0,0-.2,0s.06.05.12,0,.1,0,.12,0,0,.07,0,.07l-.12,0h.2a.11.11,0,0,1-.1.07.19.19,0,0,0-.13.07s-.12-.07-.31-.07c0,.11,0,.17.1.17a.23.23,0,0,0,.17-.07.26.26,0,0,0,.3.07c.07,0,.08,0,0,0s0,0,0,.05h.17a.18.18,0,0,1,0,.15.21.21,0,0,0,0,.12.52.52,0,0,0-.36.19.46.46,0,0,1-.39.15.15.15,0,0,0,.07.12.17.17,0,0,0,.17,0l-.08.05a.15.15,0,0,0-.08.08s0,.06.07,0,.07,0,.07,0a.6.6,0,0,0-.37.1c0,.07.12.08.24.05s.19,0,.24,0a.27.27,0,0,1-.2.12l-.27.05-.51.15-.41.15a6.77,6.77,0,0,0-.68.22l-.58.25a.18.18,0,0,0,.17,0,.26.26,0,0,1,.2,0,.25.25,0,0,1-.19.07.69.69,0,0,0-.22,0s-.06,0,0,0h0a2.07,2.07,0,0,0-.64.17l-.58.27a.27.27,0,0,0,.3-.05.4.4,0,0,1,.34-.09h0s-.05,0-.05,0a.27.27,0,0,0,.19,0,.6.6,0,0,1,.22,0,1.4,1.4,0,0,1-.46.25l-.53.15s0,.06.08,0,.08,0,.08,0a.23.23,0,0,1-.2.05.37.37,0,0,0-.2,0c-.18,0-.38.11-.61.19l-.64.22-.24.12-.2.12.27-.07L28.2,19s.08,0,.1,0a.7.7,0,0,1-.24.14l-.24.1s-.07,0-.07,0a0,0,0,0,0,0,0,.6.6,0,0,1-.44.17.55.55,0,0,0-.44.2.57.57,0,0,0-.32.1l-.32.2a2.74,2.74,0,0,0-.63.2l-.59.3-.25.14-.32.14-.85.37-.46.12a2.69,2.69,0,0,0-.46.15l-.66.29-.66.29a4.4,4.4,0,0,1-.81.14,1.63,1.63,0,0,1-.81-.14.61.61,0,0,1-.19-.1.34.34,0,0,0-.22-.07,1.05,1.05,0,0,0-.39-.07.28.28,0,0,1-.29-.2A1.32,1.32,0,0,1,17.25,20.41Zm11.39-1.73s0,.06.05,0l.08-.07-.05,0Zm.27-.14a.31.31,0,0,1,.17-.08.17.17,0,0,0,.14-.09.31.31,0,0,0-.22,0C28.91,18.42,28.89,18.47,28.91,18.54Zm0,.07.17-.05c.07,0,.1,0,.1-.08a.21.21,0,0,1-.15.07A.12.12,0,0,0,28.94,18.61Zm1.12-.34s.09,0,.14-.1a.1.1,0,0,1-.07,0S30.08,18.23,30.06,18.27Z"/><path class="cls-1" d="M51.28,2.37s0,.06,0,0,.07,0,.07,0a.56.56,0,0,0,.27,0,.14.14,0,0,1-.14.05.19.19,0,0,0-.14,0c0,.11,0,.15.1.1s.09,0,.07,0a.14.14,0,0,1-.08.19l-.19.08s.06,0,.1,0l.15-.1.15-.07s.07,0,.07.05a.33.33,0,0,1-.12.08.34.34,0,0,0-.12.08c0,.07,0,.09.05.07s.06,0,0,.07.07,0,.08,0,0,0,.05,0a.07.07,0,0,1-.08,0s-.06,0-.08.05,0,.07.07.07a.1.1,0,0,1,.07,0c-.14.09-.17.17-.1.24a.77.77,0,0,1-.22.1.42.42,0,0,0-.19.1s0,.07,0,.07.05,0,.05.07-.14.1-.09.15.07.11.05.15a.47.47,0,0,1-.12.19l-.15.15a.62.62,0,0,1-.36.17,2.82,2.82,0,0,1-.42,0l-.41.08a1.59,1.59,0,0,1-.37.05c-.07,0-.1,0-.1.07a.77.77,0,0,0-.47,0,1.4,1.4,0,0,1-.47.08,2.81,2.81,0,0,1-.54.1c.07,0,.1,0,.1.05s-.19.11-.58.22a.54.54,0,0,0-.36.05l-.32.15a3.39,3.39,0,0,0-.07.56,1.1,1.1,0,0,1-.17.49.57.57,0,0,0-.24.27,2.14,2.14,0,0,1-.27.41.11.11,0,0,1-.09,0s-.05,0-.05,0a.45.45,0,0,0-.14.37.55.55,0,0,1-.13.41,2.71,2.71,0,0,0-.19.37,2.83,2.83,0,0,1-.19.37,1.5,1.5,0,0,0-.14.2l-.1.24-.3.27a.39.39,0,0,0-.07.22.57.57,0,0,1-.07.25l-.17.14a6.53,6.53,0,0,0-.36.78l-.39,1-.41,1-.34.83-.15.39-.15.39-.3.75a8.31,8.31,0,0,0-.27.81q-.3.78-.7,1.63a12.89,12.89,0,0,0-.63,1.63h-.12l-.08,0a2.93,2.93,0,0,0-.34.71q-.14.41-.29.8a4.41,4.41,0,0,1-.34.69,1.06,1.06,0,0,1-.53.44.19.19,0,0,0-.17,0q-.1.05-.17-.08a.05.05,0,0,0-.05,0,.18.18,0,0,1-.08.07c0-.14-.12-.15-.24,0L38,21.92a.14.14,0,0,0-.09-.05l-.34.09a.35.35,0,0,0-.24.22c-.23,0-.33,0-.32.05s-.05.14-.19.32a1.56,1.56,0,0,1-.29.17.58.58,0,0,1-.39,0,2.68,2.68,0,0,1-.08-.29.49.49,0,0,1,0-.19,1.22,1.22,0,0,1,.07-.24,4.09,4.09,0,0,0,.12-.41,16.58,16.58,0,0,1,.47-1.9l.58-1.86q.34-1.29.86-2.78t1.14-3q.61-1.51,1.22-2.95t1.12-2.59a3.26,3.26,0,0,1-1.05.12,1.35,1.35,0,0,0-1,.32.22.22,0,0,1-.1.1.55.55,0,0,0-.14.1s-.07.08-.07.1v0a.18.18,0,0,1-.22,0c-.08-.06-.16,0-.25.05a.3.3,0,0,1-.29.19,1,1,0,0,1-.46-.08s0,0-.05-.05,0-.05-.05-.05a.31.31,0,0,0-.14,0c-.09-.07-.16-.08-.22,0s-.11,0-.15,0a3.23,3.23,0,0,0-.37-.47.91.91,0,0,1-.24-.41.56.56,0,0,1-.24-.41l-.27-.22a1.13,1.13,0,0,1-.2-.36.5.5,0,0,1-.41-.47,1.29,1.29,0,0,1,.17-.75,2.37,2.37,0,0,0,.47-.47,1.28,1.28,0,0,1,.51-.41,1.5,1.5,0,0,0,.3,0,.6.6,0,0,0,.27-.07,1.85,1.85,0,0,0,.34.1.35.35,0,0,0,.27,0l.78-.14q.37-.07.75-.17A.91.91,0,0,1,40,2.92a1.67,1.67,0,0,0,.34,0,5.7,5.7,0,0,1,.59-.13l.39-.07a1.91,1.91,0,0,1,.37,0,3.4,3.4,0,0,0,.58-.07l.92-.12.91-.08a.49.49,0,0,1,.3-.1,1.26,1.26,0,0,0,.3,0l.75-.1.44-.07L46.31,2l.76-.1.05,0s0,0,.05.05a.67.67,0,0,1,.3-.07,2.2,2.2,0,0,0,.37,0l.29-.05.14,0h.39l.68-.05.42,0h1.36l.25.07a.9.9,0,0,1,.22.12c.08.06.1.12.05.19a.27.27,0,0,1,0,.08.27.27,0,0,0,0,.08s-.06,0-.1,0-.08,0-.1,0v.1h-.1a.09.09,0,0,1-.07,0s.08.07.1.07Zm.2,0s0,0,0,0,0,0,0,0v0Z"/><path class="cls-1" d="M62.8,13.21c0,.09-.09.14-.14.14a.26.26,0,0,1-.1.24.33.33,0,0,1-.17.07.62.62,0,0,0-.31.2,2.55,2.55,0,0,1-.58.54,2.85,2.85,0,0,1-.58.31s0,0,0,0l-.15.1v0a.28.28,0,0,1-.17.1.28.28,0,0,1,0,.17l-.17.1s-.08,0-.1-.1l-.1.1h0a.46.46,0,0,1-.44.27,1.33,1.33,0,0,1-.34.25l-.34.15-.12.08a.3.3,0,0,1-.15.05.27.27,0,0,0,.1.17.39.39,0,0,0-.27,0l-.2.1a.1.1,0,0,1-.07,0,0,0,0,0,0,0,0l-.27.24-.1.1a2,2,0,0,0-.92.31h.14a.42.42,0,0,1-.31.27l0-.14s-.06,0-.1.07a.1.1,0,0,1-.07,0l-.47.1v0a.23.23,0,0,1-.17.07s-.08.06-.1,0a0,0,0,0,1,0,0h-.07a.76.76,0,0,0,0,.15.16.16,0,0,0,.09.12l-.41.17-.37.07.07.1a.14.14,0,0,0-.1,0,.14.14,0,0,1-.1,0l-.27.09a1.46,1.46,0,0,0-.37.19.5.5,0,0,0,0-.1.45.45,0,0,1,0-.1v0l-.07,0-.17.2a.06.06,0,0,1-.07-.07.1.1,0,0,1,0-.07l-.3.17a.31.31,0,0,1,.24-.34l.17-.1.07,0,.07,0a.48.48,0,0,0,.37-.2s0,0,.07.07a3.56,3.56,0,0,1,.56-.32,3.46,3.46,0,0,0,.59-.36v-.1a.34.34,0,0,0-.22.07l-.15.14a.53.53,0,0,1,.1-.37h0l-.07,0v0a.34.34,0,0,1-.12.09s-.11-.05-.22-.19l-.07,0-.15.1a.46.46,0,0,1-.22,0v.24a.1.1,0,0,1-.07,0,.29.29,0,0,1-.14,0l-.14.07a1.27,1.27,0,0,1,.31,0,2.25,2.25,0,0,1-.63.42,4.84,4.84,0,0,1-.53.19l-.2.07,0,0-.14.05-.2,0v.17l.12,0,.09,0a.82.82,0,0,1-.34.31h-.14s0,0,0-.1a0,0,0,0,0,0,0s0,0,0-.07l-.17.07a.77.77,0,0,1-.22.1l-.25.1c0,.18-.1.28-.15.29l-.22.05c-.16.09-.24.16-.24.2s-.17,0-.17,0a.31.31,0,0,0,0-.08l-.2.13a3.51,3.51,0,0,0-.44.19,2.46,2.46,0,0,1-.51.19l-.34.75-.37.75-.12.12a.75.75,0,0,0-.12.19l-.14.27a.22.22,0,0,0-.1.1.38.38,0,0,1-.07.1.14.14,0,0,0,0,.1.1.1,0,0,0,0,.07.1.1,0,0,1,0,.07c-.23,0-.34-.12-.36-.24a.55.55,0,0,1,.05-.31v-.2s-.06,0-.1.08-.16.31-.34.63a.62.62,0,0,1-.05-.14.89.89,0,0,1,0-.2.54.54,0,0,1-.14.22.77.77,0,0,1-.3.08s0,0,.05,0l-.05-.05a.08.08,0,0,0-.08.07.47.47,0,0,0,0,.1.55.55,0,0,1-.2.12.27.27,0,0,0-.17.22l-.17,0s.06-.07.05-.14-.21-.09-.59-.07a1.29,1.29,0,0,1-.44-.48,3,3,0,0,1-.27-.68l-.24-.64h-.1a.68.68,0,0,0-.24-.54l0-.14v-.2a.65.65,0,0,0,.31-.34l.64-.61.2-.17q.14-.34.31-.68c.11-.23.23-.46.34-.71a4.19,4.19,0,0,0,.24-.59c.07-.22.12-.42.17-.63l.27-.88a1.12,1.12,0,0,0,.25-.39,1.45,1.45,0,0,1,.22-.39L48.33,13a1.83,1.83,0,0,0,.29-.51c.08-.2.16-.41.25-.61a.94.94,0,0,0,.24-.48l.1-.1c.11-.23.21-.45.31-.68a6.56,6.56,0,0,1,.34-.71,4.7,4.7,0,0,1,.3-.8l.37-.8.34-.78A3.62,3.62,0,0,0,51.16,7a2.51,2.51,0,0,0,.19-.51l.24-.31L52,5.77l-.68.1-.44.1a2.39,2.39,0,0,1-.41,0s0,0,0,0,0,0,0,0h0l-.66.22c-.12,0-.3-.08-.53-.36,0,0-.08,0-.1-.1L49,5.67h0a.62.62,0,0,1-.17-.46,1.58,1.58,0,0,0-.07-.49.29.29,0,0,1-.08-.41.83.83,0,0,0,.05-.54s0-.07,0-.08a.07.07,0,0,1,0-.05.66.66,0,0,1,.14-.48l.44-.41c.07,0,.06-.07,0-.08s0,0,.12,0a1.07,1.07,0,0,1,.54,0h.07l.12-.05c.06,0,.08-.06.08-.08l.2-.07.24-.1h0a1.8,1.8,0,0,0,.66-.22A1.71,1.71,0,0,1,52,1.9l.88-.2H53a1.43,1.43,0,0,1,.51-.08l.61-.05.76-.12.73-.12a3.44,3.44,0,0,1,1.32-.1l.68,0q.54-.07,1.14-.09l1.17,0,1.19.08a9.82,9.82,0,0,1,1.12.15,9.21,9.21,0,0,1,2.22.54,4.57,4.57,0,0,1,1.78,1.19,7.14,7.14,0,0,1,.9,1.12,3.19,3.19,0,0,1,.49,1.53.1.1,0,0,1,0,.07,3.51,3.51,0,0,1,.05.37.81.81,0,0,1,0,.31l-.05.2a.7.7,0,0,0,0,.17,3.27,3.27,0,0,0-.05.36c0,.13,0,.28,0,.46a3,3,0,0,1-.34.88l-.2.41a9.4,9.4,0,0,1-.68,1,5,5,0,0,1-.85.85l-.1.2a.46.46,0,0,0-.15.17l-.15.24h-.17v0l-.1.2s0,.07,0,.07,0,0-.05-.07a.09.09,0,0,1-.1.1.36.36,0,0,0-.2,0,.1.1,0,0,1-.07,0l-.27.12a.37.37,0,0,0-.2.19A.16.16,0,0,0,64,12l.17-.14.1.1.08,0,.12-.07q-.27.44-.3.41s-.06,0-.1,0l-.34.2v.14a.84.84,0,0,0-.2.1l-.2.14a.38.38,0,0,0-.2.12.66.66,0,0,1-.27.15l-.1.1ZM45.31,20.44a.14.14,0,0,0,0,.1v0A.1.1,0,0,0,45.31,20.44Zm6.44-1.8a0,0,0,0,0,0,0,0,0,0,0,1,0,0h-.1v0Zm1.8-3.56a5.28,5.28,0,0,0,.64-.24l.58-.27a8.39,8.39,0,0,1,.86-.47,5.6,5.6,0,0,0,.86-.51l1.56-.9a17.85,17.85,0,0,0,1.56-1q.27-.2.58-.39a4.17,4.17,0,0,0,.58-.42l1-.75.93-.88a9.35,9.35,0,0,0,.76-.81,2.73,2.73,0,0,0,.42-.46c.12-.17.25-.33.39-.49a2.24,2.24,0,0,0,.25-.56q.08-.29.15-.56A1.06,1.06,0,0,0,64.58,6a.92.92,0,0,0-.19-.32,6.28,6.28,0,0,0-.63-.34,3.39,3.39,0,0,0-.63-.24l-.73-.17a3,3,0,0,0-.76-.1l-.51,0-.31,0-.3,0a6.29,6.29,0,0,0-.95.07c-.29,0-.6.08-.92.1H58.5a.65.65,0,0,0-.2,0L57.63,5l-.78.08-.69.1a1,1,0,0,0-.44.15s0,.06,0,0a.11.11,0,0,1,.14,0,1.26,1.26,0,0,1,.46.39c.12.17.1.38-.08.63l-.17.37a.42.42,0,0,0-.15.2,2.6,2.6,0,0,1-.12.27A5.69,5.69,0,0,0,55,8.81l-.2.34a3,3,0,0,0-.3.54l-.37.9c-.11.28-.23.58-.34.9l-.51,1.08-.2.47-.29.69q-.15.36-.36.73l-.17.47L51.72,16,53,15.36ZM55,17.9l-.05,0-.05,0A.14.14,0,0,0,55,17.9Zm.17-1.08,0,0A0,0,0,0,0,55.17,16.81Zm.51.1h.2l.07,0v0a.1.1,0,0,1,0-.07Zm.71-.14A.73.73,0,0,0,56,17h0a2.08,2.08,0,0,0,.37-.2l0,0Zm0-.3a.1.1,0,0,1-.07,0l.46-.17a4,4,0,0,0,.49-.24.48.48,0,0,1,.47-.1l.07,0,.1-.1a.27.27,0,0,1,0-.17h-.2l-.47.2a2,2,0,0,0-.46.24,3,3,0,0,1-.49.27A.06.06,0,0,1,56.43,16.47Zm.47.07a.29.29,0,0,0,.14,0l.17-.07v0l.1-.14a.52.52,0,0,1-.27.14Zm4.85-2.75a.1.1,0,0,1,0-.07s-.08.07-.1.07Z"/><path class="cls-1" d="M80.19,3.73s0,.06,0,0-.05,0-.05,0,0,.06-.07.05-.07,0-.07,0,.06.07,0,.07,0,0-.07-.07c0,.16.11.24.2.24s0,.06,0,.05,0,0,0,0,.06.08.17,0a2.82,2.82,0,0,1,.32.49,1.65,1.65,0,0,1,.19.56.22.22,0,0,1,.1.1s0,.07.07.07,0,.08,0,.1a.13.13,0,0,1,0,.1,0,0,0,0,0,.07,0s0,0,0,0a1,1,0,0,1,.19.51q0,.27.05.54s0,0,0-.12a.23.23,0,0,0,0-.15l-.1.27c0,.07,0,.14.14.2a.27.27,0,0,0,0-.17.21.21,0,0,0,0,.12s0,.05,0,.05,0,0,.1,0a2.67,2.67,0,0,0,0,.8c0,.28.07.56.12.83a.06.06,0,0,0,.07-.07v-.1a1.11,1.11,0,0,0,.19-.49q0-.22,0-.56c.07,0,.08.1.05.15a.15.15,0,0,0,0,.15,1.64,1.64,0,0,1-.07.8,3.75,3.75,0,0,0-.17.86.2.2,0,0,0,0,.14,2,2,0,0,0,0,.44s0,0,.05,0,0,0,0,0,0,.05,0,0-.05,0-.05,0,0,.07,0,.07a3.88,3.88,0,0,0,0,.68,2.11,2.11,0,0,1-.17.81,7.89,7.89,0,0,0-.27.75s0,0,.1,0-.08.07-.1.07l-.1,0a2,2,0,0,1-.22.44.5.5,0,0,0-.08.44c-.11.07-.16.14-.15.22s0,.12-.12.12v.17s0,0-.14,0a.06.06,0,0,0,0,.05s0,0,0,.08l-.15.22a.49.49,0,0,1-.15.15.37.37,0,0,1-.14.24s.05.09,0,.12a.21.21,0,0,0-.05.15,2.86,2.86,0,0,0-.54.9,2.66,2.66,0,0,1-.61.93,1.38,1.38,0,0,1-.3.42,2,2,0,0,0-.34.42l0,0a6.93,6.93,0,0,1-1,.83q-.53.36-1.07.8h.07a.59.59,0,0,1-.19.22,1.34,1.34,0,0,1-.29.15.22.22,0,0,0-.14.2l-.3.14a.77.77,0,0,0-.27.27.27.27,0,0,0,.17,0l-.25.15-.25.15a.12.12,0,0,1,0,.08.11.11,0,0,0,0,.08h-.07s-.05,0,0-.07,0-.07-.05-.07a.63.63,0,0,0-.17.17.3.3,0,0,1-.27.1c-.18,0-.28.1-.31.17s-.14,0-.15.05,0,0-.05,0a.67.67,0,0,1-.24.2.52.52,0,0,0-.2.17H73s0-.06,0,0,0,0,0,0a1.22,1.22,0,0,0-.49.25.62.62,0,0,1-.49.15s.05-.08.15-.1.15-.06.15-.1a2.36,2.36,0,0,0-.41.15.75.75,0,0,1-.34.08l0,0-.54.1c-.07,0-.08,0,0-.07s0,0-.05.05-.06.05-.15.05,0-.06.07-.05,0,0,0-.05a1.52,1.52,0,0,1-.69.12,2.22,2.22,0,0,0-.73.09s0-.06,0-.05,0,0,0,0a5.5,5.5,0,0,1-.66,0l-.8,0-.78-.05a2.63,2.63,0,0,1-.58-.1A2.5,2.5,0,0,1,66,21.3a3.06,3.06,0,0,1-.54-.59c0-.09,0-.15,0-.17a.53.53,0,0,0-.13-.1.22.22,0,0,1-.1-.1v-.1a2.67,2.67,0,0,1-.3-.8c-.07-.31-.12-.62-.17-.93a.81.81,0,0,1,0-.22.47.47,0,0,0,0-.25.41.41,0,0,0-.05-.12.14.14,0,0,1,0-.08,10.28,10.28,0,0,1,.69-3.32q.59-1.46,1.17-2.78a4.71,4.71,0,0,0,.51-.85q.2-.44.47-1t.81-1.22l.78-1.22a1.05,1.05,0,0,0,.15-.27.37.37,0,0,1,.19-.2,5.33,5.33,0,0,1,.59-.85l.69-.78a7.66,7.66,0,0,1,.81-1.05,8.68,8.68,0,0,0,.85-1.08,2.31,2.31,0,0,0,.41-.3l.34-.34a2.09,2.09,0,0,1,.44-.49A1.76,1.76,0,0,0,74,1.63h.07a.75.75,0,0,1,.49-.2c.17,0,.31-.11.42-.34A3.58,3.58,0,0,1,75.7,1a4.94,4.94,0,0,1,.9.05s0,0,0-.05,0-.05,0-.05.2,0,.2.07a1.59,1.59,0,0,0,.34.41s0,.06,0,.05l.08-.07.1-.08s.06,0,.08,0,.1.24.17.39a.52.52,0,0,0,.37.29s0,.06,0,0,0,0-.08,0h.1c-.07,0-.08,0-.05.05s0,0,0,.08a.35.35,0,0,1,.25.08l.15.15h-.1a.23.23,0,0,0,.25.15.23.23,0,0,1,.25.15.37.37,0,0,1,.29,0l.25.12s0,.05,0,0-.08,0-.1,0a.36.36,0,0,0,.2,0,1,1,0,0,0,.34.41s0-.07,0-.08-.09,0-.07-.05.07,0,.08,0,0,0,.08,0,.06,0,0,0a.13.13,0,0,1,0-.1.55.55,0,0,1,.1.14l.07.14s0,0,0,.07ZM72.59,9.12s0,.07,0,.07,0,0,0,.07a.87.87,0,0,0-.22.15l-.19.19q-.54.85-1,1.63T70.26,13s0,.18-.13.47l-.49,1.07q-.29.63-.54,1.36a5.53,5.53,0,0,0-.3,1.32,1.45,1.45,0,0,0,.2,1c.17.25.51.35,1,.31a2.11,2.11,0,0,0,.49-.08,4.13,4.13,0,0,0,.56-.19.15.15,0,0,0,.08-.08s.05-.06.12-.09a8.34,8.34,0,0,0,1.08-.41l.56-.44.56-.44a13.43,13.43,0,0,0,1.05-.95l1-1a12.21,12.21,0,0,0,.88-1.14l.85-1.24a8.43,8.43,0,0,0,.61-1.39,6.68,6.68,0,0,0,.31-1.59,6.54,6.54,0,0,0,0-1.24,3.91,3.91,0,0,0-.29-1.13.3.3,0,0,0-.08-.22.83.83,0,0,1-.15-.22,8.9,8.9,0,0,1-.51-.78,2,2,0,0,0-.64-.68,3.92,3.92,0,0,0-1.24.69,14,14,0,0,0-1,1l.05,0c.06,0,.07,0,.05.05s-.14,0-.15,0-.05,0-.12,0c-.2.36-.42.72-.66,1.08A13,13,0,0,1,72.59,9.12Zm3.15,10.61-.32.15-.32.19a3.53,3.53,0,0,0,.31-.27A.31.31,0,0,1,75.75,19.73ZM79.47,3.22a.77.77,0,0,1,.15.2.81.81,0,0,0,.22.24.15.15,0,0,1,0-.12.29.29,0,0,0,0-.08c-.07,0-.1,0-.08,0s0,0-.05-.05h0a.28.28,0,0,1-.1-.17.08.08,0,0,1-.08-.05s0,0,0,0a.82.82,0,0,0-.2-.14.07.07,0,0,0,0,.05.07.07,0,0,1,0,.05.35.35,0,0,0-.12-.08s-.06-.05-.08-.12l-.32-.12a.62.62,0,0,1-.25-.15h-.07l-.12-.08a.11.11,0,0,0-.15,0,.21.21,0,0,0,.17.14c-.07,0-.09,0-.07,0s.1,0,.08,0a.05.05,0,0,0,0,.07s0,.06.05.05,0,0,0,0,.14,0,.27.05a.64.64,0,0,0,.37.05v0c.07,0,.1,0,.1.07s.06.07.17.07h.1Zm-.58.58c0-.09-.06-.14-.17-.14a.32.32,0,0,1-.27-.14.36.36,0,0,0,.2.19Zm-.24.2a.43.43,0,0,1-.2-.2.25.25,0,0,0,.07.15C78.57,4,78.62,4,78.66,4Zm.2,0a.32.32,0,0,1-.08-.12.08.08,0,0,0-.08-.05.3.3,0,0,1,.08.15C78.79,4,78.82,4,78.87,4Zm.27.37s0,0,0-.07l0,0C79.07,4.3,79.09,4.34,79.14,4.34Zm.71-.88a.1.1,0,0,1,0,.07.1.1,0,0,1,0,.07l.12.12a.16.16,0,0,0,.12.05c0-.07,0-.1,0-.1A.13.13,0,0,1,80,3.58a.22.22,0,0,0-.1-.12l0,0s0,0-.1,0S79.8,3.41,79.85,3.46ZM80.42,6s0-.08,0-.24h-.1a.09.09,0,0,0,.1-.1h-.14v.1a.46.46,0,0,0,.05.2C80.37,6.07,80.4,6.08,80.42,6ZM80.56,6v0l-.05,0-.05,0S80.49,5.94,80.56,6Zm.07,1.32v.1c.11,0,.17,0,.17-.1s0-.05-.07,0-.07,0-.07,0a1.53,1.53,0,0,1,0-.41.61.61,0,0,0-.15-.44,1.06,1.06,0,0,1,0,.51C80.47,7.12,80.51,7.24,80.63,7.29Zm0-1.56s0-.07,0-.07Zm0,1.83s0-.07,0-.07,0,0,0-.07h-.1C80.63,7.51,80.65,7.56,80.7,7.56Zm0,3.12v0l-.07,0ZM81,7.25s0-.06-.07-.1,0,0,0-.14,0-.12-.08-.1a1.32,1.32,0,0,0,0,.19A.18.18,0,0,0,81,7.25ZM81,5.8c0-.07,0-.1,0-.1S80.94,5.8,81,5.8Zm.2,1.8a1.35,1.35,0,0,1,0-.36.46.46,0,0,0,0-.29.78.78,0,0,1-.07.32A.3.3,0,0,0,81.24,7.59Z"/><path class="cls-1" d="M92.39,10.88a.15.15,0,0,1-.07.12.3.3,0,0,0-.1.15c-.18,0-.29.08-.32.19a.86.86,0,0,1-.22.32.14.14,0,0,0,.1,0,.38.38,0,0,0-.22.19,1.32,1.32,0,0,1-.12.22c-.07,0-.08,0,0,0a.07.07,0,0,0,0-.1c-.09,0-.14.06-.14.1a.3.3,0,0,1,0,.14.46.46,0,0,0-.3.44.07.07,0,0,0-.1,0,.11.11,0,0,1-.1.07,2.77,2.77,0,0,1-.39.54,3,3,0,0,0-.42.61,2.64,2.64,0,0,0-.36.44,1.72,1.72,0,0,1-.42.44s0,.06,0,.05,0,0,0,.05a.31.31,0,0,1-.12.08l-.19.08a2.21,2.21,0,0,1-.41.58,1.68,1.68,0,0,0-.37.58.41.41,0,0,0-.27.25.88.88,0,0,1-.2.32s0,.07-.05.07,0,0,0,.07a1.39,1.39,0,0,0-.12.22l-.12.25a6.15,6.15,0,0,1-.36.51,3.37,3.37,0,0,0-.36.58.17.17,0,0,1-.05.12l-.12.15-.34.61c-.11.2-.25.42-.41.64a1.35,1.35,0,0,0-.19.56,1.15,1.15,0,0,1-.19.53.51.51,0,0,0-.29.17.51.51,0,0,1-.29.17,1.47,1.47,0,0,1-.66.17,4.62,4.62,0,0,1-.59,0,.86.86,0,0,1-.81,0,.69.69,0,0,1-.78,0,1.76,1.76,0,0,1-.47-.54.21.21,0,0,0-.19-.05c-.08,0-.13,0-.15-.05a1.42,1.42,0,0,1-.2-.75,3.82,3.82,0,0,1,.07-.75c0-.29,0-.59.05-.88a3.67,3.67,0,0,1,.12-.81q.14-.85.31-1.63a12.49,12.49,0,0,0,.24-1.63Q82.19,12,82.9,9.56t1.39-4.85s.08-.07.1-.07a.82.82,0,0,1,.12-.46.68.68,0,0,0,.08-.46h.1a1.81,1.81,0,0,1,.24-.81,3.2,3.2,0,0,1,.47-.61h.15a.12.12,0,0,0,.12-.07,1,1,0,0,1,.15.19.72.72,0,0,0,.19.19.45.45,0,0,1,.24.15.26.26,0,0,0,.27.08s0,.06,0,0,0,0,.07,0a.23.23,0,0,1,.05.08.15.15,0,0,0,.08.08s.05.06.08.05.06,0,.08.05a.16.16,0,0,1,.08.08.32.32,0,0,0,.09.12l.39.37a2.91,2.91,0,0,1,.39.44,1,1,0,0,1,.37.51.23.23,0,0,1,0,.17.11.11,0,0,0,0,.14,3.55,3.55,0,0,1-.37.78.42.42,0,0,1-.05.22l-.12.19q-.41,1.25-.86,2.42A19.59,19.59,0,0,0,86.12,11a2.85,2.85,0,0,0-.32,1.22,3.76,3.76,0,0,1-.25,1.22.67.67,0,0,0-.22.56c0,.28,0,.5-.05.66l.59-.81.73-1,.73-1q.36-.47.63-.78.54-.64,1-1.15t1-1.15a2.07,2.07,0,0,0,.29-.36,2.1,2.1,0,0,1,.29-.36,2.25,2.25,0,0,1,.25-.34A1.67,1.67,0,0,0,91,7.39a1.69,1.69,0,0,0,.58-.61q.51-.58,1-1.2a2.84,2.84,0,0,1,1.25-.9.14.14,0,0,1,.17.05l.14.17a.41.41,0,0,0,.14.12s.11,0,.2-.1a.82.82,0,0,1,.31.22.8.8,0,0,0,.3.22.33.33,0,0,1,.07.15.55.55,0,0,0,0,.15s0,.08.08.12.07.05,0,.05.08.07.1.07,0,0,0,.1a.4.4,0,0,1,.12.24.25.25,0,0,0,.15.2l.2,0,.2,0s0,.07-.14.07-.14.1-.14.17a.31.31,0,0,1,.05.36.9.9,0,0,0,0,.53.77.77,0,0,0,0,.22,1.09,1.09,0,0,0,.07.19,3.21,3.21,0,0,1,.05.73,3.6,3.6,0,0,0,.05.76q0,.47,0,.95a6.73,6.73,0,0,0,.07.95.13.13,0,0,0,.1.13.38.38,0,0,1,0,.17.15.15,0,0,0,0,.14q.07.47.17,1c.07.33.12.63.17.9q.44-1.22.83-2.36T98.12,9Q98.52,7.9,99,6.8T100,4.58a.18.18,0,0,1,0-.15.21.21,0,0,0,0-.12,1.64,1.64,0,0,0,.24-.46l.13-.46.37-.64a1.87,1.87,0,0,0,.1-.36A1.87,1.87,0,0,1,101,2a1,1,0,0,1,.17-.29,1,1,0,0,0,.17-.32.82.82,0,0,0,.25-.36,1.1,1.1,0,0,1,.25-.39l.3-.3a.37.37,0,0,1,.22-.08l.32,0a.53.53,0,0,0,.22.07l.41.09.42.08a1.14,1.14,0,0,1,.27.07.36.36,0,0,1,.08.12.28.28,0,0,0,.12.12.77.77,0,0,0,.25.36,2.05,2.05,0,0,1,.36.39,1.84,1.84,0,0,1,.3.92c0,.34,0,.64.07.92l-.37.92-.41.71a1.19,1.19,0,0,0-.2.37,1,1,0,0,1-.24.37l-.41.8c-.11.21-.26.48-.44.8a1.93,1.93,0,0,1-.22.53c-.1.17-.2.34-.29.53a19.44,19.44,0,0,1-1.15,2.27,11.05,11.05,0,0,0-1.05,2.37,5.12,5.12,0,0,0-.42,1.07,3.25,3.25,0,0,1-.49,1c-.09.23-.18.43-.27.61L99,16.3s0,.07-.1.07a.6.6,0,0,1-.12.27l-.19.2s0,.05.07,0,0,0,.07,0l-.08.17a.19.19,0,0,0,0,.17,1.34,1.34,0,0,0-.15.41l-.08.41a.11.11,0,0,0-.07.1s0,.09-.1.14v.1s-.06.05-.05.09,0,.06-.05.08,0,.05.05,0,0-.05.05-.05a.76.76,0,0,1-.05.27.77.77,0,0,0-.05.27c-.09,0-.13.09-.12.12s0,.07-.05.12H98a4.47,4.47,0,0,0-.19.42,1.36,1.36,0,0,0-.09.49.15.15,0,0,0,.09-.1.29.29,0,0,1,.08-.14v.17a.2.2,0,0,1,0,.14s0,0,0,0l-.1.3s0,.05.05,0,0,0,0,0a.41.41,0,0,0-.05.22.4.4,0,0,0,.05.1.4.4,0,0,1,.05.12.66.66,0,0,1,0,.24s0,.05,0,0,0,0-.08,0a.62.62,0,0,0-.05.17.16.16,0,0,1-.12.13s0-.06,0-.12,0-.07-.05-.05-.06,0,0,.07a.27.27,0,0,1,0,.1c-.09,0-.14,0-.14.1s0,.13-.13.17a.2.2,0,0,1,0,.14s0,.09,0,.2a.51.51,0,0,0-.08.2.25.25,0,0,1-.12.17.81.81,0,0,1-.54,0,5.21,5.21,0,0,1-.51-.19l-.08,0-.12-.07a.32.32,0,0,0-.17,0,.22.22,0,0,1-.17-.05,1.08,1.08,0,0,1-.27-.07,2.11,2.11,0,0,1-.42-.47,1.46,1.46,0,0,1-.15-.61.42.42,0,0,0-.05-.22.31.31,0,0,1-.05-.15q-.17-.37-.34-.81T94,19.08a1.45,1.45,0,0,1-.12-.39,1.28,1.28,0,0,0-.08-.32q-.41-1.86-.76-3.88t-.53-4.05a.48.48,0,0,0-.25.24.76.76,0,0,1-.22.27.24.24,0,0,0,.19-.1.84.84,0,0,1,.19-.17.15.15,0,0,0-.08.1S92.32,10.86,92.39,10.88ZM88.73,15c-.11,0-.17,0-.17,0h.14S88.73,15,88.73,15Zm0-.14s-.07.08-.07.1S88.76,14.87,88.76,14.85Zm.1-.07a3.09,3.09,0,0,1,.27-.41,2.17,2.17,0,0,0,.24-.37.81.81,0,0,0-.34.34l-.24.44Zm.1-1.42a.32.32,0,0,0,.17-.2,1.21,1.21,0,0,0,.29-.34,3,3,0,0,1,.25-.37l1-1.22A10.62,10.62,0,0,0,91.64,10a.23.23,0,0,1,.07-.17h.17l-.17.07a1.27,1.27,0,0,1-.32.68,2.56,2.56,0,0,0-.42.61,1.31,1.31,0,0,0,.27-.29l.24-.36A7.31,7.31,0,0,0,92,10l.46-.54a.58.58,0,0,0,0-.27.13.13,0,0,0,0-.17.13.13,0,0,1,0-.17.92.92,0,0,0-.34.29,2.75,2.75,0,0,1-.27.32l.1-.24a7.51,7.51,0,0,0-.86,1q-.39.56-.8,1.07a.2.2,0,0,1,0,.14,2.14,2.14,0,0,0-.68.95.94.94,0,0,1,.17-.2q-.2.27-.39.56A6.51,6.51,0,0,0,89,13.36Zm.58.37c-.09,0-.13.09-.13.14a.3.3,0,0,1,0,.14A.8.8,0,0,0,89.54,13.73Zm.68-2.27q-.27.41-.51.71a2.51,2.51,0,0,0,.24-.36A1.56,1.56,0,0,1,90.22,11.46Zm.61.37c.07,0,.1-.06.1-.1a.1.1,0,0,0-.07,0,0,0,0,0,1-.07,0,.52.52,0,0,0,.19-.24,1.14,1.14,0,0,1,.15-.27,2.51,2.51,0,0,0-.29.34l-.25.34c.07,0,.11,0,.12-.05S90.76,11.81,90.83,11.83Zm.95-1.12.17-.24a.63.63,0,0,1,.27-.2.31.31,0,0,1,.12-.22c.06,0,.08-.11.08-.22l-.37.46a6.08,6.08,0,0,1-.44.49s.07,0,.08,0A.18.18,0,0,1,91.78,10.71Zm-.1-1.19s.09,0,.14-.1ZM91.81,11a1.56,1.56,0,0,1,.34-.46,1.16,1.16,0,0,0,.3-.46,3.58,3.58,0,0,0-.37.44l-.34.47Zm.44-2.24L92,9.09a.48.48,0,0,0,.15-.15A.82.82,0,0,1,92.25,8.78Zm3.39-2.27.08,0,.05,0C95.69,6.47,95.64,6.49,95.64,6.51Zm2.07,12.61a.27.27,0,0,0-.1.24h.07a.23.23,0,0,1,.05-.14S97.75,19.14,97.71,19.12Zm.17-.71a.82.82,0,0,0-.17.25c0,.1,0,.17,0,.22a.34.34,0,0,0,.09-.2A2.25,2.25,0,0,1,97.88,18.41Zm.2.17h0a.07.07,0,0,0,.1,0S98.13,18.58,98.08,18.58Z"/><path class="cls-1" d="M120.89,0a.63.63,0,0,1,.07.17,3.4,3.4,0,0,1,.63.17,2.49,2.49,0,0,1,.46.24l.05.08a.41.41,0,0,1,.05.12,1.13,1.13,0,0,1,.66.41,2.24,2.24,0,0,1,.42.75.78.78,0,0,1,0,.42,1.51,1.51,0,0,0-.05.39.33.33,0,0,0-.13.34,1.23,1.23,0,0,0-.17.24,1.18,1.18,0,0,0-.14.3,3,3,0,0,0-.44.64q-.17.34-.34.71a3.37,3.37,0,0,0-.17.32,3,3,0,0,1-.17.32,4,4,0,0,0-.22.44l-.19.47a1.6,1.6,0,0,0-.25.41l-.15.39a2,2,0,0,1-.17.36,2,2,0,0,1-.3.37v.1a3.21,3.21,0,0,0-.32.47,3.25,3.25,0,0,1-.29.44.41.41,0,0,1-.07.32,1.88,1.88,0,0,1-.24.29.23.23,0,0,0-.1.15.15.15,0,0,0,.07.19h-.1c0,.07,0,.12,0,.15s0,.06,0,.08l-.1.12a.25.25,0,0,1-.1.09s0,.07-.1.14h.13a.6.6,0,0,1-.12.24.58.58,0,0,0-.12.24.3.3,0,0,0-.05.22.31.31,0,0,1-.05.22s0,0-.05.05-.05,0-.05.05a.55.55,0,0,0-.07.24.38.38,0,0,1,0,.17.36.36,0,0,1-.12.17c-.06,0-.06.11,0,.2s-.09.1-.07.1a1.23,1.23,0,0,1-.15.36l-.15.22-.15.22a1.21,1.21,0,0,0-.15.32.06.06,0,0,0-.05,0,.05.05,0,0,1-.05,0,.8.8,0,0,1-.09.32.42.42,0,0,0-.05.29,1.34,1.34,0,0,0-.17.31,2.15,2.15,0,0,1-.2.37.76.76,0,0,1-.19.56.66.66,0,0,0-.19.49.25.25,0,0,0-.15.17c0,.07-.06.11-.15.14s0,.08,0,.1,0,.07,0,.14l-.1.1s0,.09,0,.14,0,0-.14,0a2.44,2.44,0,0,0-.05.27.65.65,0,0,1-.15.31,1.46,1.46,0,0,1-.14.63,5.41,5.41,0,0,1-.3.56,1.51,1.51,0,0,1,0,.51c0,.16-.08.36-.15.61a.28.28,0,0,1,.05.2.57.57,0,0,0,0,.24h-.24a.12.12,0,0,0,0,.14.09.09,0,0,1,0,.14c.09.07.14.23.14.47,0,0,0,0-.07,0s-.06,0-.1,0-.09.08-.07.1a.13.13,0,0,1-.14-.1.33.33,0,0,0-.14-.17.5.5,0,0,0-.14.27.77.77,0,0,0,.07.27.26.26,0,0,1-.24.07c0,.14-.05.23,0,.27a.23.23,0,0,0,.1.09s.05,0,.05,0a.76.76,0,0,1-.2.12.33.33,0,0,1-.24.1,1,1,0,0,1-.61-.05,1.81,1.81,0,0,0-.58-.12,1.4,1.4,0,0,1-.37,0,.56.56,0,0,1-.34-.19,1.24,1.24,0,0,0-.42-.36q-.15-.05-.08-.46a.43.43,0,0,0-.09-.34.9.9,0,0,1-.15-.34l-.27-1.36a14.34,14.34,0,0,1-.61-1.95,17.56,17.56,0,0,0-.64-2.08l-.34-1.22a1.57,1.57,0,0,0-.34-.81q-.07-.34-.12-.66a1.32,1.32,0,0,0-.19-.53,1,1,0,0,1-.12-.32c0-.15-.09-.2-.15-.15a.74.74,0,0,0-.13.24.74.74,0,0,1-.14.24.29.29,0,0,1-.1.2,1.82,1.82,0,0,0-.24.58,2.23,2.23,0,0,1-.17.51,1.72,1.72,0,0,1-.2.41,1,1,0,0,0-.17.44l-.2.36a1.43,1.43,0,0,1-.15.22,1.48,1.48,0,0,0-.15.22l-.2.36a1,1,0,0,1-.1.32l-.14.25q.1-.3.19-.59t0-.05a.7.7,0,0,1-.07.19l-.07.12a1.18,1.18,0,0,1-.17.34,1.3,1.3,0,0,0-.17.31c0,.11,0,.14-.1.08s-.12,0-.17.05,0,.07,0,.07,0,0,0,.07a.2.2,0,0,0,0,.14v.07a.44.44,0,0,1-.1.2.4.4,0,0,0-.1.17.9.9,0,0,0-.07.34.55.55,0,0,1-.14.34,4,4,0,0,1-.17.47.87.87,0,0,0-.07.47,0,0,0,0,0,0,0s0,0,0,0a1.07,1.07,0,0,1-.12.54.92.92,0,0,0-.12.47.08.08,0,0,0-.05.1.1.1,0,0,1,0,.1.28.28,0,0,1-.05.17.18.18,0,0,0,0,.17.13.13,0,0,1-.1.14.91.91,0,0,0-.1.41c0,.16-.1.25-.17.27s0-.07,0-.07.05,0,.05-.07a1.26,1.26,0,0,1,.15-.59,1.16,1.16,0,0,0,.12-.66l.07-.1s0-.07,0-.08a.07.07,0,0,0,0-.05.35.35,0,0,0,.12-.29.2.2,0,0,1,.12-.22s-.08-.07-.1-.07a.37.37,0,0,1,.07-.1s0-.06,0-.1a.09.09,0,0,0-.1.1.23.23,0,0,1-.07.17.24.24,0,0,1,0,.2l-.08.14s-.05.08,0,.1.05,0,.05.07a.42.42,0,0,1-.08.12.38.38,0,0,0-.08.15c0,.18-.08.36-.12.54a1,1,0,0,1-.19.44.64.64,0,0,1-.05.37,1,1,0,0,0-.08.41.25.25,0,0,0-.12.13s-.06.08-.15.1a.62.62,0,0,1,0-.32c0-.1.07-.21.12-.32a.74.74,0,0,1-.07-.34.63.63,0,0,0-.24.44,1.43,1.43,0,0,1-.13.44s0,0,0-.07v-.14l-.05,0-.05,0a2.52,2.52,0,0,1,0,.29c0,.1-.1.17-.25.22a.24.24,0,0,0,.05-.2.34.34,0,0,1,.05-.24c-.16,0-.24,0-.24.14v.2a.06.06,0,0,0-.07.07.06.06,0,0,1-.07.07s0,.07,0,.08a.36.36,0,0,1,0,.15,3.61,3.61,0,0,1-.59.08l-.59.05a.67.67,0,0,1-.36-.39,1.53,1.53,0,0,1-.07-.56,5.94,5.94,0,0,1,.07-.61,3.44,3.44,0,0,1,.12-.51,1.51,1.51,0,0,0,0-.22.32.32,0,0,1,0-.19,2.71,2.71,0,0,1,.19-.56,2.63,2.63,0,0,0,.19-.59,10.78,10.78,0,0,0,.27-1.14,11.1,11.1,0,0,1,.27-1.14l.1-.24a.73.73,0,0,0,0-.27.93.93,0,0,1,0-.31q.27-.61.36-.86a3.83,3.83,0,0,0,.12-.42l.08-.44a4.71,4.71,0,0,1,.32-.88,4.16,4.16,0,0,0,.42-1.27,4.15,4.15,0,0,1,.42-1.27q.13-.3.3-.78t.36-1l.36-.93q.17-.44.3-.71a6.85,6.85,0,0,1,.37-.86,8,8,0,0,0,.37-.83,1.89,1.89,0,0,0,.2-.39q.07-.19.14-.46l.19-.27.19-.31c0-.11,0-.21.05-.29a1.5,1.5,0,0,0,0-.22,4.1,4.1,0,0,0,.25-.36l.22-.36a1.09,1.09,0,0,0,.36-.29q.15-.19.32-.36a.25.25,0,0,0,.27-.24.85.85,0,0,1,.47,0l.41.14.49.14a2.16,2.16,0,0,1,.49.24,2.07,2.07,0,0,0,.36.29,2.15,2.15,0,0,1,.36.29.8.8,0,0,1,.14.31.63.63,0,0,1,.15.13l.08.1a.45.45,0,0,1,.07.25.81.81,0,0,0,0,.25,1.79,1.79,0,0,1,.1.39,3.76,3.76,0,0,0,.1.46c0,.27.08.54.12.81a5.39,5.39,0,0,0,.15.78,2.24,2.24,0,0,1,0,.42,1.13,1.13,0,0,0,.07.42s0,.07,0,.08a.13.13,0,0,1,0,.08,5.48,5.48,0,0,1,.15.69l.17,1q.08.53.17,1a5.14,5.14,0,0,0,.15.7,12.26,12.26,0,0,1,.37,2.13,7.58,7.58,0,0,0,.44,2,1.09,1.09,0,0,0,.24-.75q.3-.61.56-1.25l.52-1.32q.41-1,.73-1.76L116.7,8l.59-1.41q.3-.71.68-1.7.37-.68.69-1.41t.59-1.41v-.2a.77.77,0,0,1,.17-.3.43.43,0,0,1,.12-.32l.29-.29L120,.73a1,1,0,0,0,.17-.29h0a.1.1,0,0,0,.07,0A.54.54,0,0,1,120.89,0Zm-17,20.81.07,0s0,0,.07-.13,0-.1-.07-.1a.14.14,0,0,1,0,.1A.14.14,0,0,0,103.84,20.81Zm.1-.31v0c.07,0,.1,0,.1-.07S103.94,20.49,103.94,20.51Zm1.73-3.63a.16.16,0,0,0-.05.15c0,.06,0,.09-.05.09a.09.09,0,0,1-.07,0,0,0,0,0,0-.07,0,.3.3,0,0,1,0,.14.38.38,0,0,0,0,.17s.07,0,.07,0a0,0,0,0,1,0,0s0-.06,0-.05,0,0,0,0,0,0,0,0,0,0,.05,0,0,.07,0,.07a.36.36,0,0,0,.13-.31v-.07A0,0,0,0,0,105.67,16.88Zm-.27,1.25a.36.36,0,0,0,.08-.22,1.2,1.2,0,0,1,.08-.32c-.09,0-.14.07-.15.2S105.4,18,105.4,18.13Zm.07-1.12a.06.06,0,0,0,.07-.07h-.07Zm0,.51v0h0v0Zm0-.1s0-.07,0-.07,0,0,0-.07S105.47,17.4,105.54,17.42Zm0-.58c.09,0,.12-.08.1-.1s0-.06,0-.1h-.07Zm0,.27s0,0,0,0Zm.2-1.22c0,.11,0,.19,0,.22a.12.12,0,0,0,0,.15c.09,0,.13-.05.12-.15a.37.37,0,0,1,.05-.25l-.08,0s0,0,0,0v0Zm0,.78-.07,0v.17S105.74,16.77,105.74,16.68Zm.24-.85v-.07a.1.1,0,0,1-.07,0S105.91,15.81,106,15.83Zm.78-.17-.05.07a1,1,0,0,0,.05-.17Zm0-.1a.28.28,0,0,0,.07-.2Zm9.69-3s-.07,0-.07,0a0,0,0,0,1,0,0,.79.79,0,0,1-.08.39,2.06,2.06,0,0,0-.15.36v0a1.75,1.75,0,0,1,.17-.32,1.75,1.75,0,0,0,.17-.32l.15-.41a3.09,3.09,0,0,0,.12-.41l-.19.31A.56.56,0,0,0,116.45,12.54Zm.27-.71a.26.26,0,0,0,.19-.17.71.71,0,0,0,.05-.24A.63.63,0,0,0,116.72,11.83Zm1.46-2.47a.11.11,0,0,1,0,.17.61.61,0,0,0-.17.17.15.15,0,0,0,0,.12s0,.09-.05.15a2.58,2.58,0,0,0,.61-1,.18.18,0,0,0-.17.19A.18.18,0,0,1,118.18,9.36Z"/></g></g></svg>