<svg xmlns="http://www.w3.org/2000/svg" viewBox="0 0 310.94 85.73"><defs><style>.cls-1{fill:#ec6f4e;}.cls-2{fill:#ede9d5;}</style></defs><title>Good-Vibe</title><g id="Layer_2" data-name="Layer 2"><g id="Logo"><path class="cls-1" d="M310.64,21.82c-4.84-2.46-9.75-4.77-14.75-6.88q-3.73-1.58-7.53-3a25.38,25.38,0,0,0-3.55-1.3,2.81,2.81,0,0,0-2.44.92c-.79.64-2.2,1.08-2.79,1.87a2.82,2.82,0,0,0-.33.62,7.48,7.48,0,0,0-.87.63c-.67.54-1.79.94-2.47,1.53.1-6.07-3.18-9.49-8.73-10.87A183,183,0,0,0,230.73.19C226.09,0,221.46,0,216.81,0q-2.32,0-4.65.14a7.29,7.29,0,0,0-3.73,1.39,10.89,10.89,0,0,0-2.32,1.22,2.92,2.92,0,0,0-.56,1.28l-1.11.63a10.89,10.89,0,0,0-2.32,1.21c-.81.87-.82,3.63-1,4.85,4.35-.16,6.08,2.42,3.42,8-1.56,3.27-3.07,6.58-4.57,9.92l0-.51c-.23-3.33-.47-6.67-.76-10-.27-3.09-.86-6.09-1.17-9.19-.21-2.05.82-3.34,2.77-3.47l.81-4.68a38.65,38.65,0,0,1-4.36.37c-2.74.26-5.48.56-8.21.87S182,2.95,180,4.93a2.74,2.74,0,0,0-.64,1.31A8.46,8.46,0,0,0,176,8.05c-1,.95-.84,3.5-1,4.8,1.91-.22,3.12.48,3.51,3.7.54,2.77,4.41,37.36,4.25,37.64a83.66,83.66,0,0,1,9,.22,2.41,2.41,0,0,0,.82,0,2.44,2.44,0,0,0,1-.59A45,45,0,0,1,200.27,49c2.18-1.27,3.17-5.31,4.15-7.59C209,30.93,213.77,20.73,218.9,11l.09-.18c1.81.21,2.4,1.5,2,3.44q-3.38,16.53-6.78,33.23c-.42,2.08-1.6,3.28-3.56,3.1l-1,5c.15-.67,8.54,1,9.33,1a5,5,0,0,0,2.81-.71,1.14,1.14,0,0,0,.56.91,3,3,0,0,0,1,.37c2.31.47,6.33,2.19,8.07-.08-1.21,1.57,6.73,2.89,7.25,3,3.44.75,6.86,1.56,10.25,2.47a12.89,12.89,0,0,0,8.72-1,31.34,31.34,0,0,0,3.61-2.38,16.45,16.45,0,0,0,1.6-.95c.47-.38,1.06-1.42,1.57-1.63a10.58,10.58,0,0,0,4.68-4.07l-1.71,6.44c-.51,1.94-1.59,2.95-3.24,2.62a.5.5,0,0,0-.59.36l-1.1,4.23a.45.45,0,0,0,.29.55c6.34,2.09,12.59,4.45,18.76,7a35.18,35.18,0,0,0,4.21,1.76c1.81.49,2.82-.08,4.48-.82a7.55,7.55,0,0,0,1.77-1,34.37,34.37,0,0,1,4.12-3.08c.51-.31.55-.72.63-1.24a14.57,14.57,0,0,1,.58-1.88l1.18-4,2.32-7.79a.42.42,0,0,0-.24-.5,12.94,12.94,0,0,1-1.32-.55c-.27-.16-.6,0-.86.19-1.68,1.11-3.38,2.2-5,3.38-1.3.94-2.43,2.1-3.79,3s-2.82-.31-4.28-.87a.44.44,0,0,1-.27-.5,12.69,12.69,0,0,0,4.15-1.56c1.52-.73,5.29-2.8,6.19-4.29.66-1.1-.53-.93.13-2,1.41-2.36,1.88-5.18,2.63-7.81a8.9,8.9,0,0,1,.71-2.54A9.35,9.35,0,0,1,301.19,40a61.48,61.48,0,0,0,5.16-3.89,2.08,2.08,0,0,0,.72-1.5,14.05,14.05,0,0,1,.78-2.2q1.53-5,3.07-10A.48.48,0,0,0,310.64,21.82ZM296.06,34.4a32.2,32.2,0,0,1-2.87,2.33,3.07,3.07,0,0,1-1.93.92h0c.56-2,1.12-4,1.69-6,.14-.5.43-2.48.93-2.58.88-.11,2.8,2.57,3.35,3.16a.59.59,0,0,1,.2.34C297.44,33,296.37,34.11,296.06,34.4ZM234.57,46.59c-1.49-.48-1.94-1.81-1.54-3.69q3.26-15.21,6.5-30.24l.06,0c1.74.41,2.24,1.8,1.8,3.74Q238,31.4,234.57,46.59Zm18.82,3.67-1.74-.41,2.21-9.35c1,1.72,1.1,4.24.18,7.94-.16.66-.34,1.28-.53,1.85Zm14.4-19.5a9.56,9.56,0,0,0,1.12-1.38c3.32-1,5-4.33,6.22-7.86,1.35.82,1.71,2.24,1.24,4q-1.87,6.95-3.76,14A11.77,11.77,0,0,0,267.78,30.76Z"/><path class="cls-1" d="M154.24,12.54c-3.19-2.82-7.47-3.44-11.56-2.8L135.53,11a10.26,10.26,0,0,1-2.9-.58,13.6,13.6,0,0,1-2.11-.51,3,3,0,0,0-2.26-.25,6.85,6.85,0,0,0-1.28.94,12.18,12.18,0,0,1-1.1.65,7.54,7.54,0,0,0-1.44,1.09A1.67,1.67,0,0,0,124,14c-.14.12-.28.24-.43.35a12.21,12.21,0,0,1-1.1.65A7.54,7.54,0,0,0,121,16a1.6,1.6,0,0,0-.45,1.57l-.24-.32A15.29,15.29,0,0,0,98.41,15.4,18.49,18.49,0,0,0,96.78,17a15.6,15.6,0,0,0-2.63,1.82,18.9,18.9,0,0,0-3.26,3.64l-.14.12A21.56,21.56,0,0,0,84.27,33.1c-2.45-10.65-8.5-19.18-18.63-19.65a13.06,13.06,0,0,0-11.21,4.74,14.31,14.31,0,0,0-5.51,5.08c-5,3.85-7.47,11.44-8,20.15q-2.37-.31-4.72-.69c-1.45-.23-3.53.29-4.77-.37a3.74,3.74,0,0,0-1.59-.64,2.78,2.78,0,0,0-1.25.36,27.38,27.38,0,0,0-6.05,4,1.65,1.65,0,0,0-.43.49c-.53,1.07.08,2.82.13,3.95,0,.36,0,4.17.3,4.23,2,.4,3,2.18,3.13,4.68l.13,2.67A20.25,20.25,0,0,1,22,55.24c-2-5.71-2.53-11.9-2.82-17.89-.31-6.32,0-11.92,1.09-16.05h0a10.32,10.32,0,0,1,6.44,4.82,18.24,18.24,0,0,1,2.1,5.27,28.24,28.24,0,0,1,.52,2.81,28.75,28.75,0,0,1,.16,2.88.34.34,0,0,0,0,.14c.05.1.19.12.3.13,2.43.14,8.43-5.32,9.18-6.19a1.91,1.91,0,0,0,.42-.53,3.38,3.38,0,0,0,0-1l-.19-3.82-.37-7.64-.1-2.06,0-1c0-.14,0-.93,0-1C34,10.81,30.44,8.9,27.7,8.26c-5.75-1.33-11,.15-14.53,4.38a14.19,14.19,0,0,0-5.5,5.08A17.31,17.31,0,0,0,2,26.46C-.17,33.26-.11,41.09.09,48.11A72.31,72.31,0,0,0,3.88,70.46C5.59,75.24,8.72,80.14,12.76,83c4.47,3.15,11.75,3.38,16.37,1.73,2.13-.76,8.54-6.06,9.5-8,3.3-2,4.48-5.48,4.78-9.5,3,10.23,8.57,13.66,17.47,13,6-.46,14-5.49,17.26-10.61,3-2.36,5.11-5.93,6.29-10.88C86.48,66.26,91,73,99.89,72.8a16.07,16.07,0,0,0,7.59-2,31,31,0,0,0,9.6-8.48c4.46-3.59,6.81-9.67,7.84-16l.45,9.28a3.74,3.74,0,0,1-2.49,4,.36.36,0,0,0-.21.36l.19,4c0,.24.2.4.38.33,1-.39,3.64-1.15,3.95-1.29a5.28,5.28,0,0,0,2.63-2.81c-.17.41.69,1.05.89,1.22.87.7,2.14.24,3.18.2a36.18,36.18,0,0,0,13-2.91c6.23-2.68,11.25-10.38,12.59-16.85a55.41,55.41,0,0,0,.89-14.24C160,21.82,158.46,16.27,154.24,12.54Zm-16.78,5.82c6.29-.35,9.86,10.36,10.12,15.76.86,6.29,0,11.11-2.08,14.56a13.92,13.92,0,0,1-3.56,1.89l-2.87,1Zm-35.3,27.31c-1.24-6-.82-12,.13-18,.14-.88.31-2,.55-3.21,3.77,2.05,4.35,10.42,4.44,13.52.1,3.27-.1,6.32-.22,8.08a50.5,50.5,0,0,1-1,7.72C103.76,52.25,102.66,48,102.17,45.68ZM65.85,39.52a81.36,81.36,0,0,1,.84,10.6A51,51,0,0,1,66,59.82a10,10,0,0,1-3.19-3.92,32.15,32.15,0,0,1-2.9-9.25,60.91,60.91,0,0,1-.16-15.08c.1-1.12.24-2.82.56-4.6C64.45,28.82,65.32,35.65,65.85,39.52ZM123,21.82a3.06,3.06,0,0,1,.85,2.24v.07C123.59,23.34,123.31,22.57,123,21.82Z"/><path class="cls-2" d="M225.87,0l-1,4.86C222.27,4.09,220,9,218.9,11c-5.14,9.72-10,19.92-14.48,30.4-1,2.39-1.92,5-3.12,7.33-3-.12-6.76-.27-9.78-.32.16-.28-3.71-34.87-4.25-37.64-.4-3.21-1.61-3.92-3.51-3.7l.7-4.51C199.4.78,201.54.88,201.55.81l-.81,4.68c-2,.14-3,1.42-2.77,3.47.31,3.09.9,6.09,1.17,9.19.29,3.34.53,6.68.76,10q.23,3.43.45,6.84c0,.38.66,4.47.7,4.43,1.67-2,2.64-5.43,3.75-7.88,2.84-6.24,5.57-12.48,8.47-18.55,2.67-5.58.93-8.17-3.42-8l.87-4.76Q218.32-.09,225.87,0Z"/><path class="cls-2" d="M240.24,9.35Q236.65,26,233,42.9c-.45,2.1.18,3.53,2.13,3.83L234,51.83s-2.13-.35-5.26-.77a2.61,2.61,0,0,1-2.09-2.58,3.11,3.11,0,0,1-3,1.94c-3.14-.36-5.29-.56-5.29-.56l1-5c2,.18,3.14-1,3.56-3.1q3.4-16.7,6.78-33.23c.42-2.06-.28-3.39-2.35-3.47l1-4.94q8.37.26,16.66,1.22l-1.1,5C241.92,6.09,240.69,7.28,240.24,9.35Z"/><path class="cls-2" d="M272.11,45.42c-2.54,9.76-7.82,13.15-14.39,11.39s-13-3.15-19.54-4.3a.37.37,0,0,1-.27-.45l1-4.37a.37.37,0,0,1,.38-.31c1.76.16,2.81-1,3.27-3q3.83-17,7.62-33.73c.44-1.95-.06-3.33-1.8-3.74a.41.41,0,0,1-.28-.49l1-4.28a.33.33,0,0,1,.36-.27,179.2,179.2,0,0,1,17.81,3.44c7,1.75,10.39,6.71,7.93,16.18-1.47,4.08-3.41,8-7.88,8.14a.36.36,0,0,0-.14.68C272.1,33.26,273.65,39.51,272.11,45.42ZM257.29,26l.92.2c3.4.31,5.77-1,7.24-7,1.59-6.46-.28-8.85-4.17-10Q259.29,17.58,257.29,26Zm5.51,16.67c1.55-6.27.07-9.15-3.27-10.5q-1.76-.42-3.51-.81-2.18,9.19-4.37,18.47l1.74.41C257.81,51.32,261,50,262.8,42.69Z"/><path class="cls-2" d="M296,20.91q-2.36,8.28-4.73,16.73a.47.47,0,0,0,.35.57l1.21.34h.05c3.47.67,5.61-3.28,6.66-6.58a.45.45,0,0,1,.63-.24l1.12.51a.47.47,0,0,1,.28.55Q298.46,43.26,295.34,54a.49.49,0,0,1-.67.29l-1.08-.46a.43.43,0,0,1-.26-.51c1-3.53,1.41-8.41-1.72-10.41l0,0c-.37-.2-.71-.42-1-.6a.47.47,0,0,0-.69.27q-2.39,8.5-4.79,17.17a.43.43,0,0,0,.26.52q2.82,1.1,5.63,2.26c3.41,1.41,6.44-3.17,7.87-7.59a.5.5,0,0,1,.67-.27l1.09.49a.42.42,0,0,1,.24.5q-2.11,7.09-4.25,14.31a.53.53,0,0,1-.7.31c-8.06-3.52-16.17-6.67-24.34-9.37a.45.45,0,0,1-.29-.55l1.1-4.23a.51.51,0,0,1,.59-.36c1.65.33,2.72-.68,3.24-2.62q4.5-17,8.93-33.42c.51-1.89.05-3.41-1.6-4.18a.53.53,0,0,1-.3-.6l1.08-4.06a.42.42,0,0,1,.57-.28,217.29,217.29,0,0,1,25.78,11.18.48.48,0,0,1,.28.55q-2.07,6.74-4.16,13.63a.46.46,0,0,1-.65.24L305,35.7a.45.45,0,0,1-.26-.52c1.24-4.42,1.24-10.27-2.36-12q-2.88-1.33-5.77-2.57A.43.43,0,0,0,296,20.91Z"/><path class="cls-2" d="M45.24,43.94l.28,5.86c-2-.21-2.84,1.3-2.72,3.77.44,9,3.05,20.73-6,24-4.62,1.66-11.9,1.43-16.37-1.73-4-2.85-7.16-7.75-8.87-12.53A72.31,72.31,0,0,1,7.75,41c-.2-7-.26-14.85,1.88-21.66,2.9-9.19,9.93-12.92,18.07-11,2.74.64,6.28,2.54,11,5.91l.81,16.58-2.13-.34c-.45-9.17-3.63-15-9.36-16.26-6.92-1.64-9.46,9-8.76,23.21.29,6,.86,12.18,2.82,17.89,1.66,4.84,4.82,9.32,9.51,10.39a2.52,2.52,0,0,0,1.69-.06c1.59-.8.6-4.29.52-5.8-.14-2.51-.25-5-.38-7.54s-1.09-4.28-3.13-4.68l-.29-6Q37.62,43.13,45.24,43.94Z"/><path class="cls-2" d="M85.48,42.05c1,20.47-4.18,29.74-16.94,31-12.77,1-18.75-6.5-19.91-30.43-.76-15.67,4.16-29.85,17-29.13S84.78,27.63,85.48,42.05ZM74.35,43a81.36,81.36,0,0,0-.84-10.6c-.61-4.44-1.67-12.79-7.58-13-5.17-.2-5.87,8.8-6.17,12.23a60.91,60.91,0,0,0,.16,15.08,32.15,32.15,0,0,0,2.9,9.25c1.34,2.63,3.78,5.74,7,4.08a5.05,5.05,0,0,0,2-2C74.21,53.86,74.37,47.57,74.35,43Z"/><path class="cls-2" d="M125.44,33.26c-.39-5.58-1.57-11.46-5.09-16A15.29,15.29,0,0,0,98.41,15.4c-8.22,7-8.65,20-7.51,29.85,1.11,9.63,5.29,20.67,16.65,20.39C123.48,65.26,126.34,46.14,125.44,33.26ZM115,30.8c.1,3.27-.1,6.32-.22,8.08-.28,4.16-.83,9.83-3.24,13.37A4.57,4.57,0,0,1,109.58,54c-4.82,2-6.72-4.95-7.42-8.28-1.24-6-.82-12,.13-18,.51-3.19,1.35-9.7,5.19-10.67C114,15.34,114.85,27,115,30.8Z"/><path class="cls-2" d="M164.6,24.41a55.41,55.41,0,0,1-.89,14.24c-1.16,5.64-3.67,10.72-9.18,13.1a36.18,36.18,0,0,1-13,2.91c-1,0-2.31.5-3.18-.2-.2-.16-1.06-.8-.89-1.22a5.28,5.28,0,0,1-2.63,2.81c-.31.14-3,.9-3.95,1.29-.18.07-.37-.09-.38-.33l-.19-4a.36.36,0,0,1,.21-.36,3.74,3.74,0,0,0,2.49-4l-1.53-31.51c-.09-1.86-.94-2.9-2.74-2.71a.33.33,0,0,1-.32-.34l-.2-4.07a.34.34,0,0,1,.24-.37c6.15-1,12.3-2,18.45-3.07,4.09-.64,8.38,0,11.56,2.8C162.73,13.11,164.28,18.66,164.6,24.41Zm-9.34,2.8c-.27-5.59-4.08-16.87-10.79-15.69l-2.89.55,1.77,36.33,2.87-1C152.87,45,156.79,38.45,155.26,27.21Z"/></g></g></svg>