<svg xmlns="http://www.w3.org/2000/svg" viewBox="0 0 725.04 32.52"><defs><style>.cls-1{fill:#260500;}</style></defs><title>Hill-Front</title><g id="Layer_2" data-name="Layer 2"><g id="Artwork"><path class="cls-1" d="M675.72,9c-16.94-3.14-20.16-3.6-22.73-4.3s-8.79-1.86-13.51,0A51.16,51.16,0,0,1,620,8.39C612.45,8.16,609,8.33,606,7.26A31.5,31.5,0,0,0,597.57,6a18.21,18.21,0,0,0,1.17-3.78A15.43,15.43,0,0,1,596.8,6h-.05a4.1,4.1,0,0,0,.44-2.4A3.79,3.79,0,0,1,596,5.68,40.35,40.35,0,0,0,596.2.91a20.6,20.6,0,0,1-.75,3.52,4.66,4.66,0,0,0-.18-1.72,3.71,3.71,0,0,1-.64,2.17,7.23,7.23,0,0,0,.08-1.93A7.42,7.42,0,0,1,594.08,5s-.07-1.7-.5-5a41.08,41.08,0,0,1,.05,4.54,4.3,4.3,0,0,1-.46-2,6.32,6.32,0,0,0-.08,2.09,6,6,0,0,1-.74-3.08,9,9,0,0,0,.58,3.41,7.34,7.34,0,0,1-1.39-3.66A8.91,8.91,0,0,0,592,4.5a3.79,3.79,0,0,1-1.36-2,4.1,4.1,0,0,0,.62,2.34,3,3,0,0,1-1.49-1.23,6.46,6.46,0,0,0,1.41,2c-3.46-.25-6.26-.36-8.78.46-3.22,1-16.73,3.64-20.37,4.78-2.81.88-11.64,1.5-17.89,1.31A16.72,16.72,0,0,0,545.5,8a14.41,14.41,0,0,1-2.15,4,4,4,0,0,0,.59-2.66,3.76,3.76,0,0,1-1.21,2.09A40.56,40.56,0,0,0,543,6.69a20.72,20.72,0,0,1-.75,3.52A4.67,4.67,0,0,0,542,8.48a3.71,3.71,0,0,1-.64,2.17,7.52,7.52,0,0,0,.08-1.93,7.4,7.4,0,0,1-.62,2.09s-.08-1.71-.5-5a41.27,41.27,0,0,1,0,4.54,4.3,4.3,0,0,1-.46-2,6.3,6.3,0,0,0-.07,2.09,6,6,0,0,1-.74-3.08,9,9,0,0,0,.58,3.41,7.31,7.31,0,0,1-1.39-3.67,9,9,0,0,0,.49,3.22,3.8,3.8,0,0,1-1.36-2,4.07,4.07,0,0,0,.61,2.33,3,3,0,0,1-1.49-1.23,6.33,6.33,0,0,0,1.46,2h0c-4.4-1-8-2.76-12.19-1.3-4.72,1.63-7.08,2-18,1.28s-16.73-1.16-25.31-.58S461,12,452.68,13.74s-14.58,3.25-20.16.7a20.86,20.86,0,0,0-7.71-1.95,6.43,6.43,0,0,0,1.73-1.72,3,3,0,0,1-1.68,1,4.07,4.07,0,0,0,1-2.19,3.77,3.77,0,0,1-1.68,1.71,8.94,8.94,0,0,0,1-3.08,7.34,7.34,0,0,1-2,3.37,9,9,0,0,0,1.16-3.26,6,6,0,0,1-1.26,2.91,6.33,6.33,0,0,0,.29-2.07,4.29,4.29,0,0,1-.8,1.9,40.83,40.83,0,0,1,.83-4.46c-1,3.21-1.37,4.87-1.37,4.87a7.45,7.45,0,0,1-.25-2.17,7.45,7.45,0,0,0-.26,1.92,3.72,3.72,0,0,1-.25-2.24,4.64,4.64,0,0,0-.47,1.67,20.74,20.74,0,0,1-.13-3.6,40.6,40.6,0,0,0-.61,4.74,3.79,3.79,0,0,1-.83-2.27,4.05,4.05,0,0,0,.16,2.77A14.25,14.25,0,0,1,418,7.89a14,14,0,0,0,.8,4.83l-2.57.31c-6.22.81-4.51-2.33-15.65.23a37.51,37.51,0,0,1-13.68.75c-5.14-.56-10.29-1.27-15.48-1-15.53.66-31.51,3.83-46.93.3-11.15-2.56-9.44.58-15.66-.23l-2.57-.31a14.08,14.08,0,0,0,.8-4.83,14.25,14.25,0,0,1-1.46,4.35,4.05,4.05,0,0,0,.16-2.77,3.79,3.79,0,0,1-.83,2.27A40.36,40.36,0,0,0,304.32,7a20.75,20.75,0,0,1-.13,3.6,4.64,4.64,0,0,0-.47-1.67,3.71,3.71,0,0,1-.25,2.24,7.45,7.45,0,0,0-.26-1.92,7.45,7.45,0,0,1-.25,2.17s-.37-1.67-1.37-4.87a40.83,40.83,0,0,1,.83,4.46,4.31,4.31,0,0,1-.8-1.9,6.33,6.33,0,0,0,.29,2.07,6,6,0,0,1-1.26-2.91,9,9,0,0,0,1.16,3.26,7.34,7.34,0,0,1-2-3.37,8.94,8.94,0,0,0,1,3.08,3.77,3.77,0,0,1-1.68-1.71,4.07,4.07,0,0,0,1,2.19,3,3,0,0,1-1.68-1,6.43,6.43,0,0,0,1.73,1.72,20.86,20.86,0,0,0-7.71,1.95c-5.58,2.56-11.8,1-20.16-.7s-21.23-2.33-29.81-2.91-14.37-.12-25.31.58-13.29.35-18-1.28c-4.24-1.46-7.79.26-12.19,1.3h0a6.32,6.32,0,0,0,1.46-2A3,3,0,0,1,187,10.63a4.08,4.08,0,0,0,.61-2.33,3.8,3.8,0,0,1-1.36,2,9,9,0,0,0,.49-3.22,7.31,7.31,0,0,1-1.39,3.67,9,9,0,0,0,.58-3.41,6,6,0,0,1-.74,3.08,6.29,6.29,0,0,0-.07-2.09,4.31,4.31,0,0,1-.45,2,41.32,41.32,0,0,1,0-4.54c-.42,3.33-.5,5-.5,5a7.42,7.42,0,0,1-.62-2.09,7.56,7.56,0,0,0,.08,1.93A3.72,3.72,0,0,1,183,8.48a4.66,4.66,0,0,0-.17,1.72,20.66,20.66,0,0,1-.75-3.52,40.73,40.73,0,0,0,.22,4.77,3.77,3.77,0,0,1-1.21-2.09,4,4,0,0,0,.6,2.66,14.4,14.4,0,0,1-2.15-4,16.75,16.75,0,0,0,1.33,4.12c-6.25.19-15.07-.42-17.89-1.31-3.65-1.14-17.16-3.74-20.37-4.78-2.52-.82-5.32-.71-8.78-.46a6.46,6.46,0,0,0,1.41-2,3,3,0,0,1-1.49,1.23,4.11,4.11,0,0,0,.62-2.34,3.79,3.79,0,0,1-1.36,2,8.9,8.9,0,0,0,.49-3.22,7.34,7.34,0,0,1-1.39,3.66,9,9,0,0,0,.58-3.41,6,6,0,0,1-.74,3.08,6.34,6.34,0,0,0-.08-2.09,4.31,4.31,0,0,1-.46,2,41.06,41.06,0,0,1,0-4.54c-.43,3.33-.5,5-.5,5a7.44,7.44,0,0,1-.62-2.09,7.27,7.27,0,0,0,.08,1.93,3.71,3.71,0,0,1-.64-2.17,4.66,4.66,0,0,0-.17,1.72,20.63,20.63,0,0,1-.75-3.52,40.26,40.26,0,0,0,.22,4.77,3.79,3.79,0,0,1-1.21-2.09A4.09,4.09,0,0,0,128.3,6h-.05a15.44,15.44,0,0,1-1.94-3.73A18.23,18.23,0,0,0,127.48,6,31.51,31.51,0,0,0,119,7.26c-3,1.08-6.43.9-13.94,1.13A51.17,51.17,0,0,1,85.57,4.67c-4.72-1.86-10.94-.7-13.51,0S66.27,5.83,49.33,9,0,10.37,0,10.37V26.49c9.27,0,18.46.81,27.76,1.11,4.36.14,7.78,2.18,11.91,3.18a61.24,61.24,0,0,0,14.41,1.73c12.55,0,24.92-1.05,37.45-1.05a345.28,345.28,0,0,0,45-2.48c6.66-.87,13.24-2.4,19.95-2.91,5.8-.44,11.85.42,17.74.42,10.92,0,22,3.64,32.82,2.52,6.48-.67,12.94-2.3,19.55-1.76,6.06.5,11.78,2.77,17.94,2.46,6.91-.34,13.78-1.12,20.73-1,8.23.08,16.49,1.44,24.74,1.83,13.19.63,26.5-.23,39.66.27,8.22.32,17,2.11,25,.28,2.43-.56,5.35-.84,7.9-1.67,2.55.83,5.47,1.11,7.9,1.67,8,1.83,16.77,0,25-.28,13.16-.5,26.46.36,39.66-.27,8.25-.4,16.51-1.75,24.74-1.83,7-.07,13.82.71,20.73,1,6.16.3,11.88-2,17.94-2.46,6.6-.54,13.06,1.09,19.55,1.76,10.82,1.12,21.9-2.52,32.82-2.52,5.89,0,11.94-.86,17.74-.42,6.71.51,13.29,2,19.94,2.91a345.28,345.28,0,0,0,45,2.48c12.54,0,24.9,1,37.45,1.05a61.25,61.25,0,0,0,14.41-1.73c4.13-1,7.55-3,11.91-3.18,9.3-.3,18.49-1.11,27.76-1.11V10.37S692.66,12.11,675.72,9Z"/></g></g></svg>