<svg xmlns="http://www.w3.org/2000/svg" viewBox="0 0 725.04 53.71"><defs><style>.cls-1{fill:#7f3b16;}</style></defs><title>Hill-Back</title><g id="Layer_2" data-name="Layer 2"><g id="Artwork"><path class="cls-1" d="M697.38,3c-10,2.79-29.88,4.1-43.56,6.3a13.78,13.78,0,0,0,0-3.7,11.9,11.9,0,0,1-.73,3.78,3.4,3.4,0,0,0-.17-2.33,3.16,3.16,0,0,1-.43,2,34.16,34.16,0,0,0-1-3.87,17.44,17.44,0,0,1,.29,3,3.92,3.92,0,0,0-.57-1.33,3.11,3.11,0,0,1,0,1.9,6.14,6.14,0,0,0-.42-1.57,6.24,6.24,0,0,1,0,1.83s-.49-1.35-1.67-3.9a34.23,34.23,0,0,1,1.18,3.61,3.62,3.62,0,0,1-.87-1.49,5.36,5.36,0,0,0,.47,1.69,5,5,0,0,1-1.37-2.28,7.57,7.57,0,0,0,1.33,2.58,6.13,6.13,0,0,1-2-2.58,7.5,7.5,0,0,0,1.2,2.45,3.16,3.16,0,0,1-1.59-1.24,3.46,3.46,0,0,0,1.09,1.71A2.47,2.47,0,0,1,647.06,9a5.34,5.34,0,0,0,1.68,1.26l-.12.06c-1.3.28-2.5.57-3.57.88-12,3.49-36.75,6.74-51.62,9.76s-30.79,7.2-51.78,4.65c-10.95-1.33-21.67-4.17-32.32-6.93-6-1.56-12-3.13-18.06-4.57-4.46-1.07-13.47-1.22-16.75-4.77-4.29-.55-7.86-3.65-12-5.13-6.87-2.48-15.32-4-22.55-2.65-5.46,1-9.21,4.73-14.83,5-2.76.12-5.57-.13-8.24.25-4.21.6-8.89,1.9-13.09,1.26-9.2-1.39-17.34-.67-26.4,1a70.94,70.94,0,0,0-7.77,1.45c-2.27.68-4.28,1.69-6.69,1.83-4.63.27-9.16-.87-13.83-.52-4.29.33-8.3,1.37-12.6,1.71-6.81.54-12.72.47-19.1-2.64-4.16-2-7.88-2.63-12.52-3-7.08-.63-13.72-1.44-20.89-1.21a209.94,209.94,0,0,0-26.92,2.7C228.4,14,204.38,23,183.39,25.59S146.48,24,131.61,20.94,92,14.66,80,11.18c-1.07-.31-2.27-.6-3.57-.88l-.12-.06A5.33,5.33,0,0,0,78,9a2.47,2.47,0,0,1-1.51.61,3.46,3.46,0,0,0,1.09-1.71A3.16,3.16,0,0,1,76,9.12a7.5,7.5,0,0,0,1.2-2.45,6.13,6.13,0,0,1-2,2.58,7.56,7.56,0,0,0,1.33-2.58A5,5,0,0,1,75.1,8.95a5.35,5.35,0,0,0,.47-1.69,3.62,3.62,0,0,1-.87,1.49,34.4,34.4,0,0,1,1.18-3.61C74.7,7.69,74.21,9,74.21,9a6.22,6.22,0,0,1,0-1.83,6.14,6.14,0,0,0-.43,1.57,3.11,3.11,0,0,1,0-1.9,3.93,3.93,0,0,0-.57,1.33,17.42,17.42,0,0,1,.29-3,33.85,33.85,0,0,0-1,3.87,3.16,3.16,0,0,1-.43-2,3.4,3.4,0,0,0-.17,2.33,11.91,11.91,0,0,1-.73-3.78,13.73,13.73,0,0,0,0,3.7C57.54,7.14,37.64,5.84,27.67,3,15.23-.45,0,0,0,0V53.71H725V0S709.82-.45,697.38,3Z"/></g></g></svg>