<svg xmlns="http://www.w3.org/2000/svg" viewBox="0 0 323.28 36.55"><defs><style>.cls-1{fill:#ede9d5;}</style></defs><title>May-Fourth</title><g id="Layer_2" data-name="Layer 2"><g id="Text"><path class="cls-1" d="M23.57,35.73H16.27a.61.61,0,0,1,.62-.71c.71,0,.76-3.37.8-3.66V10.5L11.05,33.17,4.28,9.88V31.36c0,.29.09,3.66.8,3.66s.62.71.62.71H0A.61.61,0,0,1,.63,35c.71,0,.76-3.37.76-3.66V4.47c0-.29,0-3.66-.76-3.66A.61.61,0,0,1,0,.09H5.93l5.88,21.14L17.69.09h5.88a.61.61,0,0,1-.62.71c-.76,0-.8,3.71-.8,3.71v26.8s0,3.71.8,3.71A.61.61,0,0,1,23.57,35.73Z"/><path class="cls-1" d="M45.63,33.17H38.36s-.22-.71.49-.71.22-3.47.18-3.66l-.49-2.95c-5-1.81-6.42,1.52-6.77,3.09-.13.71-.62,3.52,0,3.52s.49.71.49.71h-5.7a.8.8,0,0,1,.76-.71c.76,0,1.56-3.47,1.6-3.66L33.6,7c0-.19.76-3.66,0-3.66s-.45-.71-.45-.71h7.44s.22.71-.49.71S39.92,6.94,39.92,7l2.72,16.35c1.07-.81,0-2.19,0-2.19,2.81,0,3.48,4.32.53,5.23l.4,2.38c0,.09.62,3.66,1.38,3.66S45.63,33.17,45.63,33.17Zm-7.49-9.6L35.87,9.84,32.75,24.33A7.45,7.45,0,0,1,38.14,23.57Z"/><path class="cls-1" d="M62.65,2.66a.86.86,0,0,1-.8.71C61.09,3.37,60.15,6.46,60,7c-.85,4-3.43,16.06-3.43,16.06v5.7c0,.24.09,3.66.8,3.66a.61.61,0,0,1,.62.71H50.7a.61.61,0,0,1,.62-.71c.71,0,.76-3.37.76-3.66V24L48.43,7c0-.09-1.11-3.66-1.87-3.66a.86.86,0,0,1-.8-.71h7.31s.27.71-.4.71.18,3.33.27,3.66L55.2,17.44s1.47-7.79,2-10.41c.09-.48.8-3.66.22-3.66s-.45-.71-.45-.71Z"/><path class="cls-1" d="M91.92,20.05V24.8a.6.6,0,0,1-.71-.62c0-.43-.76-.62-1.6-.71v7.89c0,.09.09,3.66.8,3.66a.61.61,0,0,1,.62.71H83.72a.61.61,0,0,1,.62-.71c.71,0,.76-3.47.8-3.66v-8H76L74.9,20.19c4.68-5.61,9.31-15.82,9.45-17.49A.72.72,0,0,0,84,1.95v.14a1,1,0,1,1-2,0A1.81,1.81,0,0,1,83,.24a2.27,2.27,0,0,1,2.41.57c3.25,3.47-9.71,20.72-4.59,20.72h4.28V10.83H91a.61.61,0,0,1-.62.71c-.71,0-.8,3.56-.8,3.66v6.18c.85-.09,1.6-.29,1.6-.71A.6.6,0,0,1,91.92,20.05Z"/><path class="cls-1" d="M112.59,13.3A2.12,2.12,0,0,1,111.34,15a2,2,0,0,1-2.23-.43c-2.76-2.71,2-10-2.36-10.12h-1V28.79c0,.19.09,3.66.8,3.66a.61.61,0,0,1,.62.71H99.84a.61.61,0,0,1,.62-.71c.71,0,.76-3.37.76-3.66V4.42h-1c-4.32.09.36,7.41-2.36,10.12a2,2,0,0,1-2.23.43,2.08,2.08,0,0,1-1.25-1.66,1.09,1.09,0,0,1,1-1.14A1.12,1.12,0,0,1,96.5,13.3s0,0,0,.09a.69.69,0,0,0,.31-.76c-.13-2.14-2.23-7.65-2.23-10h17.91c0,2.33-2.09,7.84-2.23,10a.75.75,0,0,0,.27.76V13.3a1.12,1.12,0,0,1,1.07-1.14A1.09,1.09,0,0,1,112.59,13.3Z"/><path class="cls-1" d="M131.3,23.85v4.94s0,3.66.8,3.66.58.71.58.71h-7.31s0-.71.62-.71.8-3.47.8-3.66V22.57c-5.39-1.9-5.3,4.13-5.3,4.13v2.09s0,3.66.8,3.66a.61.61,0,0,1,.62.71h-7.31a.61.61,0,0,1,.62-.71c.71,0,.76-3.47.76-3.66V7c0-.19,0-3.66-.76-3.66a.61.61,0,0,1-.62-.71h7.31a.61.61,0,0,1-.62.71c-.76,0-.8,3.71-.8,3.71V21.57l.67-.43a5.83,5.83,0,0,1,4.63-.48V7c0-.19,0-3.66-.8-3.66s-.62-.71-.62-.71h7.31s.09.71-.58.71-.8,3.71-.8,3.71V20.62a1,1,0,0,0,.4-1.28c3,.14,2.36,4,.09,4.47C131.61,23.81,131.43,23.85,131.3,23.85Z"/><path class="cls-1" d="M147.07,18.67V17.15H161v1.52Z"/><path class="cls-1" d="M182.75,35.73h-7.31a.81.81,0,0,1,.8-.71c.71,0,1.65-3.42,1.74-3.66l7.57-29.51h-5.08c-4.32.09.36,7.41-2.36,10.12a2,2,0,0,1-2.23.43,2.28,2.28,0,0,1-1.11-1.09,1.33,1.33,0,0,1-.13-.57,1.09,1.09,0,0,1,1-1.14,1.12,1.12,0,0,1,1.07,1.14s0,0,0,.1a.69.69,0,0,0,.31-.76c-.13-2.14-2.23-7.65-2.23-10h15.73l-8,31.27s-.94,3.66-.18,3.66S182.75,35.73,182.75,35.73Z"/><path class="cls-1" d="M210.87,13.3A2.12,2.12,0,0,1,209.62,15a2,2,0,0,1-2.23-.43c-2.76-2.71,2-10-2.36-10.12h-1V28.79c0,.19.09,3.66.8,3.66a.61.61,0,0,1,.62.71h-7.31a.61.61,0,0,1,.62-.71c.71,0,.76-3.37.76-3.66V4.42h-1c-4.32.09.36,7.41-2.36,10.12a2,2,0,0,1-2.23.43,2.08,2.08,0,0,1-1.25-1.66,1.09,1.09,0,0,1,1-1.14,1.12,1.12,0,0,1,1.07,1.14s0,0,0,.09a.69.69,0,0,0,.31-.76c-.13-2.14-2.23-7.65-2.23-10h17.91c0,2.33-2.09,7.84-2.23,10a.75.75,0,0,0,.27.76V13.3a1.12,1.12,0,0,1,1.07-1.14A1.09,1.09,0,0,1,210.87,13.3Z"/><path class="cls-1" d="M229.58,23.85v4.94s0,3.66.8,3.66.58.71.58.71h-7.31s0-.71.62-.71.8-3.47.8-3.66V22.57c-5.39-1.9-5.3,4.13-5.3,4.13v2.09s0,3.66.8,3.66a.61.61,0,0,1,.62.71H213.9a.61.61,0,0,1,.62-.71c.71,0,.76-3.47.76-3.66V7c0-.19,0-3.66-.76-3.66a.61.61,0,0,1-.62-.71h7.31a.61.61,0,0,1-.62.71c-.76,0-.8,3.71-.8,3.71V21.57l.67-.43a5.83,5.83,0,0,1,4.63-.48V7c0-.19,0-3.66-.8-3.66s-.62-.71-.62-.71H231s.09.71-.58.71-.8,3.71-.8,3.71V20.62a1,1,0,0,0,.4-1.28c3,.14,2.36,4,.09,4.47C229.89,23.81,229.71,23.85,229.58,23.85Z"/><path class="cls-1" d="M236.39,33c-.76-.38-2-.9-2-2.33a2.34,2.34,0,0,1,2.23-2.38c3.88,0,2.94,8.55-1.07,8.22C236.93,35.49,237.24,33.59,236.39,33Z"/><path class="cls-1" d="M269.27,24.85s-1.51,4,0,10.88H253.72c0-9.36,12-15.77,12-26.32,0-4.18-1.47-7.37-4.95-7.37-5.17,0-5.08,5.84-3.07,7.79.8.76,2.72,1.85,4,.14,2,2.85-.58,4.32-2,4.47-4.05.38-7.62-3.8-6-8.88A7.89,7.89,0,0,1,261.21.09c7.66,0,8.82,5.75,8.82,9.31,0,10.07-10.34,15.87-13.28,22.76h7.35c2.72,0,3.16-4.28,3.16-5.8C267.27,24.28,269.27,24.85,269.27,24.85Z"/><path class="cls-1" d="M289.77,17.91c0,9.84-3.7,17.82-8.29,17.82s-8.29-8-8.29-17.82S276.89.09,281.48.09,289.77,8.08,289.77,17.91Zm-4.5,0c0-8.41-1.69-15.25-3.79-15.25s-3.79,6.84-3.79,15.25,1.69,15.25,3.79,15.25S285.27,26.32,285.27,17.91Z"/><path class="cls-1" d="M301.48,35.73h-7.31s0-.71.62-.71.8-3.47.8-3.66V5.08a2,2,0,0,1-.76.14,2.15,2.15,0,0,1-2-1.28A2,2,0,0,1,293,1.76a1.07,1.07,0,0,1,1.56,0,1.12,1.12,0,0,1,0,1.57l-.09.1a.79.79,0,0,0,.76-.38,9.14,9.14,0,0,0,1-2.9h3.79V31.36c0,.09,0,3.66.8,3.66S301.48,35.73,301.48,35.73Z"/><path class="cls-1" d="M323.23,25.66c-.22,2.66-2.58,10.07-9.22,10.07s-9-7.41-9.27-10.07c-.45-5.51,2.32-9.5,5.17-10.83a9.56,9.56,0,0,1-3.07-6.94C306.83,4,309.32,0,314,0s7.17,4,7.17,7.89a9.39,9.39,0,0,1-3.12,6.94C320.91,16.16,323.72,20.15,323.23,25.66ZM314,16.44c-3.43,0-5,5.65-4.77,9,.18,2.8,1.51,7.51,4.77,8,3.21-.47,4.54-5.18,4.72-8C318.95,22.09,317.43,16.44,314,16.44Zm0-2.66c2.81,0,3.79-3.66,3.79-5.75,0-3.14-1.29-6.08-3.79-6.08S310.22,4.89,310.22,8C310.22,10.12,311.15,13.78,314,13.78Z"/></g></g></svg>