<svg xmlns="http://www.w3.org/2000/svg" viewBox="0 0 39.4 39.16"><defs><style>.cls-1{fill:#faae3e;}</style></defs><title>Moon-Star</title><g id="Layer_2" data-name="Layer 2"><g id="Logo"><path class="cls-1" d="M31.61,28.11A19,19,0,0,1,13,0,20.26,20.26,0,1,0,39.4,25.5,18.93,18.93,0,0,1,31.61,28.11Z"/><path class="cls-1" d="M35.31,8.92a.52.52,0,0,0-.39-.14h-.09C30.28,8.2,28.51,3,28.49,3s-.05-.05-.08-.08a.33.33,0,0,0-.1-.1.5.5,0,0,0-.15,0,.49.49,0,0,0-.13,0H28s-.08,0-.12.06a.5.5,0,0,0-.14.07.33.33,0,0,0-.08.12s-.05.06-.06.09-.68,5.72-5.25,7.11a.44.44,0,0,0-.27.22.33.33,0,0,0-.1.2.39.39,0,0,0,.4.36c4.77.36,6.69,5.74,6.71,5.8s.06.06.09.1,0,.06.08.08a.52.52,0,0,0,.2,0s.06,0,.1,0h.08s.06,0,.1-.05a.5.5,0,0,0,.17-.09.33.33,0,0,0,.06-.1s.06-.07.06-.11.57-5.49,4.87-7.06l.2,0a.45.45,0,0,0,.43-.37A.31.31,0,0,0,35.31,8.92Z"/></g></g></svg>