<svg xmlns="http://www.w3.org/2000/svg" xmlns:xlink="http://www.w3.org/1999/xlink" viewBox="0 0 91.75 13.93"><defs><style>.cls-1{opacity:0.2;fill:url(#linear-gradient);}</style><linearGradient id="linear-gradient" x1="108.98" y1="-116.79" x2="200.86" y2="-116.79" gradientTransform="matrix(0.98, 0.22, -0.22, 0.98, -131.23, 90.77)" gradientUnits="userSpaceOnUse"><stop offset="0" stop-color="#eddab8"/><stop offset="1" stop-color="#ece9d6"/></linearGradient></defs><title>Pretzel-Shooting-Star</title><g id="Layer_2" data-name="Layer 2"><g id="Artwork"><path class="cls-1" d="M28.39,4.74,16.53,2.84l-4.41-.71c-.63-.1-2-.79-2.6-.31l-.13-.12A3.3,3.3,0,0,0,8.2,1L8.14,1,7.68.9c-.19,0-.37,0-.56,0a2.83,2.83,0,0,0-1.28.29C5.64,1,5.46.79,5.25.63A2.93,2.93,0,0,0,4.33.17l-.08,0L3.79,0l-.5,0A3.09,3.09,0,0,0,1,.87,2.93,2.93,0,0,0,.31,2,3.91,3.91,0,0,0,.94,5.86L1,6l0,0-.21.11c-.19.1-.39.18-.57.29a.59.59,0,0,0-.22.8.6.6,0,0,0,.79.25c.36-.17.71-.35,1.06-.54a.13.13,0,0,1,.16,0,5.86,5.86,0,0,0,2.73,1.1A5.89,5.89,0,0,0,6.73,8a.13.13,0,0,1,.15.06l.69.9a.6.6,0,1,0,1-.73L8.1,7.69,8,7.6l.15-.07a2.28,2.28,0,0,1,1.23,0c.21,0,.41.09.61.11a5.59,5.59,0,0,0,.73,0H13.9l11.83-.08c6.24,0,59.78,6.5,66,6.46L44.62,7.35ZM2.17,5.46a3,3,0,0,1-.9-2.21A2.34,2.34,0,0,1,1.63,2a1.82,1.82,0,0,1,1.59-.84,2.14,2.14,0,0,1,1.45.51l0,0A1.62,1.62,0,0,1,4.89,2c.06.1,0,.17-.08.25a2.48,2.48,0,0,0-.2,1.22.21.21,0,0,1-.07.2c-.33.3-.65.62-1,.89S2.63,5.14,2.17,5.46Zm1,.79A12.85,12.85,0,0,0,5,4.88a12.9,12.9,0,0,0,1.07,2A4.62,4.62,0,0,1,3.17,6.24Zm4.71.07a5.11,5.11,0,0,1-.5.25.1.1,0,0,1-.1,0A11.53,11.53,0,0,1,6,4.19v0a.59.59,0,0,1,0-.6,2,2,0,0,0,.24-1.17.12.12,0,0,1,.08-.13,1.72,1.72,0,0,1,1-.17,2.14,2.14,0,0,1,1.52.76,1.81,1.81,0,0,1,.39,1.43c0,.07,0,.15,0,.23A2.72,2.72,0,0,1,7.87,6.31Z"/></g></g></svg>