<svg xmlns="http://www.w3.org/2000/svg" viewBox="0 0 202.04 52.96"><defs><style>.cls-1{fill:#6885bc;}.cls-2{fill:#71c0b3;}</style></defs><title>Splash</title><g id="Layer_2" data-name="Layer 2"><g id="Logo"><path class="cls-1" d="M181.56,4.71a31.19,31.19,0,0,0,4,1.3c-.67.6-2.58-.31-4.3.22C181,5.62,181.26,5.31,181.56,4.71Zm-48.3,3c.48-.43-2-.13-2.78-.22,0-.14,0-.26-.25-.22C130.33,8.25,132.35,7.53,133.26,7.76ZM145.9,8c1.45.06,3.22-.16,4.3.22C150,7.33,145.73,7.76,145.9,8Zm-42,.65A2.84,2.84,0,0,0,106.2,8C105.35,8.11,104.36,8.13,103.93,8.62Zm11.63.22c-1.29-.27-3.09-.1-4.3-.43C111.93,9.06,114.55,9.2,115.56,8.84Zm48,.22c1.61-.14,3.41-.11,4.55-.65C166.69,8.66,164.42,8.24,163.61,9.06Zm10.62-.44c-.77.14-2.18-.28-2.53.22C172.47,8.7,173.88,9.12,174.23,8.62Zm-45.52,2c.77-.13,2.18.28,2.53-.21C130,10.49,129.35,9.78,128.71,10.57Zm26.8.44c3.14-.12,5,.53,7.59-.44C160.42,11,157.37,10.32,155.51,11Zm-35.4.87c.77-.14,2.18.27,2.53-.22C121.5,11.55,120.77,11.28,120.11,11.88Zm20.23,0c-.49-.19-3-.84-4.3-.22C137.54,12,138.65,12.56,140.34,11.88Zm-9.61.21c-.11-.16-.89.18-.76.22.85.28,1.16-.21,2,.21h3c-.51-.5-2.1-.08-3-.21.24-1-1.14.11-1-.43.15,0,.3,0,.25-.22-1.78.14-4.29-.35-5.31.43.85-.11,3,.59,2.78,0-.37-.12-1.31.25-1.26-.21C129,12.09,130.28,11.46,130.73,12.09Zm-57.4.65c.85-.57,3.45.35,3.54-.87C75.48,12,73.72,11.77,73.33,12.74Zm65.24.65a2.87,2.87,0,0,0,2-.44A2.87,2.87,0,0,0,138.57,13.4Zm-93.05.44c-1.19.14-3-.29-3.79.21C42.91,13.91,44.75,14.33,45.52,13.83Zm-9.36,1.52c.92,0,2,.12,2.28-.44A4.19,4.19,0,0,0,36.16,15.35Zm-20.48.21c-1.22-.53-3.09.73,0,0ZM0,23.81c1.63-.1,3,.84,4-.22A11.43,11.43,0,0,0,0,23.81ZM43.24,27.5c3.34-.12.53-1-.76,0ZM7.33,29.67c-3.34.24.06.06,1.77.21,1.21.11,2.85,1,3.29.21-1.53,0-.72-.44,0-.65A13.7,13.7,0,0,0,7.33,29.67Zm-3,2.6c1.73-.36,4.62.28,4.55-.65C7.31,32.22,5.19,31.47,4.3,32.27Zm18.21.87c1-.31,1.84.57,2.28,0C24.59,32.8,21.86,32.8,22.51,33.14Zm5.06,2a6.09,6.09,0,0,0-3.54,0C24.8,35.3,26.84,35.56,27.56,35.09Zm22,9.11c-1.6,0-3.31-.09-4.3.44A29.22,29.22,0,0,0,49.56,44.2Zm-8.6.87c.83,0,2.41-.52,2.28-.65-.6.13-1.83-.27-2,.22C41.67,44.74,41.11,44.87,41,45.07Zm-14.67.22c.06-.79-2.45-.49-2.78-.22C23.88,45.41,25.64,44.71,26.3,45.29ZM169.17,8a18.2,18.2,0,0,1,4,0C172.65,7.15,168.75,7.71,169.17,8Zm-7.84,1.3c.5-.44,1.42-.52,2-.87-.75-.81-1.55.84-2.28,0-.18-.59,1.19.16,1-.43a44.45,44.45,0,0,0-6.57.43c.7.2,1.78.07,2.27.43h-2c-.26,1,1.9,0,2,.65-.42,0-2.29-.12-1.51.22,2,0,6.65.11,6.57-.22C162.4,9.36,161.36,9.75,161.33,9.28Zm24.28,0c-5.44-.52-9.42.68-14.67-.22.2,0,.5,0,.51-.22-2.34,1.27-4.22,1.18-7.59,2,6.65,0,15.22-1.38,19.22,1.74-.68.13-1.58-.64-2,0,1.12.41,2.83.32,4,.65,0-1.46,2.64-.63,3.54-1.3-.3-1.13-1.81-1.38-1-2.39,1.31.17,2.58.42,2,1.08.22-.32.38-.69,1-.65.33.31,1.16.55.51,1.09.6-.35,1.68-.29,2-.87-1.36-.35-1.5-1.75-2.78-2.17-.43.13,0,1-.51,1.09-3.33-.11-6.68-1.35-9.86-.87C182.22,8.27,184.35,8.4,185.61,9.28Zm-3,2.39c.38-.39,1.57.37,2.27.43C184.08,12.81,183.18,11.8,182.57,11.66ZM112,12.09c-.31,0-.6-.06-.51-.43a42.23,42.23,0,0,1,8.09.43c-3.51-1.54-10.53-.08-13.91-1.74-.09.5-1,.29-1.27.65,2.54.41,4.35.15,6.83.65-5.52.6-13.69-1.14-19.72-.22.05-.27.39-.44-.25-.44-2.56,0-3.7.13-6.07,0-3.46,2.37-10.81,2.48-15.68,2,1-.07,2.52.28,2.53-.65-3.67-.35-7.35,1-10.62,1.08.53.13,1.66-.27,1.77.22-6.57,0-9.78.34-13.4.22-.9-.12-3.82.13-1.52.21,1.1.14,2.86-.28,3.54.22-4.05.46-6.67-.1-9.86.87,1.25.12-.26.11-.25.43,4.45.46,8.49.25,11.89,1.3-.83.09-3.44-.22-3,.21,1.18.14,3-.28,3.79.22-7.08-.21-15.82.2-21.75.44-.11,0-3.34.25-2,.43,5.25,1.44,13.46.12,19.47-.43-.63,1.18.47-.07.76.87,2-.67,4.41.1,7.08.22-4.3.44-10.2-.41-13.66.21,1,0,2.07,0,2.53.44-2.19.1-4.08-.32-4.81.65,3.23.24,6.57.06,9.86.65-2.33-.17-4.09.31-.76.22,2.73.12,6.16-.36,7.84.65-3.38.22-7.59-.42-9.86.22.31,0,.6.06.51.43-1-.23-3.36.29-2.53.21,1.91.72,4.28-.35,6.83.44-3.28.32-6.51-.42-8.6.65.52.13,1.66-.27,1.77.22-.86,0-1.77-.07-2,.44,2.38-.28,6,.56,7.58-.44a9.73,9.73,0,0,1-3.54-.22c2.35-.16,5.52-.9,7.59,0-1.13.33-2.41-.37-3.54.22.48.1,1.52-.29,1.27.44-.72.3-1.38-.67-1.27.21,1.3,0,2.92-.19,3.54.44a16.24,16.24,0,0,0-3.79.22c-.4,0-.2-.56-.76-.44-1.22.43-3,.12-3.79.44H45.77c-.43-.05-.63.24,0,.21h1.52c2.9.12,6.47-.34,8.35.65-.53.13-1.66-.27-1.77.22,3.31.63,7.48.41,10.11,1.08-4.93,1-9.43-.82-13.4.65.78-.53-.55.39-.51-.22s1.39,0,1.26-.65c-1.78-.45-2.55,1.45-3.54,0-1.4,2.11-6.77.47-9.61,1.09-1.17.25-3,1.31-4.55.44.27-.16,1.93-.19,1.26-.44-1.1,0-1.41.67-2.78.44,0-.29.44-.2.5-.44-5.16.25-16.25-.67-20.23-.21-2.79.32,1.76.45,3,.43,0,.22-.2.26-.25.44A58.65,58.65,0,0,1,34.9,30.54c3.33-.74,7.13-.14,9.61.22-1.37.88-6.79-.51-5.56.22a29.12,29.12,0,0,0-7.59,0c.59.58,2.72-.16,3.29.43-7.11,0-12-.87-17.7-.22-.47.05.14.36-.25.43-1.73-.12-1.14.38.25.22a62.78,62.78,0,0,1,15.43,1.08c-.87.95-4.64.15-6.83.22-1.23.07.24.34.76.22,1.47.47,5.76,0,7.59.87-.45.12-1.49-.26-1.52.21a11.12,11.12,0,0,1,2.53.43c-.59.82-3.44.76-1,.22-1.64.38-3.49-.84-4,0,1.49.19,1.28-.05,2.53.65-.56,0-2.46-.11-1.52.43a11.15,11.15,0,0,1,3-.43c2.42.87,12.8.26,16.69,1.73a57.8,57.8,0,0,0-10.11.44c1.93.2-.78.34-.76.87,1.28,0,2.59-.05,3.29.43-4.35,0-8.61,0-12.64-.22-.73.36,1.29.17,1.77.22,5.18.91,13.45-.84,17.45,1.08.95-.66,2.16.31,3,.44-2.14.59-4.58-.28-6.57.21-1.67.36,2,.18,2.28.22,2.23.28,5.84,1.2,7.84,1.3-1.68.15-3.35-.08-5.56,0-1-.16-2.66.24-.76.22H53.1c2.73.92,9.92-.49,11.63.87-.14-.11-.84.07-.76.22,1.6.08,3.48-.09,4.3.65-2.35-.26-5.92.23-6.83-.65a5.35,5.35,0,0,0-2.53,1.08,43.41,43.41,0,0,0-7.08-.22c.45,0,1.26-.22,1,.43a31.3,31.3,0,0,0-10.37.22c3.59.32,8-.07,11.13.65-4.16.12-9.2-.52-11.63,1.09a52.83,52.83,0,0,0,5.31-.22c0,.34,0,.75.5.66,3.71.41,5.48-.7,8.35.21a6.16,6.16,0,0,0-2,.65c1.75.2,3.13-.42,3.79,0-.6.44-3.16.32-3,.65,1.08-.09,2.61.21,3.29-.22,0,.26,0,.62.25.65a59.42,59.42,0,0,1,8.6,0c10.85.79,22.26,1.07,33.38,1.74,2.47.14,4.87.33,7.33.43,18.17.74,36.59-1.52,55.12-.65,0,.59-.42.44,0,.87,5.6.37,13.84.38,18.71.87-.23-.06-1.11-.59-.5-.65,3.27.34,2.39-2.87,5.56-2.6-.62-2.51.36-5.6,3.29-6.29-.15-.3-1,0-1-.43,3.43-3.06.71-5.17,2-8.68-1.48-.9-.28-2.22-1.77-2.82.56-.39,1.66-.31,1.77-1.09-.59-.07-1.09-.22-1.27-.65.41-1.07,0-2.2.51-2.39.18-.8-1.08-.37-1.26-.87,1.28-.35.3-2.64,2-2.6-.62-.89-.13-1.43-1-2,1.8-3-1.73-5.11-.76-6.95,1,.61.14.17,1,0-1.1-.71-3.1-.67-4-1.52-6.71.2-11.93-1.56-19-1.73.15-.3,1,0,1-.44-1.2-.09-1.74.39-3,.22-.22,1,.83-.15.76.43-4.11.73-9.33.11-13.91-.22.38,0,.93.08,1-.21-3.63.46-7.23.08-9.61,1.08a31.46,31.46,0,0,1,7.08.43,19.61,19.61,0,0,1-7.59.22c0,.62-.72.55-1,.87-1.45-.46-7.65.65-9.61-.65-2.78,1.06-7.77-.21-10.37.22a4.15,4.15,0,0,1,2.28.44c-4-.12-7.27-.4-10.87-.65-2.7-.19-5.71.44-8.09-.87C107.54,11.75,109.89,12.69,112,12.09Zm-10.87-.21c-.87.66-3.23.67-5.31.87C97.57,11.94,99.2,12.33,101.15,11.88Zm-9.36,1.3a6.38,6.38,0,0,1-2.53.87A3,3,0,0,1,91.79,13.18Zm6.57.65c.42-.87,2.58-.25,3.79-.44C103.71,13.79,99,13.61,98.37,13.83ZM92.55,14c.35-.49,1.76-.08,2.53-.21C94.73,14.32,93.32,13.91,92.55,14ZM56.39,24.25c-.08-.5,2.18.13,2.53-.44.37.1-.1.28,0,.65C58.06,24.4,56.87,24.63,56.39,24.25Zm3.29.21c-.12.69-1.68.15-2,.66C56.87,24.49,59.17,24.68,59.68,24.46ZM47.54,31.19c-.65,0-.31-.16-.25-.43.94-.22,3.14.15,4.81,0,.51-.13,2,.15.76.22C50.43,30.87,49.79,31.52,47.54,31.19ZM152.23,9.28c.36-.57,3.56.17,2.78-.65C154.92,9,151.62,8.44,152.23,9.28Zm-57.91.65c1.3.11,5.64-.12,2.27-.21-.71-.29-1.8,0-2.53-.65-.95.56-3.32-.1-3.54,1.08C91.34,9.64,95.55,10.79,94.32,9.92ZM84,9.71c-.22-.17-.79.21-.76.21,1.61.22,4.11-.13,3.79.87.64-.63,2-.49,2.53-.65-.45-.11.11-.23.25-.43a18.09,18.09,0,0,1-4.55,0c0-.29.44-.2.5-.43-2.13-.21-9.55,1-4.55.43a.93.93,0,0,1-.25.65C81.71,10.28,82.86,8.86,84,9.71Zm-4.8,3c1.26-.82,5.42-1.39,5.31-2C82.45,11.1,79.16,10.78,79.15,12.74Zm38.44.22h2c-.11-.48-1.25-.09-1.77-.22s-.78-.73-1,0C117.19,13.22,117.44,12.47,117.58,13ZM38.94,24.46a7.25,7.25,0,0,0,2.28-1.09c-.69.29-3.08.24-2.78.65.38,0,.93-.08,1,.22C39.09,24.23,38.48,24.29,38.94,24.46Zm-3,1.09c1.13.26,3.81.29,3.79-.65C38.74,25.41,36.82,24.62,35.91,25.55Zm11.38.87c.23-.46,1.43-.08,1.52-.65H47.29C47.39,26.14,46.91,26.32,47.29,26.41Zm-9.1,1.3c1.36-.24,3.56,0,3.79-.65C40.82,27.37,39,27.14,38.18,27.71ZM35.91,38.35c-.55-.66-1.31-.13-2.28,0-1.6-.17-2.77.31-.5.22,1.1-.14,2.86.28,3.54-.22-.63.29-.79-.86-1-.22C35.81,38.14,36,38.16,35.91,38.35ZM184.09,52.66c.45-.3,1.69.56,3,.22C187.15,51.24,183.89,52,184.09,52.66Z"/><path class="cls-2" d="M184.45.63c-.71.52-1.52-.45-2.59-.18C182.21-.26,183.68.57,184.45.63ZM163.52.44c-.36.14-4-.38-3.7.37,1.18-.21,2.89.07,4.82-.37Zm-10.74.74c1.15-.1,2.65.09,3-.56-8.3.92-19,.95-26.49,2.41C136.56,2.57,144.89,1.86,152.77,1.19Zm-4.45,1.3c.51.29,1.62.08,2.78,0,.5,0,2.3.16,1.67-.19-1.95,0-3.06.08-4.08-.55C148.6,2,148.42,2.21,148.33,2.48Zm-41.49.18c.73-.2,1.81,0,2.41-.37C108.65,2.18,107.34,1.86,106.83,2.67ZM136.47,3c.22,0,.53,0,.56.18-.21,0-.29.21-.37.37.64-.1,2.35-.11,2.22-.37-1,0-.53,0-.37-.56C138.07,3,136.85,2.62,136.47,3Zm40.75,0c-.81-.31,1.37-.06.56-.37a2.15,2.15,0,0,0-1.67.37C176.64,2.78,177.05,3.54,177.22,3Zm14.26,0c-.56.12-1.6-.24-1.85.18C190.2,3.11,191.23,3.46,191.49,3Zm.74.74c.68,0,2.52.18,1.85-.56A3.15,3.15,0,0,0,192.23,3.78Zm5.56,36.5c-.07-.5.77-1.66,0-1.67C198.12,39.52,196.89,39.93,197.78,40.28Zm-42.6,3.15c.62-.12,1.72.24,2-.18C156.38,43.17,155.77,42.93,155.18,43.43Zm-33.71,1.85c1.22-.14,3.48.55,3.89,0C123.69,45,122.56,44.5,121.47,45.28Zm-4.63.19c.62-.12,1.72.24,2-.19C118.44,45,117,45,116.84,45.47Zm-3.33.18c.09-.66-1.66-.42-1.85-.18C112.13,45.77,112.93,45.17,113.5,45.65ZM190.37.82c.16-.66,1,.48,1.11-.19-.55,0-1.2-.88-1.48-.56C190.74.13,189.87.65,190.37.82ZM55,11.56c-.54.43-.18,1.47-1.3,1.67,0-.29-.54-.13-.18,0,.06,1.43-2.17,1.45-3.33,1.48.8.31,2.36-.13,2.41.93-.46,0-.9,0-.93.37,1,.06,1.95.15,1.85,1.3-.28-.15-1.61,0-1.48.19.33.42,1.2-.18,1.48.18.93,1.22-.56,4.58-1.48,3.89.11.32.88,0,.93.37-.33.31-.46.89,0,1.11v-.92c.33-.29,1.56-.65,2-.19-.31,1,0,1.47-.74,1.85-.69-.06-1.9-.57-2.41-.19.56.24,1.49.12,1.85.56-2.2.1-.38-.05.19.55a3.17,3.17,0,0,0-.56.74c.27.41.45-.23.56.18-.59.35.13.86-.56,1.11-.44.11-1.35-.23-1.48.18.61.32,1.95-.09,1.67,1.11-.28,0-.68-.07-.74.19,1.11,0-.25.25.56.55.06.43-.54.21-.56.56.93,0,.29.65,0,.93-.38.11-1.22-.23-1.3.18.35.27,1.23,0,1.48.37-.31,0-1.68-.1-1.11.18.87-.07,1.53.08,1.67.74-1-.26-1.87.59-1.48,1.11.2-.17.06-.68.56-.56,0,.24.32.17.37.37-.67.83.28,1.34.74,2-.28.22-.76.23-.93.56.89.15,2-.46,2.41-.18-.25,1.24.53,1.44.74,2.22a2.2,2.2,0,0,1-1.3,1.3c1.23.41-1,1.31-.74,1.3.82-.1,2.23.2,1.3.74.27.1,1-.22.93.18-.27.1-1-.22-.93.19.14,0,.37,0,.37.18-.1,0-.21.15,0,.18a4.54,4.54,0,0,1,3.89,0c-.24.44-2.08.26-1.85.56.82,0,3.1-.19,2,.56a16.19,16.19,0,0,1,8.33.74c-.5.24-2.09.37-1.85.74.8-.9,1.07.92,1.48.37-.14,0-.22-.16-.18-.37.41.2.57-.51,1.11-.56,4.07-.37,11.75,2.26,15.74,1.85-.14,0-.37,0-.37-.19,5.92.66,14.37,0,21.3.37a.9.9,0,0,0-.93.37h2.59c-.66-1.19,1.08.41.18-.56,1.19-.07,2.36.85,3.52.19a.91.91,0,0,1-.93-.37c5.76.29,11.71-1.68,16.86,0-.14,0-.37,0-.37.19,5.88-.3,8.42-.68,14.26-.93a.87.87,0,0,1-.19.56,1.52,1.52,0,0,0,1.11-.37c-.2-.58-.92-.07-1.48-.56,1.59.24,2.18-.7,3.15-.18-.44.36-.88-.19-1.3.37,1.48.11,2.4-.32,3.89-.19.41-.27-.23-.45.19-.56.07.76,1.94-.62,1.11.37,1,0,2.59.38,3.33-.19-.37-.31-1.37,0-1.67-.37,1.09-.55,2.92-.25,4.26,0-.88.13-1.22-.16-1.48.37,1,.37,1-.5,1.85,0,.07-.32-.28-.47,0-.56,1.8-.05,2.57-.23,4.63-.18,0,.19-.15.22-.19.37.32-.11,1.09.22,1.11-.19-.22,0-.53,0-.56-.18.4-.1,1.52-.44,1.85,0-.42.4-.81-.24-1.11.37,1.19-.05,2.06.5,2.59-.37.32.33,1,.66.37.93.76-.23,2.7-.26,2.78-.56-2.89.11-1.47-.71.74-.37,0,.24-.24.26-.19.56,5.13-.11,10.21.66,14.63.19-.14,0-.37,0-.37-.19.7,0,1.17,0,.56.37,1.35,0,3,.6,3.52-.56a1.92,1.92,0,0,1-1.85-.74c3-.58,2.13-.35,4.82,0-.35-.94,1.77-1.63,1.48-.74,2.4-.25,3.34-2,5.56-2.41,0,.35-.61.13-.56.55,1.64-.34,1.59,1,3.15.74.08-.63-.55-.56-.74-.93a.81.81,0,0,0,.74-.37c-.5-.08-.25-.8-.18-.93.78.21.44.11.18-.37,1.09-.33,1.71.44,3,0,0-.82-.52.09-.74-.37.51-.49-.14-.65-.19-1.11.43-.37,1.61-.58.55-.92.69-.38,1.09.87,1.11,0-.59,0-.62-.49-1.3-.37.52-.46-.5-1.62-.74-1.3a.19.19,0,0,1,0,.37c-.47,0-1,0-.93-.55.54-1.2,1.58-1.3,3-1.3.11-.45.11-.82.74-1.11.22.05.7.75.93.18a.69.69,0,0,1-.74-.74,1.16,1.16,0,0,1,1.3,0,2.41,2.41,0,0,1-.37-1.11c-2-.49-1.44-3.21-2.59-4.63,0-.6.68-.43.93-.74-.16-.45-.9-.33-1.11-.74.16-.64,1.43,0,1.11-.37a1.79,1.79,0,0,0-1.48,0c.14-.48-1.19-1-.37-1.48-.61-.16-.75-.24-1.11-.93.68.12.71-.4,1.3-.37-.47-.4-.49-.58-.56-1.67.42.05.7,0,.74-.37-.64-.53-.81-1.53-1.3-2.22.31.52,1.27-.29.74-.56-.58.62,0-.53-.19-1.11a1.58,1.58,0,0,1-1.11-2c.06.69-.86-.11-.93,0,.7-.68-1-.92-.37-1.48.73.2.59,1.26,1.3,1.48.33-.47-.21-.9.37-1.3-.86,0-1-.73-1.3-1.3.64,0,1.41.46.74.74.24,0,.91.54.93.18-.65-.53.47-.12.37-.37a2.15,2.15,0,0,1-1.67-2.22c1.54-.29,2,1.1,2.78,2,0-2.13-1.58-2.74-2.78-3.71.09-.51,0-1,.56-.93a13.49,13.49,0,0,0-3.15-.37c.14,0,.37,0,.37.18-.29,0-.64,0-.56.37.93-.13,1.72.48,1.67-.19.19.66.82-.16.74.56-.81.18-3.58-.08-3-.93-.61.32-.93,0-1.3-.37.6-.15,1.6.23,1.67,0-.76-.5-2-1.43-2.78-.37.22,0,.53,0,.56.18a11.71,11.71,0,0,1-6.3,0,21.69,21.69,0,0,0,4.63-.37c-.22,0-.53,0-.56-.18,1.06-.13,1.56.11,2-.37-3-.71-5.58,1-9.26.74,0-.46,0-.9.37-.93.25,0,.69.62.74.18-.21,0-.29-.2-.37-.37,2.55-.3,4.68.36,5.74-.56a4.4,4.4,0,0,1-3.15-.93A2.43,2.43,0,0,0,187,.82c-.32.05-.92-.52-1.11,0,.22,0,.44.06.37.37-1,.49-1.71.24-2.41.93.35.09.8-.57.74.18-1.08-.15-2.4.23-3,0,0,1,1.49-.23,1.67.37-1.64.77-4.19.3-5.93.56.14,0,.37,0,.37.19-6.72,0-14.2-1.07-21.12-.19-.57.07-1.11.36-1.67.37-8.3.19-16.61.91-25.19.56-.9,0-2.16-.45-3,.56,1,.12,2.47-.24,3.15.18-3.45-.11-6.85.6-9.63-.18a38.33,38.33,0,0,0,6.11-.37c-2.17-.19-5.91,0-8.71-.37,3.3-.59,8.27-.29,10.74-1.11-1.38,0-3.26-.43-4.63.37V2.85c-6.25,1.34-17.41.53-24.64,1.3.29,0,.64,0,.56.37A64.79,64.79,0,0,0,92,4.71c.44,0-1.82.61-1.85,0,0,.12,2.35-.18.93-.18-7.15.36-14.2-1.13-20.38-.74.27.1,1-.22.93.18a28.46,28.46,0,0,1-10.19.56c-1.62,1.72-4.91-.23-6.48,1.3.67.45,1.66.56,2,1.3C55.73,8.43,53.92,9.21,55,11.56ZM196.86,8.23a16.09,16.09,0,0,1-3-1.48C194.57,6.82,196.57,7.15,196.86,8.23ZM155.55,4c-.9.51-1.58.14-2.78.19A5,5,0,0,1,155.55,4ZM172,4.52a1.7,1.7,0,0,1,2,0c1.08-.93,1.91-.6,4.07-.74-.44,1.06-2,.17-2.41.56,1,.29,3.42.28.74.37-.44,0-.54.32-1.11.18C175.45,4,173.63,5.06,172,4.52Zm-21.86-.37c-.37.75-1.6-.17-2.59.37C147.85,3.79,149.34,4.3,150.18,4.15Zm-44.09.37a5.51,5.51,0,0,1-2.78.18A4.33,4.33,0,0,1,106.09,4.52Zm4.45-.19c-.55.55-1,.23-2,.37C108.35,4.48,109.85,4.33,110.54,4.34Zm-30,.56c-.43-.19-4.73.83-5.37.19C75.64,5.55,79.54,4.34,80.53,4.89ZM195.19,8.6c.35-.58.66.43.93.56-.32.6-.49-.48-1.11-.18,0-.18.23-.14.37-.19S195.3,8.61,195.19,8.6Zm2.59,20.94c0-.26,1.21-.12,1.11.37H198C198,29.69,197.93,29.57,197.78,29.53Zm1.67.56c-.06.49-.49.63-.93.74C198.56,30.31,198.85,30,199.45,30.09Zm-.19,2.23c-.2,0-.13-.37-.37-.37-.13-.51.37-.37.37-.74C199.27,31.8,200,31.61,199.27,32.31ZM135.73,43.43c-.41.75-1.73.09-2.22.37C134.06,43.18,134.69,43.1,135.73,43.43Zm4.26-.18a3.39,3.39,0,0,1,2,0A3.34,3.34,0,0,1,140,43.24Zm-7.59.56c0,.4-.66.08-.93.18,1.74.73,4.68-.32,7.22,0,1,.11-.37.27-.74.19h-1.48a74.18,74.18,0,0,1-9.63.37C128.31,43.9,130,44,132.4,43.8ZM103.69,1.74c.3-.44,1.63.15,1.67-.56-1.89.36-3,.21-4.26.56.69.54,1.74-.1,2,.55-.27.1-1-.22-.93.19.54.55,1.66-.21,2,.18C105,2.18,104.41,2.41,103.69,1.74ZM132,4c.65-.65,3,.4,3.33-.55C134.37,3.92,131.93,2.91,132,4Zm-43-1.67C80.37,2.49,70,1.53,63.67,3c1.83-.42,4.2,1.07,6.3.37-.54-.32-1.75,0-1.85-.74,2.31.17,4.13-.56,6.3-.18-.34.47-2.69-.1-2.41.37,4,0,8.8.69,11.11,0,6,.65,11.67.18,18-.37-.91-.55-2.17.38-2.78-.37.73-.26,2.07.09,2.41-.56-3.95.34-9.94.66-12.23.93C88.71,2.45,89,2.51,89.05,2.3Zm8.15,0c-.84.19-2.32.58-3.15.19C94.73,2,96.28,2.07,97.2,2.3Z"/></g></g></svg>