<svg xmlns="http://www.w3.org/2000/svg" xmlns:xlink="http://www.w3.org/1999/xlink" viewBox="0 0 172.58 126.62"><defs><style>.cls-1{isolation:isolate;}.cls-2{fill:#535357;}.cls-3{fill:#8a7152;}.cls-4{fill:#343228;}.cls-5{fill:#737b75;}.cls-6{fill:#8d8f91;}.cls-7{fill:#262826;}.cls-8{fill:#d2cbbe;}.cls-9{fill:#f2f2f2;}.cls-10{fill:#d5d7d7;}.cls-11{fill:url(#linear-gradient);}.cls-12{fill:#848489;}.cls-13{fill:#2e3032;}.cls-14{fill:#005e8e;}.cls-15{fill:#0675ba;}.cls-16{fill:#2c2923;}.cls-17{fill:#d0ad5b;}.cls-18,.cls-20{fill:none;stroke-miterlimit:10;}.cls-18{stroke:#2c2923;stroke-width:0.22px;}.cls-19{fill:#d62728;}.cls-20{stroke:#7d7467;stroke-width:0.31px;}.cls-21{fill:#100e0d;}.cls-22{fill:#8eb3c1;}.cls-23{mix-blend-mode:multiply;}.cls-24{fill:#231f20;}.cls-25{fill:#fff;}</style><linearGradient id="linear-gradient" x1="-2.02" y1="107.72" x2="123.24" y2="92.94" gradientUnits="userSpaceOnUse"><stop offset="0" stop-color="#c6c8c9"/><stop offset="0.09" stop-color="#939598"/><stop offset="0.34" stop-color="#939598"/><stop offset="0.52" stop-color="#a7a9ac"/><stop offset="0.64" stop-color="#cbcdcf"/><stop offset="0.7" stop-color="#e6e6e6"/><stop offset="0.71" stop-color="#d9d9d9"/><stop offset="0.72" stop-color="#dedede"/><stop offset="0.78" stop-color="#acadaf"/><stop offset="0.82" stop-color="#bdbec0"/><stop offset="0.91" stop-color="#989a9d"/><stop offset="1" stop-color="#939598"/></linearGradient></defs><title>Asset 3</title><g class="cls-1"><g id="Layer_2" data-name="Layer 2"><g id="Artwork"><path class="cls-2" d="M105.82,90.6a9.84,9.84,0,0,1-.81-7.49,8.6,8.6,0,0,1,5.25-5.51c1.83-.78,4.22-.42,6.23-.42,3.58,0,7.13-.49,10.68-.47,4.64,0,9.24-.34,13.87-.35,2.39,0,4.74-.93,7-1.57A42.42,42.42,0,0,1,153,73.72a83,83,0,0,1,16.17-1.37,34.74,34.74,0,0,1,2.45,6.36c.81,3.27-.89,5.53-4.11,7.31-1.64.91-3.17,1.74-4.74,2.7a37.48,37.48,0,0,1-3.93,2.13,49.93,49.93,0,0,1-7.47,2.82c-2.34.62-4.74.71-7.1,1.34a90.1,90.1,0,0,0-13.39,5c-3.55,1.58-6,3.76-10.3,3.75-1.94,0-4.28,0-6-.9-2-1.09-1.92-3.51-2.84-5.24a11.46,11.46,0,0,0-2.25-2.87,33,33,0,0,1-2.43-2.24A11.2,11.2,0,0,1,105.82,90.6Z"/><polygon class="cls-3" points="34.35 111.12 43.79 109.81 43.27 107.22 32.3 108.76 34.35 111.12"/><polygon class="cls-3" points="82.96 112.04 101.01 117.27 101.01 111.53 83.47 106.61 82.96 112.04"/><path class="cls-4" d="M40.21,112.66c.57.89,4.26.65,5.34.69,3.23.15,6.42.54,9.67.54,1.83,0,3.58-.24,5.38-.31a24,24,0,0,1,6.14.92,37.43,37.43,0,0,0,5.76.92,11.48,11.48,0,0,0,4.83-.33c1.07-.37,2.14-.91,3.23-1.19.88-.23,2.13.18,2.92-.32.52-.32.71-1.48.84-2.07a21.87,21.87,0,0,0,.38-4.59c-2.42.09-5-.49-7.47-.65-2.26-.15-4.52-.42-6.78-.49a114.11,114.11,0,0,0-14.75.41c-4,.4-8.21-.1-12.26-.1-.74,0-2.34-.26-2.91.22-.78.66-.56,2.2-.5,3.09S39.74,111.92,40.21,112.66Z"/><path class="cls-5" d="M165.65,76.38c-1.84-.41-4-.1-5.73-.1h-1.16L152.84,92.2c-.25,1.47-.35,5.42-.4,6.91a34.64,34.64,0,0,0,1.44,9.41c.19.78,1.42,1.62,2.09,2.1,1,.74,10,.62,11.53-.83a12.82,12.82,0,0,0,3-4.71,28.7,28.7,0,0,0,1.3-7.5c.1-3.82-.14-7.65-.37-11.46-.18-3.07-1.19-6.4-3.43-8.54A4.84,4.84,0,0,0,165.65,76.38Z"/><path class="cls-6" d="M161.19,100.28a1.84,1.84,0,0,1-.21.24,2.48,2.48,0,0,1-1,.53c-.42.13-.87.1-1.27.26a5,5,0,0,1-.65.19l-1.24.3-2.87.7-6.85,1.66L139.61,106l-7.08,1.72-5.64,1.37c-.83.19-2.65.6-3.41.11s-.42-1.81-.48-2.51-.19-1.64-.28-2.46l-.62-5.57q-.39-3.5-.78-7l5.34-12.2,34.35,5c.06,1.24-1,4.15-1,5.39.11,2.41,1.3,1.66,1.4,4.08,0,.79.14,3.09.17,3.88A3.72,3.72,0,0,1,161.19,100.28Z"/><path class="cls-5" d="M29.29,86.72c-2.11-.44-4.57-.1-6.55-.1H21.41L14.65,104.1c-.29,1.61-.4,5.95-.46,7.59-.14,3.48.79,7,1.64,10.33a3.94,3.94,0,0,0,1.26,2.41c1.17.81,12.51.59,14.31-1a14.14,14.14,0,0,0,3.46-5.17A30.29,30.29,0,0,0,36.34,110c.11-4.2-.15-8.41-.42-12.6C35.71,94,34.56,90.39,32,88A5.67,5.67,0,0,0,29.29,86.72Z"/><polygon class="cls-7" points="29.94 96.66 33.59 103.43 39.07 104.05 62.04 104.45 68.81 102.33 68.81 95.57 33.59 92.45 29.94 96.66"/><path class="cls-5" d="M114.31,88.26c-2.11-.45-4.56-.1-6.55-.11h-1.32l-6.77,17.49c-.29,1.61-.4,6-.46,7.59-.14,3.49.79,7,1.64,10.33a6.65,6.65,0,0,0,2.28,2.68c1.17.81,11.49.32,13.29-1.28a14.07,14.07,0,0,0,3.45-5.17,30.08,30.08,0,0,0,1.49-8.24c.11-4.2-.16-8.4-.42-12.59-.21-3.37-1.36-7-3.92-9.38A5.63,5.63,0,0,0,114.31,88.26Z"/><path class="cls-8" d="M114.11,95.25s3.61.75,3.12,10.9-2.38,12.37-3.65,12.47c0,0-2.74.32-3.05-8.42S111.9,95.56,114.11,95.25Z"/><path class="cls-8" d="M165.74,82.15s3.38.57,3.29,10-1.79,11.59-3,11.74c0,0-2.54.39-3.14-7.73S163.69,82.52,165.74,82.15Z"/><path class="cls-9" d="M172.54,78.87c0-2.46-.31-2.92-1.39-6s-.77-6.31-1.54-11.08-1.08-7.69-4.92-9.54S160.23,44.11,158,40s-4.74-9.29-8.21-13.43-16.06-2.33-35.44-.78-24,3-24,3L77.32,38.41l9.81,32.46c.34,1,.71,2,1,3,.77,2.34,1.65,4.64,2.42,7,.9,2.72,2,5.39,2.81,8.12.38,1.21.88,2.38,1.25,3.6.29,1,.73,1.86,1,2.83.14.57.4,1.15.57,1.69.11.35.49.59.73.85a5.06,5.06,0,0,1,.72,1,5.21,5.21,0,0,1,.61,2.38c.07,1.88-.52,3.72-.4,5.59,0,.73.16,1.76.89,2.13s1.69,0,2.46,0c1.14,0,2.26-.17,3.4-.2a3.51,3.51,0,0,0,3.73-3.62c.27-4.5-.73-8.84.09-13.34.62-3.4,2.14-8.4,5.11-10.51a4.94,4.94,0,0,1,2.68-.92c4.61.16,5.8,17.68,5.8,17.68l39.38-4.17s-.91-8.84,0-14.59c.58-3.5,3.85-10.15,6.92-5.85A14.33,14.33,0,0,1,171,82.41C173,81.94,172.54,81.33,172.54,78.87Z"/><path class="cls-10" d="M96.32,97.37s3-49.37-5.92-68.54c0,0-3.08-4.72-16.92-5s-33-2.39-51.2,1c0,0-4.33.48-9.1,15.18s-3.39,51.93-2.77,54.7C10.41,94.71,53.78,99.72,96.32,97.37Z"/><path class="cls-11" d="M96.66,97.7c1.89,1,1.89,3.68,1.94,5.51a7.66,7.66,0,0,1-.27,2.42A3.3,3.3,0,0,1,96,107.91a7.53,7.53,0,0,1-1.7.05c-.56,0-1.13,0-1.69,0-2.07,0-4.14,0-6.2,0-2.92,0-5.84-.09-8.76-.17q-5.14-.14-10.29-.35c-3.57-.14-7.14-.3-10.71-.46l-1.29-.06c-7.11-.41-14.22-.57-21.33-.7-5.42-.1-10.84-1.09-16.25-1.23-1.17,0-2.33-.06-3.49-.16-.67-.06-1.35-.14-2-.23-1.76-.23-3-.3-3.62-2.16-.29-.87,0-3.25,0-4.16,0-1.52.14-3.9,2.19-3.84,5.28.17,21,1.42,21.83,2.24a7.86,7.86,0,0,1,1.63,2.61c1.86,4,1.34,3.61,9.29,3.71s16.82.72,18.78.31,2-1.14,3.82-3.92.62-2.39,9.91-2.07c3.17.11,6.35.14,9.52.14,2.33,0,4.66,0,7-.06.66,0,1.33-.06,2-.1A4,4,0,0,1,96.66,97.7Z"/><path class="cls-12" d="M84.93,26.31a36.08,36.08,0,0,1,3.09,2,8,8,0,0,0,3.45,1.29c3.54.79,9-2.36,14.7-3s32.37-2.86,35.22-2.86.46-.77,1.92-2.69,3-.54,1.31-4.46-2.38.15-5.54-2.39S133.62,3.42,126.93,1.8s-5.77-.69-11.31-1.38S78.9.23,69.38.05,49.09.2,46,0,42.71,2,40.1,3.19c0,0-2.38.31-7.08.54s-5.08-.08-6.62,4.38-4.69,9.67-4.61,14.67c0,1.07-.36,2.76,1.21,2.55a34.28,34.28,0,0,0,3.39-.86,43.33,43.33,0,0,1,6.3-1c3.21-.27,6.41-.17,9.62-.33s6.61,0,9.9.13c5.29.2,10.58.21,15.86.53,3.1.19,6.23.29,9.31.72a41.94,41.94,0,0,1,5.6,1A10,10,0,0,1,84.93,26.31Z"/><path class="cls-13" d="M55.48,31.34s-2.56,20.1-2.67,23.07S51.27,59,58.45,58.88s22.69.14,25.6.55,3.46-.31,3.08-5.95-1.2-17.95-1.92-19.79-.1-3.89-13.94-4.87S56,26.93,55.48,31.34Z"/><path class="cls-13" d="M48.7,55.49s1.14-18.3,2-23.64S49,27.57,38,28s-13.95-1.5-16.82,7.42S15.15,56.6,16,57.49s12.9.55,18.95.79S48.38,60.27,48.7,55.49Z"/><circle class="cls-14" cx="20.87" cy="76.22" r="20.87"/><circle class="cls-15" cx="18.77" cy="76.22" r="17.95"/><path class="cls-13" d="M98.24,32.06a62.94,62.94,0,0,1,3.89,13.78c.35,2.08.61,4.18.8,6.28.16,1.8,0,3.87.67,5.57.28.73,1.13.58,1.75.55,1-.05,2-.11,2.94-.22,2.06-.23,4.11-.58,6.17-.77a5.42,5.42,0,0,0,2.44-.55c.85-.55.77-1.57.75-2.47,0-1.06-.11-2.11-.23-3.17-.23-2.06-.61-4.09-1-6.12a69.64,69.64,0,0,0-4.21-13.15c-.19-.45-.37-.9-.56-1.36a3.92,3.92,0,0,0-1.73-2.18,5.48,5.48,0,0,0-2.92,0c-.52.08-8.37,1-9,1.39C97.08,30.16,98,31.38,98.24,32.06Z"/><path class="cls-13" d="M125.76,40.61q.55,2.5,1,5c.46,2.84.76,5.7,1,8.56.09,1.14.37,1.34,1.49,1.19.78-.11,1.56-.27,2.34-.37s1.53-.2,2.3-.28a3.09,3.09,0,0,0,1.29-.22c.76-.47.57-1.53.43-2.24-.22-1.12-.36-2.25-.53-3.37-.43-2.66-.9-5.32-1.46-8q-.48-2.25-1.06-4.47a53.58,53.58,0,0,0-2-6.48,23.45,23.45,0,0,0-1.19-2.86c-.44-.77-1.52-.56-2.25-.57a27.58,27.58,0,0,0-4.41.4c-1.09.25.39,3.48.56,4C124.18,34.15,125.05,37.36,125.76,40.61Z"/><path class="cls-13" d="M137.41,39.65c.3,1.19.56,2.38.79,3.59a96.92,96.92,0,0,1,1.26,10c.09,1.14.37,1.35,1.49,1.19.78-.11,1.56-.27,2.35-.37s1.53-.2,2.3-.27a3,3,0,0,0,1.29-.23c.76-.47.57-1.52.43-2.24-.83-4.21-1.44-8.46-2.34-12.65-.56-2.63-1.12-5.32-1.91-7.89a18.4,18.4,0,0,0-1.81-4c-.65-1.08-1.66-.86-2.77-.89a27.63,27.63,0,0,0-4.41.4c-1.09.24.39,3.47.56,4C135.62,33.37,136.62,36.48,137.41,39.65Z"/><path class="cls-16" d="M53,70.68a6.56,6.56,0,0,0-.3,2c-.1,1-.23,2-.24,3a20.67,20.67,0,0,1,.05,2.38,3.36,3.36,0,0,0,.08,1.35,1.17,1.17,0,0,0,.71.93,11.27,11.27,0,0,0,1.76.52,10.2,10.2,0,0,0,2.41.32l2.43.06,5.93.08,5,0a8.6,8.6,0,0,0,4-.53,1.76,1.76,0,0,0,.88-1.1c.34-2.85.5-8.23-.23-9.08-.55-.64-2-.63-2.77-.67-1.93-.1-14.93-.55-17.59-.38a2.53,2.53,0,0,0-1.78.66A1.67,1.67,0,0,0,53,70.68Z"/><path class="cls-17" d="M54.7,72.05a1.61,1.61,0,0,0,0,.22,27.75,27.75,0,0,0-.12,3.66c0,.79,0,1.56,0,2.35a1,1,0,0,0,.36.89,5.47,5.47,0,0,0,2.66.44c5.21.05,10.43,0,15.64,0,.58,0,.85-.19.88-.67.07-1.22.1-2.44.13-3.67,0-.61,0-1.22,0-1.83s.19-1.13-.18-1.53a1.39,1.39,0,0,0-1.1-.35c-3.28,0-6.55-.09-9.83-.17-1.67,0-3.35-.07-5-.08-.87,0-2.58-.28-3.2.37A.8.8,0,0,0,54.7,72.05Z"/><path class="cls-18" d="M55.25,72.5a1.3,1.3,0,0,0,0,.19,22.22,22.22,0,0,0-.11,3.18c0,.68,0,1.36,0,2a.85.85,0,0,0,.34.78,5.55,5.55,0,0,0,2.5.38c4.92,0,9.84,0,14.75,0,.54,0,.8-.17.83-.58.07-1.06.09-2.12.12-3.19,0-.53,0-1.06,0-1.59s.18-1-.17-1.33a1.38,1.38,0,0,0-1-.3c-3.09,0-6.18-.08-9.27-.15-1.58,0-3.16-.06-4.74-.07-.82,0-2.43-.24-3,.32A.68.68,0,0,0,55.25,72.5Z"/><path class="cls-19" d="M88.86,42.11S90.4,56.35,90,58.88a43.81,43.81,0,0,0,7.57,0s-.8-14.4-2-16.93A28.46,28.46,0,0,0,88.86,42.11Z"/><path class="cls-19" d="M13.95,56.33s1.46-11.77,3.15-15.46c0,0,.38-.84-1.58-.69s-2.55.12-2.87,1.63S9.92,53.18,10.47,56.33A6.59,6.59,0,0,0,13.95,56.33Z"/><path class="cls-19" d="M48.7,23.17s8.42-.58,10.57,0a8.87,8.87,0,0,1,0,2.58s-8.74.41-10.57,0A2.9,2.9,0,0,1,48.7,23.17Z"/><path class="cls-20" d="M54.39,27.63s-6.61,35.54-5,67.67"/><path class="cls-20" d="M131.28,26.6s9.86,20.76,8.75,69.59"/><path class="cls-13" d="M144.07,27.19a9.16,9.16,0,0,0,.6,2c.47,1.41,4.25,14.06,4.77,19.14.08.79.2,3.82.56,4.3s1.78.54,2.41.47c1.51-.18,3-.28,4.54-.55.84-.15,3.52-.48,3.8-1.53a5.4,5.4,0,0,0-.46-2.62A63.21,63.21,0,0,0,156,37.67c-1.38-2.82-2.8-5.93-5-8.22A12.61,12.61,0,0,0,147,26.66c-.58-.26-1.62-.79-2.27-.59A1,1,0,0,0,144.07,27.19Z"/><path class="cls-21" d="M160.18,40.67s-.08-1.44.65-1.85,5.12-.46,5.82.21,1.78,1.54,1.52,8.62c0,0-.15,1.54-2.71,1.74a36.65,36.65,0,0,0-5.8.57v1.38c0,.82-1.33-.36-2.05-1.33s.61-3.77.21-4.93.87-.91,1.13.27,1.28.93,1.28.67S160,41.79,160.18,40.67Z"/><path class="cls-22" d="M163,48.82s-2.19.52-2.17-1.64-.43-6.33,0-7.6c0,0,0-.5,1-.6s4-.72,4.2,1.43,1,7.28.41,8S163.4,48.77,163,48.82Z"/><g class="cls-23"><circle class="cls-24" cx="18.77" cy="76.22" r="14.9" transform="translate(-10.96 3.57) rotate(-8.42)"/><path class="cls-25" d="M15.4,81.79,15,79.28l-.36-2.4L14.55,76h0l-1.73.25L12,76.4l.25,1.73.83-.12.52,3.51a6.84,6.84,0,0,1-1.29-8.74l.27,1.84,1.73-.25-.49-3.3-.29-2h0l0-.11-.16.22a8.63,8.63,0,0,0,2.49,15.51l-.29-2Z"/><path class="cls-25" d="M23.67,80.57l-.37-2.51-.35-2.4-.14-.86h0l1.73-.26.83-.12.26,1.73-.83.12.52,3.51A6.86,6.86,0,0,0,24,71l.27,1.85-1.73.25-.49-3.3-.29-2h0v-.11l.22.16A8.63,8.63,0,0,1,24.1,83.47l-.29-2Z"/><path class="cls-25" d="M22.67,81.36h0v0L20.43,66.14A10.07,10.07,0,0,0,18.33,66l2.22,15-.83,1.68-1.28-1.37-2.22-15a10.09,10.09,0,0,0-2,.73L16.5,82.26v0h0l3.73,4Z"/><path class="cls-25" d="M20.68,89.17A13.09,13.09,0,0,1,8.25,68.42a13.08,13.08,0,0,1,8.6-5.15,12.92,12.92,0,0,1,5.19.27,13.08,13.08,0,0,1,7.91,5.87,13.08,13.08,0,0,1-9.27,19.75M17.1,64.94A11.4,11.4,0,1,0,30,74.55,11.42,11.42,0,0,0,17.1,64.94"/></g><path class="cls-16" d="M56.21,77s0,0,0,0h.46s0,0,0,0a.17.17,0,0,0,0,.06.43.43,0,0,0,.11.12.23.23,0,0,0,.15.06h.39a.25.25,0,0,0,.19-.09.28.28,0,0,0,.08-.19V76a.25.25,0,0,0-.08-.19.38.38,0,0,0-.19-.09h-.29l-.27,0a.81.81,0,0,1-.25-.1.72.72,0,0,1-.21-.21.88.88,0,0,1-.09-.18.52.52,0,0,1,0-.19V73.95a.58.58,0,0,1,.07-.26.79.79,0,0,1,.17-.23.84.84,0,0,1,.24-.16.65.65,0,0,1,.26-.06h.43a.67.67,0,0,1,.28.06.84.84,0,0,1,.24.16.83.83,0,0,1,.17.23.64.64,0,0,1,.06.28v0h-.48a.58.58,0,0,0-.1-.18.23.23,0,0,0-.19-.09H57l-.09,0-.09.06a.27.27,0,0,0-.07.08.2.2,0,0,0,0,.09v1a.21.21,0,0,0,.09.18.48.48,0,0,0,.18.08h.41a.76.76,0,0,1,.42.14.84.84,0,0,1,.27.35l0,.11a.36.36,0,0,1,0,.11V77a.49.49,0,0,1,0,.2l-.09.17a.64.64,0,0,1-.26.24.76.76,0,0,1-.35.09H57a.69.69,0,0,1-.28-.06.79.79,0,0,1-.24-.16.76.76,0,0,1-.16-.24.69.69,0,0,1-.06-.28Z"/><path class="cls-16" d="M58.4,73.26h.4v0l.13,2.13a.07.07,0,0,0,0,.06l.08,0a.08.08,0,0,0,.07,0,.21.21,0,0,0,0-.07l.17-.73s0,0,0,0a0,0,0,0,1,0,0l.16.73a.18.18,0,0,0,0,.07.08.08,0,0,0,.07,0l.07,0a.1.1,0,0,0,0-.07l.13-2.14h.39l0,0-.25,4.46h-.46L59.46,77a.11.11,0,0,0,0-.06l-.07,0a.1.1,0,0,0-.08,0,.15.15,0,0,0,0,.08l-.16.71v0l0,0h-.4Z"/><path class="cls-16" d="M61.22,73.83s0,0,0-.06l-.07,0h-.6v-.49h1.89l0,0v.45l0,0h-.59a.1.1,0,0,0-.07,0,.11.11,0,0,0,0,.07v3.89l0,0h-.47Z"/><path class="cls-16" d="M64.4,73.24h1.18a.64.64,0,0,1,.21,0l.2.09a1.8,1.8,0,0,1,.23.27.58.58,0,0,1,.1.34v1.22a.58.58,0,0,1-.1.34,1.81,1.81,0,0,1-.23.27l-.2.09a.58.58,0,0,1-.21,0H65a.08.08,0,0,0-.06,0,.11.11,0,0,0,0,.06v1.67l0,0H64.4ZM65,75.45h.59l.09,0,.09-.06a.3.3,0,0,0,.06-.08.19.19,0,0,0,0-.09V74a.19.19,0,0,0,0-.09l-.06-.08-.09-.06-.09,0H65a.08.08,0,0,0-.07,0,.11.11,0,0,0,0,.07v1.52a.09.09,0,0,0,0,.06Z"/><path class="cls-16" d="M66.54,73.24h1.18a.64.64,0,0,1,.27.06.87.87,0,0,1,.24.16.78.78,0,0,1,.17.23.6.6,0,0,1,.06.27v1.29a.59.59,0,0,1-.09.31,1,1,0,0,1-.21.25l-.07,0-.06,0,0,0a.12.12,0,0,0,0,.07v0l.49,1.66h0v0h-.48L67.43,76l0-.05a.07.07,0,0,0-.05,0h-.23a.09.09,0,0,0-.06,0,.1.1,0,0,0,0,.06v1.67l0,0h-.46Zm.56,2.21h.59l.09,0,.09-.06a.3.3,0,0,0,.06-.08.19.19,0,0,0,0-.09V74a.19.19,0,0,0,0-.09l-.06-.08-.09-.06-.09,0h-.56a.08.08,0,0,0-.07,0,.11.11,0,0,0,0,.07v1.52a.09.09,0,0,0,0,.06Z"/><path class="cls-16" d="M69.37,73.83s0,0,0-.06l-.07,0h-.6v-.49h1.89l0,0v.45l0,0H70a.1.1,0,0,0-.07,0,.11.11,0,0,0,0,.07v3.89l0,0h-.47Z"/><path class="cls-16" d="M71.43,75.94l-.71-2.65v0s0,0,0,0h.49l.35,1.27a.16.16,0,0,0,0,.08.09.09,0,0,0,.07,0l.06,0a.1.1,0,0,0,0-.06l.34-1.26h.49s0,0,0,0h0v0l-.69,2.65v1.78l0,0h-.45l0,0Z"/></g></g></g></svg>