<svg xmlns="http://www.w3.org/2000/svg" viewBox="0 0 315.35 19.25"><defs><style>.cls-1{fill:#ede9d5;}</style></defs><title>Site</title><g id="Layer_2" data-name="Layer 2"><g id="Text"><path class="cls-1" d="M19.48,0A.5.5,0,0,1,19,.45c-.45,0-1,2.19-1,2.31L15,16.49c0,.15-.48,2.31,0,2.31s.28.45.28.45H11.47L9.56,7.44l-2,9.05c0,.15-.45,2.31,0,2.31s.28.45.28.45H3.18s-.11-.45.31-.45.14-2.25.11-2.31L1.35,2.76C1.32,2.7.93.45.45.45S0,0,0,0H4.61s.11.45-.31.45-.14,2.19-.11,2.31l2,12s2.59-12,2.61-12.05C8.68,2.22,8.32.45,7.9.45S7.45,0,7.45,0h3.71L13.6,14.72l2.59-12c0-.06.45-2.31,0-2.31S15.91,0,15.91,0Z"/><path class="cls-1" d="M41.71,0a.5.5,0,0,1-.48.45c-.45,0-1,2.19-1,2.31l-3,13.73c0,.15-.48,2.31,0,2.31s.28.45.28.45H33.7L31.79,7.44l-2,9.05c0,.15-.45,2.31,0,2.31s.28.45.28.45H25.41s-.11-.45.31-.45.14-2.25.11-2.31L23.58,2.76c0-.06-.42-2.31-.9-2.31S22.23,0,22.23,0h4.61s.11.45-.31.45-.14,2.19-.11,2.31l2,12S31,2.73,31,2.67c-.09-.45-.45-2.22-.87-2.22S29.68,0,29.68,0h3.71l2.45,14.72,2.59-12c0-.06.45-2.31,0-2.31S38.14,0,38.14,0Z"/><path class="cls-1" d="M63.94,0a.5.5,0,0,1-.48.45c-.45,0-1,2.19-1,2.31l-3,13.73c0,.15-.48,2.31,0,2.31s.28.45.28.45H55.93L54,7.44l-2,9.05c0,.15-.45,2.31,0,2.31s.28.45.28.45H47.64s-.11-.45.31-.45.14-2.25.11-2.31L45.81,2.76c0-.06-.42-2.31-.9-2.31S44.46,0,44.46,0h4.61s.11.45-.31.45-.14,2.19-.11,2.31l2,12s2.59-12,2.61-12.05c-.09-.45-.45-2.22-.87-2.22S51.91,0,51.91,0h3.71l2.45,14.72,2.59-12c0-.06.45-2.31,0-2.31S60.37,0,60.37,0Z"/><path class="cls-1" d="M68.21,19.22a1.55,1.55,0,1,1,1.43-1.53A1.49,1.49,0,0,1,68.21,19.22Z"/><path class="cls-1" d="M81.48,18.59c-.7.75-4,.66-4,.66a4.67,4.67,0,0,1-4.72-4.65v-10A4.67,4.67,0,0,1,77.49,0h3.79c0,1.47-1.35,4.95-1.43,6.3a.43.43,0,0,0,.2.48V6.72a.65.65,0,1,1,1.29,0,1.2,1.2,0,0,1-.79,1,1.28,1.28,0,0,1-1.41-.27c-1.71-1.71,1-6.39-1.49-6.39-1.29,0-2.08,2.1-2.08,3.54v10c0,3.09,1.94,3.24,2.92,3.24V15.2c0-.15,0-2.31-.51-2.31s-.37-.45-.37-.45h3.71C80.89,13.22,81,18,81.48,18.59Z"/><path class="cls-1" d="M93.82,4.65v10a4.81,4.81,0,0,1-4.58,4.65,4.71,4.71,0,0,1-4.58-4.65v-10A4.67,4.67,0,0,1,89.26,0h0A4.7,4.7,0,0,1,93.82,4.65ZM91,4.65a3.68,3.68,0,0,0-1.74-3.18,3.68,3.68,0,0,0-1.74,3.18v10a3.68,3.68,0,0,0,1.74,3.18A3.68,3.68,0,0,0,91,14.6Z"/><path class="cls-1" d="M106.18,4.65v10a4.81,4.81,0,0,1-4.58,4.65A4.71,4.71,0,0,1,97,14.6v-10A4.67,4.67,0,0,1,101.63,0h0A4.7,4.7,0,0,1,106.18,4.65Zm-2.84,0a3.68,3.68,0,0,0-1.74-3.18,3.68,3.68,0,0,0-1.74,3.18v10a3.68,3.68,0,0,0,1.74,3.18,3.68,3.68,0,0,0,1.74-3.18Z"/><path class="cls-1" d="M119.9,4.65v10a4.67,4.67,0,0,1-4.72,4.65h-5.82a.38.38,0,0,1,.39-.45c.45,0,.48-2.19.48-2.31V2.76c0-.12,0-2.31-.48-2.31a.38.38,0,0,1-.39-.45h5.82A4.67,4.67,0,0,1,119.9,4.65Zm-2.81,0A3.47,3.47,0,0,0,113.77,1a2.67,2.67,0,0,0-.7.09v17a2.63,2.63,0,0,0,.7.09,3.47,3.47,0,0,0,3.32-3.6Z"/><path class="cls-1" d="M134,0a.47.47,0,0,1-.48.45c-.45,0-1,2.19-1,2.31l-3,13.73c0,.12-.45,2.31,0,2.31s.28.45.28.45h-4.69s-.11-.45.31-.45.14-2.25.11-2.31L123.33,2.76c0-.06-.42-2.31-.9-2.31S122,0,122,0h4.61s.11.45-.31.45-.14,2.19-.11,2.31l2,12,2.59-12c0-.06.48-2.31,0-2.31s-.28-.45-.28-.45Z"/><path class="cls-1" d="M141.15,19.25h-4.61a.38.38,0,0,1,.39-.45c.45,0,.48-2.19.48-2.31V2.76c0-.12,0-2.31-.48-2.31a.38.38,0,0,1-.39-.45h4.61a.38.38,0,0,1-.39.45c-.48,0-.51,2.34-.51,2.34v13.7s0,2.31.51,2.31A.38.38,0,0,1,141.15,19.25Z"/><path class="cls-1" d="M155.48,13.52a5.56,5.56,0,0,1-5.37,5.73h-6a.38.38,0,0,1,.39-.45c.45,0,.48-2.19.48-2.31V2.76c0-.12,0-2.31-.48-2.31a.38.38,0,0,1-.39-.45h5.82a4.69,4.69,0,0,1,4.72,4.65,4.64,4.64,0,0,1-2.05,3.84A5.72,5.72,0,0,1,155.48,13.52Zm-7.65-5.28c.73-.18,1.52-.24,2.25-.42,1.15-.33,1.77-1.8,1.77-3.18A3.47,3.47,0,0,0,148.54,1a2.69,2.69,0,0,0-.7.09Zm4.81,5.43a4.28,4.28,0,0,0-4.13-4.41,2.59,2.59,0,0,0-.67.06V18a5.11,5.11,0,0,0,.67.06A4.28,4.28,0,0,0,152.64,13.67Z"/><path class="cls-1" d="M167.57,19.25h-9.11a.38.38,0,0,1,.39-.45c.45,0,.48-2.13.48-2.31V2.76c0-.18,0-2.31-.48-2.31a.38.38,0,0,1-.39-.45h8.91c0,1.47-1.32,4.95-1.41,6.3a.47.47,0,0,0,.17.48V6.72a.66.66,0,1,1,1.32,0,1.19,1.19,0,0,1-.79,1,1.27,1.27,0,0,1-1.41-.27c-1.74-1.71,1.24-6.33-1.49-6.39h-1.6V11.9c.28,0,2.16-.06,2.16-.54a.36.36,0,0,1,.42-.39v3a.36.36,0,0,1-.42-.39c0-.48-1.88-.54-2.16-.54v5.1h1.52c2.16-.09,2.59-3.84,2.59-4.8,0-1.32,1.29-1,1.29-1S166.58,14.93,167.57,19.25Z"/><path class="cls-1" d="M179.48,18.59c-.7.75-4,.66-4,.66a4.67,4.67,0,0,1-4.72-4.65v-10A4.67,4.67,0,0,1,175.49,0h3.79c0,1.47-1.35,4.95-1.43,6.3a.43.43,0,0,0,.2.48V6.72a.65.65,0,1,1,1.29,0,1.2,1.2,0,0,1-.79,1,1.28,1.28,0,0,1-1.41-.27c-1.71-1.71,1-6.39-1.49-6.39-1.29,0-2.08,2.1-2.08,3.54v10c0,3.09,1.94,3.24,2.92,3.24V15.2c0-.15,0-2.31-.51-2.31s-.37-.45-.37-.45h3.71C178.89,13.22,179,18,179.48,18.59Z"/><path class="cls-1" d="M191.71,19.25H182.6a.38.38,0,0,1,.39-.45c.45,0,.48-2.13.48-2.31V2.76c0-.18,0-2.31-.48-2.31A.38.38,0,0,1,182.6,0h8.91c0,1.47-1.32,4.95-1.41,6.3a.47.47,0,0,0,.17.48V6.72a.66.66,0,1,1,1.32,0,1.19,1.19,0,0,1-.79,1,1.27,1.27,0,0,1-1.41-.27c-1.74-1.71,1.24-6.33-1.49-6.39h-1.6V11.9c.28,0,2.16-.06,2.16-.54a.36.36,0,0,1,.42-.39v3a.36.36,0,0,1-.42-.39c0-.48-1.88-.54-2.16-.54v5.1h1.52c2.16-.09,2.59-3.84,2.59-4.8,0-1.32,1.29-1,1.29-1S190.73,14.93,191.71,19.25Z"/><path class="cls-1" d="M206,6.72a1.34,1.34,0,0,1-.79,1,1.28,1.28,0,0,1-1.41-.27c-1.74-1.71,1.24-6.33-1.49-6.39h-.65V16.49c0,.12.06,2.31.51,2.31a.38.38,0,0,1,.39.45H198a.38.38,0,0,1,.39-.45c.45,0,.48-2.13.48-2.31V1.11h-.62c-2.73.06.23,4.68-1.49,6.39a1.28,1.28,0,0,1-1.41.27,1.31,1.31,0,0,1-.79-1,.69.69,0,0,1,.65-.72.71.71,0,0,1,.67.72s0,0,0,.06a.43.43,0,0,0,.2-.48c-.08-1.35-1.41-4.83-1.41-6.3H206c0,1.47-1.32,4.95-1.41,6.3a.47.47,0,0,0,.17.48V6.72A.71.71,0,0,1,205.4,6,.69.69,0,0,1,206,6.72Z"/><path class="cls-1" d="M219.42,4.65v10a4.67,4.67,0,0,1-4.72,4.65h-5.82a.38.38,0,0,1,.39-.45c.45,0,.48-2.19.48-2.31V2.76c0-.12,0-2.31-.48-2.31a.38.38,0,0,1-.39-.45h5.82A4.67,4.67,0,0,1,219.42,4.65Zm-2.81,0A3.47,3.47,0,0,0,213.3,1a2.67,2.67,0,0,0-.7.09v17a2.63,2.63,0,0,0,.7.09,3.47,3.47,0,0,0,3.32-3.6Z"/><path class="cls-1" d="M231.79,4.65v10a4.81,4.81,0,0,1-4.58,4.65,4.71,4.71,0,0,1-4.58-4.65v-10A4.67,4.67,0,0,1,227.24,0h0A4.7,4.7,0,0,1,231.79,4.65Zm-2.84,0a3.68,3.68,0,0,0-1.74-3.18,3.68,3.68,0,0,0-1.74,3.18v10a3.68,3.68,0,0,0,1.74,3.18A3.68,3.68,0,0,0,229,14.6Z"/><path class="cls-1" d="M253.4,0a.5.5,0,0,1-.48.45c-.45,0-1,2.19-1,2.31l-3,13.73c0,.15-.48,2.31,0,2.31s.28.45.28.45h-3.85L243.48,7.44l-2,9.05c0,.15-.45,2.31,0,2.31s.28.45.28.45H237.1s-.11-.45.31-.45.14-2.25.11-2.31L235.27,2.76c0-.06-.42-2.31-.9-2.31s-.45-.45-.45-.45h4.61s.11.45-.31.45-.14,2.19-.11,2.31l2,12s2.59-12,2.61-12.05c-.08-.45-.45-2.22-.87-2.22s-.45-.45-.45-.45h3.71l2.45,14.72,2.59-12c0-.06.45-2.31,0-2.31s-.28-.45-.28-.45Z"/><path class="cls-1" d="M267,19.25H263.3L259,5.7V16.46s0,2.34.51,2.34.39.45.39.45h-3.6a.38.38,0,0,1,.39-.45c.45,0,.48-2.13.48-2.31V2.76c0-.18,0-2.31-.48-2.31a.38.38,0,0,1-.39-.45h3.74l3.23,10.28V2.76c0-.18,0-2.31-.48-2.31a.38.38,0,0,1-.39-.45H267a.38.38,0,0,1-.39.45c-.45,0-.51,2.16-.51,2.31V16.49c0,.12.06,2.31.51,2.31A.38.38,0,0,1,267,19.25Z"/><path class="cls-1" d="M271.53,19.22A1.55,1.55,0,1,1,273,17.69,1.49,1.49,0,0,1,271.53,19.22Z"/><path class="cls-1" d="M285,14.81c0,2.58-1.55,4.44-4.19,4.44a4.67,4.67,0,0,1-4.69-4.65v-10A4.77,4.77,0,0,1,280.81,0h3.79c0,1.47-1.35,4.95-1.43,6.3a.43.43,0,0,0,.2.48V6.72a.65.65,0,1,1,1.29,0,1.2,1.2,0,0,1-.79,1,1.28,1.28,0,0,1-1.41-.27c-1.71-1.71,1-6.39-1.49-6.39-1.29,0-2.08,2.1-2.08,3.54v10c0,1.44.76,3.24,1.91,3.24,2.61,0,2.58-4.32,1.12-4.32C281.93,12.2,285,11.69,285,14.81Z"/><path class="cls-1" d="M297.25,4.65v10a4.81,4.81,0,0,1-4.58,4.65,4.71,4.71,0,0,1-4.58-4.65v-10A4.67,4.67,0,0,1,292.7,0h0A4.7,4.7,0,0,1,297.25,4.65Zm-2.84,0a3.68,3.68,0,0,0-1.74-3.18,3.68,3.68,0,0,0-1.74,3.18v10a3.68,3.68,0,0,0,1.74,3.18,3.68,3.68,0,0,0,1.74-3.18Z"/><path class="cls-1" d="M315.35,19.25h-4.61a.38.38,0,0,1,.39-.45c.45,0,.48-2.13.48-2.31V6.06l-4.16,13.19L303.18,5.7V16.49s0,2.31.51,2.31.39.45.39.45h-3.6a.38.38,0,0,1,.39-.45c.45,0,.48-2.19.48-2.31V2.76c0-.12,0-2.31-.48-2.31a.38.38,0,0,1-.39-.45h3.74l3.71,11.72L311.61,0h3.74a.38.38,0,0,1-.39.45c-.45,0-.51,2.19-.51,2.31V16.49c0,.12.06,2.31.51,2.31A.38.38,0,0,1,315.35,19.25Z"/></g></g></svg>